SeanSans-WideLight.ufo
<glyph name="exclam" format="1">
  <advance width="251"/>
  <unicode hex="0021"/>
  <outline>
    <contour>
      <point x="150" y="229" type="line"/>
      <point x="159" y="722" type="line"/>
      <point x="90" y="722" type="line"/>
      <point x="98" y="229" type="line"/>
    </contour>
    <contour>
      <point x="166" y="27" type="curve"/>
      <point x="166" y="49"/>
      <point x="149" y="61"/>
      <point x="125" y="61" type="curve"/>
      <point x="102" y="61"/>
      <point x="86" y="49"/>
      <point x="86" y="27" type="curve"/>
      <point x="150" y="27"/>
      <point x="102" y="27"/>
      <point x="166" y="27" type="curve"/>
      <point x="166" y="4"/>
      <point x="149" y="-7"/>
      <point x="125" y="-7" type="curve"/>
      <point x="102" y="-7"/>
      <point x="86" y="5"/>
      <point x="86" y="27" type="curve"/>
      <point x="150" y="27"/>
      <point x="102" y="27"/>
    </contour>
  </outline>
</glyph>
<glyph name="quotedbl" format="1">
  <advance width="429"/>
  <unicode hex="0022"/>
  <outline>
    <contour>
      <point x="133" y="612" type="line"/>
      <point x="138" y="813" type="line"/>
      <point x="67" y="813" type="line"/>
      <point x="72" y="612" type="line"/>
    </contour>
    <contour>
      <point x="358" y="612" type="line"/>
      <point x="363" y="813" type="line"/>
      <point x="291" y="813" type="line"/>
      <point x="296" y="612" type="line"/>
    </contour>
  </outline>
</glyph>
<glyph name="numbersign" format="1">
  <advance width="821"/>
  <unicode hex="0023"/>
  <outline>
    <contour>
      <point x="42" y="238" type="curve"/>
      <point x="670" y="238" type="curve"/>
      <point x="688" y="286" type="curve"/>
      <point x="61" y="286" type="curve"/>
    </contour>
    <contour>
      <point x="132" y="473" type="curve"/>
      <point x="762" y="473" type="curve"/>
      <point x="780" y="521" type="curve"/>
      <point x="150" y="521" type="curve"/>
    </contour>
    <contour>
      <point x="491" y="39" type="curve"/>
      <point x="767" y="722" type="curve"/>
      <point x="704" y="722" type="curve"/>
      <point x="428" y="39" type="curve"/>
    </contour>
    <contour>
      <point x="141" y="46" type="curve"/>
      <point x="413" y="722" type="curve"/>
      <point x="351" y="722" type="curve"/>
      <point x="81" y="46" type="curve"/>
    </contour>
  </outline>
</glyph>
<glyph name="dollar" format="1">
  <advance width="661"/>
  <unicode hex="0024"/>
  <outline>
    <contour>
      <point x="338" y="-42" type="curve"/>
      <point x="338" y="-9"/>
      <point x="338" y="38"/>
      <point x="338" y="71" type="curve"/>
      <point x="275" y="71"/>
      <point x="338" y="71"/>
      <point x="275" y="71" type="curve"/>
      <point x="275" y="38"/>
      <point x="275" y="-9"/>
      <point x="275" y="-42" type="curve"/>
      <point x="338" y="-42"/>
      <point x="275" y="-42"/>
    </contour>
    <contour>
      <point x="353" y="659" type="curve"/>
      <point x="353" y="692"/>
      <point x="353" y="740"/>
      <point x="353" y="773" type="curve"/>
      <point x="290" y="773"/>
      <point x="353" y="773"/>
      <point x="290" y="773" type="curve"/>
      <point x="290" y="740"/>
      <point x="290" y="692"/>
      <point x="290" y="659" type="curve"/>
      <point x="353" y="659"/>
      <point x="290" y="659"/>
    </contour>
    <contour>
      <point x="48" y="97" type="curve"/>
      <point x="121" y="69"/>
      <point x="207" y="46"/>
      <point x="303" y="46" type="curve"/>
      <point x="467" y="46"/>
      <point x="611" y="77"/>
      <point x="611" y="205" type="curve"/>
      <point x="611" y="326"/>
      <point x="476" y="353"/>
      <point x="343" y="397" type="curve"/>
      <point x="235" y="432"/>
      <point x="135" y="451"/>
      <point x="135" y="536" type="curve"/>
      <point x="135" y="614"/>
      <point x="223" y="637"/>
      <point x="326" y="637" type="curve"/>
      <point x="413" y="637"/>
      <point x="473" y="623"/>
      <point x="554" y="591" type="curve"/>
      <point x="582" y="632"/>
      <point x="554" y="591"/>
      <point x="582" y="632" type="curve"/>
      <point x="495" y="667"/>
      <point x="426" y="684"/>
      <point x="330" y="684" type="curve"/>
      <point x="188" y="684"/>
      <point x="72" y="648"/>
      <point x="72" y="536" type="curve"/>
      <point x="72" y="423"/>
      <point x="181" y="393"/>
      <point x="306" y="353" type="curve"/>
      <point x="422" y="316"/>
      <point x="549" y="296"/>
      <point x="549" y="203" type="curve"/>
      <point x="549" y="115"/>
      <point x="436" y="94"/>
      <point x="309" y="94" type="curve"/>
      <point x="223" y="94"/>
      <point x="147" y="117"/>
      <point x="78" y="141" type="curve"/>
      <point x="48" y="96"/>
      <point x="78" y="141"/>
    </contour>
  </outline>
</glyph>
<glyph name="percent" format="1">
  <advance width="1319"/>
  <unicode hex="0025"/>
  <outline>
    <contour>
      <point x="439" y="-76" type="line"/>
      <point x="981" y="742" type="line"/>
      <point x="921" y="742" type="line"/>
      <point x="378" y="-76" type="line"/>
    </contour>
    <contour>
      <point x="97" y="532" type="curve"/>
      <point x="97" y="634"/>
      <point x="159" y="697"/>
      <point x="261" y="697" type="curve"/>
      <point x="364" y="698"/>
      <point x="426" y="635"/>
      <point x="426" y="533" type="curve"/>
      <point x="426" y="431"/>
      <point x="367" y="366"/>
      <point x="265" y="366" type="curve"/>
      <point x="161" y="366"/>
      <point x="97" y="429"/>
      <point x="97" y="532" type="curve"/>
      <point x="75" y="532"/>
      <point x="60" y="532"/>
      <point x="38" y="532" type="curve"/>
      <point x="38" y="398"/>
      <point x="125" y="318"/>
      <point x="262" y="318" type="curve"/>
      <point x="400" y="318"/>
      <point x="488" y="398"/>
      <point x="488" y="535" type="curve"/>
      <point x="488" y="668"/>
      <point x="400" y="745"/>
      <point x="264" y="745" type="curve"/>
      <point x="126" y="745"/>
      <point x="38" y="667"/>
      <point x="38" y="532" type="curve"/>
      <point x="60" y="532"/>
      <point x="75" y="532"/>
    </contour>
    <contour>
      <point x="890" y="132" type="curve"/>
      <point x="890" y="234"/>
      <point x="953" y="296"/>
      <point x="1055" y="296" type="curve"/>
      <point x="1158" y="297"/>
      <point x="1220" y="234"/>
      <point x="1220" y="132" type="curve"/>
      <point x="1220" y="30"/>
      <point x="1160" y="-35"/>
      <point x="1059" y="-35" type="curve"/>
      <point x="954" y="-35"/>
      <point x="890" y="28"/>
      <point x="890" y="132" type="curve"/>
      <point x="868" y="132"/>
      <point x="854" y="132"/>
      <point x="832" y="132" type="curve"/>
      <point x="832" y="-3"/>
      <point x="919" y="-83"/>
      <point x="1056" y="-83" type="curve"/>
      <point x="1194" y="-83"/>
      <point x="1281" y="-2"/>
      <point x="1281" y="134" type="curve"/>
      <point x="1281" y="267"/>
      <point x="1194" y="344"/>
      <point x="1058" y="345" type="curve"/>
      <point x="920" y="345"/>
      <point x="832" y="266"/>
      <point x="832" y="132" type="curve"/>
      <point x="854" y="132"/>
      <point x="868" y="132"/>
    </contour>
  </outline>
</glyph>
<glyph name="ampersand" format="1">
  <advance width="826"/>
  <unicode hex="0026"/>
  <outline>
    <contour>
      <point x="808" y="31" type="line"/>
      <point x="669" y="138"/>
      <point x="530" y="248"/>
      <point x="390" y="358" type="curve"/>
      <point x="312" y="423"/>
      <point x="212" y="465"/>
      <point x="212" y="569" type="curve"/>
      <point x="212" y="639"/>
      <point x="269" y="678"/>
      <point x="344" y="678" type="curve"/>
      <point x="427" y="678"/>
      <point x="494" y="646"/>
      <point x="494" y="571" type="curve"/>
      <point x="494" y="469"/>
      <point x="399" y="439"/>
      <point x="302" y="397" type="curve"/>
      <point x="182" y="344"/>
      <point x="64" y="310"/>
      <point x="64" y="184" type="curve"/>
      <point x="64" y="50"/>
      <point x="188" y="-5"/>
      <point x="337" y="-5" type="curve"/>
      <point x="550" y="-5"/>
      <point x="691" y="117"/>
      <point x="773" y="316" type="curve"/>
      <point x="720" y="328"/>
      <point x="773" y="316"/>
      <point x="720" y="328" type="curve"/>
      <point x="647" y="153"/>
      <point x="526" y="43"/>
      <point x="340" y="43" type="curve"/>
      <point x="224" y="43"/>
      <point x="125" y="80"/>
      <point x="125" y="184" type="curve"/>
      <point x="125" y="289"/>
      <point x="227" y="314"/>
      <point x="327" y="358" type="curve"/>
      <point x="443" y="410"/>
      <point x="554" y="448"/>
      <point x="556" y="571" type="curve"/>
      <point x="556" y="677"/>
      <point x="463" y="726"/>
      <point x="347" y="726" type="curve"/>
      <point x="236" y="726"/>
      <point x="151" y="672"/>
      <point x="151" y="569" type="curve"/>
      <point x="151" y="452"/>
      <point x="257" y="400"/>
      <point x="347" y="329" type="curve"/>
      <point x="484" y="220"/>
      <point x="640" y="99"/>
      <point x="776" y="-7" type="curve"/>
    </contour>
  </outline>
</glyph>
<glyph name="parenleft" format="1">
  <advance width="413"/>
  <unicode hex="0028"/>
  <outline>
    <contour>
      <point x="411" y="-226" type="curve"/>
      <point x="218" y="-76"/>
      <point x="116" y="82"/>
      <point x="116" y="326" type="curve"/>
      <point x="116" y="570"/>
      <point x="219" y="726"/>
      <point x="409" y="880" type="curve"/>
      <point x="372" y="911"/>
      <point x="409" y="880"/>
      <point x="372" y="911" type="curve"/>
      <point x="167" y="751"/>
      <point x="54" y="587"/>
      <point x="54" y="326" type="curve"/>
      <point x="54" y="65"/>
      <point x="167" y="-99"/>
      <point x="374" y="-260" type="curve"/>
      <point x="411" y="-226"/>
      <point x="374" y="-260"/>
    </contour>
  </outline>
</glyph>
<glyph name="parenright" format="1">
  <advance width="428"/>
  <unicode hex="0029"/>
  <outline>
    <contour>
      <point x="38" y="-275" type="curve"/>
      <point x="248" y="-106"/>
      <point x="374" y="57"/>
      <point x="374" y="328" type="curve"/>
      <point x="374" y="592"/>
      <point x="255" y="754"/>
      <point x="43" y="912" type="curve"/>
      <point x="6" y="878"/>
      <point x="43" y="912"/>
      <point x="6" y="878" type="curve"/>
      <point x="202" y="726"/>
      <point x="311" y="573"/>
      <point x="311" y="325" type="curve"/>
      <point x="311" y="73"/>
      <point x="193" y="-80"/>
      <point x="0" y="-244" type="curve"/>
      <point x="38" y="-275"/>
      <point x="0" y="-244"/>
    </contour>
  </outline>
</glyph>
<glyph name="asterisk" format="1">
  <advance width="643"/>
  <unicode hex="002A"/>
  <outline>
    <contour>
      <point x="341" y="605" type="line"/>
      <point x="345" y="806" type="line"/>
      <point x="289" y="806" type="line"/>
      <point x="293" y="605" type="line"/>
    </contour>
    <contour>
      <point x="382" y="549" type="line"/>
      <point x="574" y="609" type="line"/>
      <point x="556" y="663" type="line"/>
      <point x="366" y="595" type="line"/>
    </contour>
    <contour>
      <point x="342" y="492" type="line"/>
      <point x="461" y="330" type="line"/>
      <point x="504" y="365" type="line"/>
      <point x="379" y="522" type="line"/>
    </contour>
    <contour>
      <point x="275" y="516" type="line"/>
      <point x="150" y="358" type="line"/>
      <point x="195" y="324" type="line"/>
      <point x="313" y="485" type="line"/>
    </contour>
    <contour>
      <point x="275" y="584" type="line"/>
      <point x="87" y="652" type="line"/>
      <point x="68" y="599" type="line"/>
      <point x="260" y="538" type="line"/>
    </contour>
  </outline>
</glyph>
<glyph name="plus" format="1">
  <advance width="694"/>
  <unicode hex="002B"/>
  <outline>
    <contour>
      <point x="43" y="284" type="curve"/>
      <point x="650" y="284" type="line"/>
      <point x="650" y="337"/>
      <point x="650" y="284"/>
      <point x="650" y="337" type="curve"/>
      <point x="43" y="337" type="line"/>
      <point x="43" y="284"/>
      <point x="43" y="337"/>
    </contour>
    <contour>
      <point x="374" y="19" type="curve"/>
      <point x="374" y="588" type="line"/>
      <point x="312" y="588"/>
      <point x="377" y="588"/>
      <point x="315" y="588" type="curve"/>
      <point x="315" y="19" type="line"/>
      <point x="377" y="19"/>
      <point x="312" y="19"/>
    </contour>
  </outline>
</glyph>
<glyph name="comma" format="1">
  <advance width="168"/>
  <unicode hex="002C"/>
  <outline>
    <contour>
      <point x="26" y="-121" type="line"/>
      <point x="83" y="-102"/>
      <point x="127" y="-57"/>
      <point x="127" y="13" type="curve"/>
      <point x="127" y="51"/>
      <point x="112" y="82"/>
      <point x="79" y="82" type="curve"/>
      <point x="55" y="82"/>
      <point x="39" y="70"/>
      <point x="39" y="48" type="curve"/>
      <point x="39" y="26"/>
      <point x="53" y="15"/>
      <point x="77" y="11" type="curve"/>
      <point x="77" y="-20"/>
      <point x="62" y="-62"/>
      <point x="15" y="-84" type="curve"/>
    </contour>
  </outline>
</glyph>
<glyph name="hyphen" format="1">
  <advance width="528"/>
  <unicode hex="002D"/>
  <outline>
    <contour>
      <point x="79" y="249" type="curve"/>
      <point x="202" y="249"/>
      <point x="326" y="249"/>
      <point x="449" y="249" type="curve"/>
      <point x="449" y="302"/>
      <point x="449" y="249"/>
      <point x="449" y="302" type="curve"/>
      <point x="326" y="302"/>
      <point x="202" y="302"/>
      <point x="79" y="302" type="curve"/>
      <point x="79" y="249"/>
      <point x="79" y="302"/>
    </contour>
  </outline>
</glyph>
<glyph name="period" format="1">
  <advance width="211"/>
  <unicode hex="002E"/>
  <outline>
    <contour>
      <point x="145" y="27" type="curve"/>
      <point x="145" y="49"/>
      <point x="128" y="61"/>
      <point x="105" y="61" type="curve"/>
      <point x="82" y="61"/>
      <point x="66" y="49"/>
      <point x="66" y="27" type="curve"/>
      <point x="130" y="27"/>
      <point x="82" y="27"/>
      <point x="145" y="27" type="curve"/>
      <point x="145" y="4"/>
      <point x="129" y="-7"/>
      <point x="104" y="-7" type="curve"/>
      <point x="81" y="-7"/>
      <point x="66" y="5"/>
      <point x="66" y="27" type="curve"/>
      <point x="130" y="27"/>
      <point x="82" y="27"/>
    </contour>
  </outline>
</glyph>
<glyph name="slash" format="1">
  <advance width="658"/>
  <unicode hex="002F"/>
  <outline>
    <contour>
      <point x="89" y="-51" type="curve"/>
      <point x="270" y="241"/>
      <point x="451" y="533"/>
      <point x="632" y="824" type="curve"/>
      <point x="569" y="824"/>
      <point x="632" y="824"/>
      <point x="569" y="824" type="curve"/>
      <point x="389" y="533"/>
      <point x="208" y="241"/>
      <point x="27" y="-51" type="curve"/>
      <point x="89" y="-51"/>
      <point x="27" y="-51"/>
    </contour>
  </outline>
</glyph>
<glyph name="zero" format="1">
  <advance width="867"/>
  <unicode hex="0030"/>
  <outline>
    <contour>
      <point x="129" y="360" type="curve"/>
      <point x="129" y="557"/>
      <point x="241" y="675"/>
      <point x="433" y="675" type="curve"/>
      <point x="625" y="675"/>
      <point x="739" y="557"/>
      <point x="739" y="362" type="curve"/>
      <point x="739" y="167"/>
      <point x="628" y="47"/>
      <point x="439" y="47" type="curve"/>
      <point x="245" y="47"/>
      <point x="129" y="164"/>
      <point x="129" y="360" type="curve"/>
      <point x="66" y="360"/>
      <point x="127" y="360"/>
      <point x="65" y="360" type="curve"/>
      <point x="65" y="130"/>
      <point x="206" y="-5"/>
      <point x="436" y="-5" type="curve"/>
      <point x="665" y="-5"/>
      <point x="802" y="132"/>
      <point x="802" y="363" type="curve"/>
      <point x="802" y="592"/>
      <point x="666" y="727"/>
      <point x="438" y="727" type="curve"/>
      <point x="206" y="727"/>
      <point x="65" y="592"/>
      <point x="65" y="360" type="curve"/>
      <point x="127" y="360"/>
      <point x="66" y="360"/>
    </contour>
  </outline>
</glyph>
<glyph name="one" format="1">
  <advance width="423"/>
  <unicode hex="0031"/>
  <outline>
    <contour>
      <point x="52" y="510" type="curve"/>
      <point x="320" y="688"/>
      <point x="52" y="510"/>
      <point x="320" y="688" type="curve"/>
      <point x="272" y="722"/>
      <point x="320" y="688"/>
      <point x="272" y="722" type="curve"/>
      <point x="21" y="556"/>
      <point x="272" y="722"/>
      <point x="21" y="556" type="curve"/>
      <point x="52" y="510"/>
      <point x="21" y="556"/>
    </contour>
    <contour>
      <point x="334" y="0" type="curve"/>
      <point x="334" y="241"/>
      <point x="334" y="481"/>
      <point x="334" y="722" type="curve"/>
      <point x="272" y="722"/>
      <point x="334" y="722"/>
      <point x="272" y="722" type="curve"/>
      <point x="272" y="481"/>
      <point x="272" y="241"/>
      <point x="272" y="0" type="curve"/>
      <point x="334" y="0"/>
      <point x="272" y="0"/>
    </contour>
  </outline>
</glyph>
<glyph name="two" format="1">
  <advance width="690"/>
  <unicode hex="0032"/>
  <outline>
    <contour>
      <point x="43" y="0" type="curve"/>
      <point x="257" y="0"/>
      <point x="443" y="0"/>
      <point x="636" y="0" type="curve"/>
      <point x="636" y="49"/>
      <point x="636" y="0"/>
      <point x="636" y="49" type="curve"/>
      <point x="433" y="49"/>
      <point x="245" y="49"/>
      <point x="43" y="49" type="curve"/>
      <point x="43" y="0"/>
      <point x="43" y="49"/>
    </contour>
    <contour>
      <point x="108" y="546" type="curve"/>
      <point x="172" y="631"/>
      <point x="239" y="675"/>
      <point x="341" y="675" type="curve"/>
      <point x="455" y="675"/>
      <point x="538" y="629"/>
      <point x="538" y="519" type="curve"/>
      <point x="538" y="395"/>
      <point x="441" y="327"/>
      <point x="330" y="253" type="curve"/>
      <point x="234" y="184"/>
      <point x="138" y="116"/>
      <point x="43" y="49" type="curve"/>
      <point x="50" y="0"/>
      <point x="43" y="49"/>
      <point x="50" y="0" type="curve"/>
      <point x="172" y="71"/>
      <point x="270" y="143"/>
      <point x="369" y="214" type="curve"/>
      <point x="495" y="297"/>
      <point x="597" y="369"/>
      <point x="597" y="521" type="curve"/>
      <point x="597" y="663"/>
      <point x="493" y="727"/>
      <point x="344" y="727" type="curve"/>
      <point x="221" y="727"/>
      <point x="130" y="676"/>
      <point x="65" y="576" type="curve"/>
      <point x="108" y="546"/>
      <point x="65" y="576"/>
    </contour>
  </outline>
</glyph>
<glyph name="three" format="1">
  <advance width="651"/>
  <unicode hex="0033"/>
  <outline>
    <contour>
      <point x="51" y="55" type="curve"/>
      <point x="124" y="17"/>
      <point x="196" y="-5"/>
      <point x="290" y="-5" type="curve"/>
      <point x="461" y="-5"/>
      <point x="589" y="42"/>
      <point x="589" y="204" type="curve"/>
      <point x="589" y="349"/>
      <point x="413" y="398"/>
      <point x="179" y="398" type="curve"/>
      <point x="179" y="357"/>
      <point x="179" y="397"/>
      <point x="179" y="357" type="curve"/>
      <point x="352" y="357"/>
      <point x="530" y="321"/>
      <point x="530" y="201" type="curve"/>
      <point x="530" y="75"/>
      <point x="412" y="48"/>
      <point x="292" y="48" type="curve"/>
      <point x="218" y="48"/>
      <point x="157" y="65"/>
      <point x="79" y="99" type="curve"/>
      <point x="51" y="55"/>
      <point x="79" y="99"/>
    </contour>
    <contour>
      <point x="91" y="605" type="curve"/>
      <point x="138" y="644"/>
      <point x="208" y="674"/>
      <point x="285" y="674" type="curve"/>
      <point x="400" y="674"/>
      <point x="487" y="647"/>
      <point x="487" y="546" type="curve"/>
      <point x="487" y="442"/>
      <point x="336" y="404"/>
      <point x="179" y="404" type="curve"/>
      <point x="179" y="364"/>
      <point x="179" y="404"/>
      <point x="179" y="363" type="curve"/>
      <point x="379" y="363"/>
      <point x="547" y="409"/>
      <point x="547" y="549" type="curve"/>
      <point x="547" y="680"/>
      <point x="436" y="727"/>
      <point x="290" y="727" type="curve"/>
      <point x="194" y="727"/>
      <point x="108" y="688"/>
      <point x="57" y="642" type="curve"/>
      <point x="91" y="605"/>
      <point x="57" y="642"/>
    </contour>
  </outline>
</glyph>
<glyph name="four" format="1">
  <advance width="750"/>
  <unicode hex="0034"/>
  <outline>
    <contour>
      <point x="50" y="258" type="line"/>
      <point x="476" y="690" type="line"/>
      <point x="429" y="714" type="line"/>
      <point x="23" y="306" type="line"/>
    </contour>
    <contour>
      <point x="711" y="306" type="line"/>
      <point x="23" y="306" type="line"/>
      <point x="23" y="253" type="line"/>
      <point x="711" y="253" type="line"/>
    </contour>
    <contour>
      <point x="491" y="1" type="line"/>
      <point x="491" y="714" type="line"/>
      <point x="429" y="714" type="line"/>
      <point x="429" y="1" type="line"/>
    </contour>
  </outline>
</glyph>
<glyph name="five" format="1">
  <advance width="638"/>
  <unicode hex="0035"/>
  <outline>
    <contour>
      <point x="107" y="722" type="curve"/>
      <point x="107" y="622"/>
      <point x="107" y="508"/>
      <point x="107" y="392" type="curve"/>
      <point x="167" y="379"/>
      <point x="107" y="392"/>
      <point x="167" y="379" type="curve"/>
      <point x="167" y="476"/>
      <point x="167" y="577"/>
      <point x="167" y="673" type="curve"/>
      <point x="107" y="722"/>
      <point x="167" y="673"/>
    </contour>
    <contour>
      <point x="167" y="379" type="curve"/>
      <point x="197" y="394"/>
      <point x="260" y="405"/>
      <point x="303" y="405" type="curve"/>
      <point x="429" y="405"/>
      <point x="520" y="345"/>
      <point x="520" y="229" type="curve"/>
      <point x="520" y="112"/>
      <point x="414" y="48"/>
      <point x="285" y="48" type="curve"/>
      <point x="211" y="48"/>
      <point x="151" y="62"/>
      <point x="80" y="90" type="curve"/>
      <point x="52" y="44"/>
      <point x="80" y="90"/>
      <point x="52" y="44" type="curve"/>
      <point x="127" y="12"/>
      <point x="198" y="-5"/>
      <point x="283" y="-5" type="curve"/>
      <point x="448" y="-5"/>
      <point x="582" y="77"/>
      <point x="582" y="229" type="curve"/>
      <point x="582" y="376"/>
      <point x="464" y="457"/>
      <point x="306" y="457" type="curve"/>
      <point x="240" y="457"/>
      <point x="156" y="438"/>
      <point x="108" y="400" type="curve"/>
      <point x="167" y="379"/>
      <point x="108" y="400"/>
    </contour>
    <contour>
      <point x="554" y="722" type="curve"/>
      <point x="398" y="722"/>
      <point x="257" y="722"/>
      <point x="107" y="722" type="curve"/>
      <point x="167" y="673"/>
      <point x="107" y="722"/>
      <point x="167" y="673" type="curve"/>
      <point x="297" y="673"/>
      <point x="418" y="673"/>
      <point x="554" y="673" type="curve"/>
      <point x="554" y="722"/>
      <point x="554" y="673"/>
    </contour>
  </outline>
</glyph>
<glyph name="six" format="1">
  <advance width="707"/>
  <unicode hex="0036"/>
  <outline>
    <contour>
      <point x="113" y="228" type="curve"/>
      <point x="168" y="329"/>
      <point x="257" y="370"/>
      <point x="369" y="370" type="curve"/>
      <point x="492" y="370"/>
      <point x="581" y="323"/>
      <point x="581" y="209" type="curve"/>
      <point x="581" y="99"/>
      <point x="492" y="50"/>
      <point x="373" y="50" type="curve"/>
      <point x="226" y="50"/>
      <point x="122" y="113"/>
      <point x="122" y="247" type="curve"/>
      <point x="122" y="524"/>
      <point x="359" y="619"/>
      <point x="644" y="686" type="curve"/>
      <point x="631" y="734"/>
      <point x="644" y="686"/>
      <point x="631" y="734" type="curve"/>
      <point x="322" y="667"/>
      <point x="61" y="552"/>
      <point x="61" y="245" type="curve"/>
      <point x="61" y="76"/>
      <point x="190" y="-7"/>
      <point x="370" y="-7" type="curve"/>
      <point x="530" y="-7"/>
      <point x="645" y="62"/>
      <point x="645" y="210" type="curve"/>
      <point x="645" y="357"/>
      <point x="530" y="422"/>
      <point x="374" y="422" type="curve"/>
      <point x="235" y="422"/>
      <point x="131" y="360"/>
      <point x="71" y="251" type="curve"/>
      <point x="113" y="228"/>
      <point x="71" y="251"/>
    </contour>
  </outline>
</glyph>
<glyph name="seven" format="1">
  <advance width="656"/>
  <unicode hex="0037"/>
  <outline>
    <contour>
      <point x="34" y="673" type="curve"/>
      <point x="641" y="673" type="curve"/>
      <point x="641" y="722" type="curve"/>
      <point x="34" y="722" type="curve"/>
    </contour>
    <contour>
      <point x="604" y="722" type="curve"/>
      <point x="79" y="0" type="curve"/>
      <point x="153" y="0" type="curve"/>
      <point x="641" y="673" type="curve"/>
    </contour>
  </outline>
</glyph>
<glyph name="eight" format="1">
  <advance width="682"/>
  <unicode hex="0038"/>
  <outline>
    <contour>
      <point x="89" y="554" type="curve"/>
      <point x="89" y="428"/>
      <point x="199" y="407"/>
      <point x="323" y="360" type="curve"/>
      <point x="445" y="314"/>
      <point x="554" y="294"/>
      <point x="554" y="177" type="curve"/>
      <point x="554" y="72"/>
      <point x="461" y="45"/>
      <point x="339" y="45" type="curve"/>
      <point x="218" y="45"/>
      <point x="127" y="73"/>
      <point x="127" y="177" type="curve"/>
      <point x="127" y="297"/>
      <point x="240" y="314"/>
      <point x="363" y="361" type="curve"/>
      <point x="483" y="409"/>
      <point x="592" y="428"/>
      <point x="592" y="553" type="curve"/>
      <point x="592" y="685"/>
      <point x="488" y="727"/>
      <point x="339" y="727" type="curve"/>
      <point x="195" y="727"/>
      <point x="89" y="682"/>
      <point x="89" y="554" type="curve"/>
      <point x="152" y="554"/>
      <point x="89" y="554"/>
      <point x="152" y="554" type="curve"/>
      <point x="152" y="646"/>
      <point x="231" y="676"/>
      <point x="336" y="676" type="curve"/>
      <point x="449" y="676"/>
      <point x="530" y="650"/>
      <point x="530" y="553" type="curve"/>
      <point x="530" y="449"/>
      <point x="430" y="435"/>
      <point x="322" y="396" type="curve"/>
      <point x="185" y="343"/>
      <point x="65" y="318"/>
      <point x="65" y="177" type="curve"/>
      <point x="65" y="39"/>
      <point x="180" y="-5"/>
      <point x="336" y="-5" type="curve"/>
      <point x="496" y="-5"/>
      <point x="617" y="35"/>
      <point x="617" y="177" type="curve"/>
      <point x="617" y="316"/>
      <point x="497" y="343"/>
      <point x="363" y="395" type="curve"/>
      <point x="254" y="438"/>
      <point x="152" y="449"/>
      <point x="152" y="554" type="curve"/>
      <point x="89" y="554"/>
      <point x="152" y="554"/>
    </contour>
  </outline>
</glyph>
<glyph name="nine" format="1">
  <advance width="707"/>
  <unicode hex="0039"/>
  <outline>
    <contour>
      <point x="596" y="493" type="curve"/>
      <point x="539" y="392"/>
      <point x="461" y="351"/>
      <point x="344" y="351" type="curve"/>
      <point x="218" y="351"/>
      <point x="126" y="399"/>
      <point x="126" y="515" type="curve"/>
      <point x="126" y="624"/>
      <point x="216" y="672"/>
      <point x="335" y="672" type="curve"/>
      <point x="481" y="672"/>
      <point x="586" y="610"/>
      <point x="586" y="475" type="curve"/>
      <point x="586" y="199"/>
      <point x="356" y="88"/>
      <point x="64" y="39" type="curve"/>
      <point x="78" y="-12"/>
      <point x="64" y="39"/>
      <point x="77" y="-12" type="curve"/>
      <point x="397" y="34"/>
      <point x="645" y="170"/>
      <point x="645" y="477" type="curve"/>
      <point x="645" y="646"/>
      <point x="519" y="729"/>
      <point x="338" y="729" type="curve"/>
      <point x="178" y="729"/>
      <point x="64" y="660"/>
      <point x="64" y="512" type="curve"/>
      <point x="64" y="365"/>
      <point x="179" y="300"/>
      <point x="338" y="300" type="curve"/>
      <point x="477" y="300"/>
      <point x="575" y="356"/>
      <point x="627" y="477" type="curve"/>
      <point x="596" y="493"/>
      <point x="627" y="477"/>
    </contour>
  </outline>
</glyph>
<glyph name="colon" format="1">
  <advance width="230"/>
  <unicode hex="003A"/>
  <outline>
    <contour>
      <point x="152" y="413" type="curve"/>
      <point x="152" y="436"/>
      <point x="135" y="448"/>
      <point x="111" y="448" type="curve"/>
      <point x="88" y="448"/>
      <point x="72" y="435"/>
      <point x="72" y="413" type="curve"/>
      <point x="136" y="413"/>
      <point x="88" y="413"/>
      <point x="152" y="413" type="curve"/>
      <point x="152" y="391"/>
      <point x="135" y="379"/>
      <point x="111" y="379" type="curve"/>
      <point x="88" y="379"/>
      <point x="72" y="391"/>
      <point x="72" y="413" type="curve"/>
      <point x="136" y="413"/>
      <point x="88" y="413"/>
    </contour>
    <contour>
      <point x="151" y="27" type="curve"/>
      <point x="151" y="50"/>
      <point x="134" y="61"/>
      <point x="111" y="61" type="curve"/>
      <point x="88" y="61"/>
      <point x="72" y="49"/>
      <point x="72" y="27" type="curve"/>
      <point x="136" y="27"/>
      <point x="88" y="27"/>
      <point x="151" y="27" type="curve"/>
      <point x="151" y="4"/>
      <point x="135" y="-7"/>
      <point x="110" y="-7" type="curve"/>
      <point x="87" y="-7"/>
      <point x="72" y="5"/>
      <point x="72" y="27" type="curve"/>
      <point x="136" y="27"/>
      <point x="88" y="27"/>
    </contour>
  </outline>
</glyph>
<glyph name="semicolon" format="1">
  <advance width="211"/>
  <unicode hex="003B"/>
  <outline>
    <contour>
      <point x="46" y="-103" type="line"/>
      <point x="103" y="-85"/>
      <point x="147" y="-39"/>
      <point x="147" y="31" type="curve"/>
      <point x="147" y="69"/>
      <point x="132" y="100"/>
      <point x="99" y="100" type="curve"/>
      <point x="75" y="100"/>
      <point x="59" y="88"/>
      <point x="59" y="65" type="curve"/>
      <point x="59" y="44"/>
      <point x="73" y="32"/>
      <point x="97" y="29" type="curve"/>
      <point x="97" y="-3"/>
      <point x="82" y="-44"/>
      <point x="35" y="-66" type="curve"/>
    </contour>
    <contour>
      <point x="140" y="413" type="curve"/>
      <point x="140" y="436"/>
      <point x="123" y="447"/>
      <point x="99" y="447" type="curve"/>
      <point x="76" y="447"/>
      <point x="60" y="435"/>
      <point x="60" y="413" type="curve"/>
      <point x="124" y="413"/>
      <point x="76" y="413"/>
      <point x="140" y="413" type="curve"/>
      <point x="140" y="390"/>
      <point x="123" y="379"/>
      <point x="99" y="379" type="curve"/>
      <point x="75" y="379"/>
      <point x="60" y="391"/>
      <point x="60" y="413" type="curve"/>
      <point x="124" y="413"/>
      <point x="76" y="413"/>
    </contour>
  </outline>
</glyph>
<glyph name="less" format="1">
  <advance width="879"/>
  <unicode hex="003C"/>
  <outline>
    <contour>
      <point x="812" y="597" type="curve"/>
      <point x="554" y="507"/>
      <point x="295" y="417"/>
      <point x="37" y="327" type="curve"/>
      <point x="37" y="273"/>
      <point x="37" y="327"/>
      <point x="37" y="273" type="curve"/>
      <point x="295" y="363"/>
      <point x="554" y="453"/>
      <point x="812" y="543" type="curve"/>
      <point x="812" y="597"/>
      <point x="812" y="543"/>
    </contour>
    <contour>
      <point x="825" y="63" type="curve"/>
      <point x="562" y="151"/>
      <point x="300" y="239"/>
      <point x="37" y="327" type="curve"/>
      <point x="37" y="273"/>
      <point x="37" y="327"/>
      <point x="37" y="273" type="curve"/>
      <point x="300" y="185"/>
      <point x="562" y="97"/>
      <point x="825" y="9" type="curve"/>
      <point x="825" y="63"/>
      <point x="825" y="9"/>
    </contour>
  </outline>
</glyph>
<glyph name="equal" format="1">
  <advance width="908"/>
  <unicode hex="003D"/>
  <outline>
    <contour>
      <point x="63" y="192" type="curve"/>
      <point x="330" y="192"/>
      <point x="597" y="192"/>
      <point x="864" y="192" type="curve"/>
      <point x="864" y="243"/>
      <point x="864" y="192"/>
      <point x="864" y="243" type="curve"/>
      <point x="597" y="243"/>
      <point x="330" y="243"/>
      <point x="63" y="243" type="curve"/>
      <point x="63" y="192"/>
      <point x="63" y="243"/>
    </contour>
    <contour>
      <point x="63" y="414" type="curve"/>
      <point x="330" y="414"/>
      <point x="597" y="414"/>
      <point x="864" y="414" type="curve"/>
      <point x="864" y="465"/>
      <point x="864" y="414"/>
      <point x="864" y="465" type="curve"/>
      <point x="597" y="465"/>
      <point x="330" y="465"/>
      <point x="63" y="465" type="curve"/>
      <point x="63" y="414"/>
      <point x="63" y="465"/>
    </contour>
  </outline>
</glyph>
<glyph name="greater" format="1">
  <advance width="879"/>
  <unicode hex="003E"/>
  <outline>
    <contour>
      <point x="66" y="9" type="curve"/>
      <point x="324" y="99"/>
      <point x="583" y="189"/>
      <point x="842" y="279" type="curve"/>
      <point x="842" y="333"/>
      <point x="842" y="279"/>
      <point x="842" y="333" type="curve"/>
      <point x="583" y="243"/>
      <point x="324" y="153"/>
      <point x="66" y="63" type="curve"/>
      <point x="66" y="9"/>
      <point x="66" y="63"/>
    </contour>
    <contour>
      <point x="53" y="543" type="curve"/>
      <point x="316" y="455"/>
      <point x="579" y="367"/>
      <point x="842" y="279" type="curve"/>
      <point x="842" y="333"/>
      <point x="842" y="279"/>
      <point x="842" y="333" type="curve"/>
      <point x="579" y="421"/>
      <point x="316" y="509"/>
      <point x="53" y="597" type="curve"/>
      <point x="53" y="543"/>
      <point x="53" y="597"/>
    </contour>
  </outline>
</glyph>
<glyph name="question" format="1">
  <advance width="576"/>
  <unicode hex="003F"/>
  <outline>
    <contour>
      <point x="214" y="348" type="curve"/>
      <point x="214" y="311"/>
      <point x="214" y="259"/>
      <point x="214" y="222" type="curve"/>
      <point x="277" y="222"/>
      <point x="214" y="222"/>
      <point x="277" y="222" type="curve"/>
      <point x="277" y="259"/>
      <point x="277" y="311"/>
      <point x="277" y="348" type="curve"/>
      <point x="214" y="348"/>
      <point x="277" y="348"/>
    </contour>
    <contour>
      <point x="86" y="610" type="line"/>
      <point x="127" y="644"/>
      <point x="189" y="673"/>
      <point x="259" y="673" type="curve"/>
      <point x="373" y="673"/>
      <point x="462" y="626"/>
      <point x="462" y="519" type="curve"/>
      <point x="462" y="401"/>
      <point x="356" y="348"/>
      <point x="220" y="348" type="curve"/>
      <point x="220" y="329"/>
      <point x="220" y="318"/>
      <point x="220" y="299" type="curve"/>
      <point x="390" y="299"/>
      <point x="522" y="370"/>
      <point x="522" y="519" type="curve"/>
      <point x="522" y="657"/>
      <point x="409" y="723"/>
      <point x="263" y="723" type="curve"/>
      <point x="178" y="723"/>
      <point x="108" y="694"/>
      <point x="52" y="648" type="curve"/>
    </contour>
    <contour>
      <point x="283" y="14" type="curve"/>
      <point x="283" y="35"/>
      <point x="268" y="46"/>
      <point x="246" y="46" type="curve"/>
      <point x="224" y="46"/>
      <point x="210" y="34"/>
      <point x="210" y="14" type="curve"/>
      <point x="283" y="14"/>
      <point x="210" y="14"/>
      <point x="283" y="14" type="curve"/>
      <point x="283" y="-7"/>
      <point x="268" y="-16"/>
      <point x="246" y="-16" type="curve"/>
      <point x="224" y="-16"/>
      <point x="210" y="-6"/>
      <point x="210" y="14" type="curve"/>
      <point x="283" y="14"/>
      <point x="210" y="14"/>
    </contour>
  </outline>
</glyph>
<glyph name="at" format="1">
  <advance width="1015"/>
  <unicode hex="0040"/>
  <outline>
    <contour>
      <point x="720" y="-54" type="curve"/>
      <point x="649" y="-83"/>
      <point x="598" y="-89"/>
      <point x="523" y="-89" type="curve"/>
      <point x="286" y="-89"/>
      <point x="118" y="0"/>
      <point x="118" y="216" type="curve"/>
      <point x="118" y="428"/>
      <point x="287" y="514"/>
      <point x="519" y="514" type="curve"/>
      <point x="738" y="514"/>
      <point x="891" y="422"/>
      <point x="891" y="220" type="curve"/>
      <point x="891" y="145"/>
      <point x="868" y="88"/>
      <point x="802" y="88" type="curve"/>
      <point x="733" y="88"/>
      <point x="704" y="144"/>
      <point x="704" y="221" type="curve"/>
      <point x="704" y="337"/>
      <point x="624" y="400"/>
      <point x="503" y="400" type="curve"/>
      <point x="372" y="400"/>
      <point x="285" y="342"/>
      <point x="285" y="220" type="curve"/>
      <point x="285" y="96"/>
      <point x="367" y="30"/>
      <point x="495" y="30" type="curve"/>
      <point x="607" y="30"/>
      <point x="671" y="95"/>
      <point x="694" y="207" type="curve"/>
      <point x="655" y="217"/>
      <point x="694" y="207"/>
      <point x="655" y="217" type="curve"/>
      <point x="629" y="132"/>
      <point x="588" y="79"/>
      <point x="504" y="79" type="curve"/>
      <point x="406" y="79"/>
      <point x="344" y="129"/>
      <point x="344" y="222" type="curve"/>
      <point x="344" y="310"/>
      <point x="406" y="351"/>
      <point x="497" y="351" type="curve"/>
      <point x="588" y="351"/>
      <point x="647" y="306"/>
      <point x="647" y="218" type="curve"/>
      <point x="647" y="114"/>
      <point x="696" y="42"/>
      <point x="797" y="42" type="curve"/>
      <point x="900" y="42"/>
      <point x="950" y="114"/>
      <point x="950" y="222" type="curve"/>
      <point x="950" y="457"/>
      <point x="774" y="565"/>
      <point x="522" y="565" type="curve"/>
      <point x="252" y="565"/>
      <point x="59" y="462"/>
      <point x="59" y="213" type="curve"/>
      <point x="59" y="-33"/>
      <point x="250" y="-137"/>
      <point x="519" y="-137" type="curve"/>
      <point x="607" y="-137"/>
      <point x="669" y="-126"/>
      <point x="743" y="-96" type="curve"/>
      <point x="720" y="-54"/>
      <point x="743" y="-96"/>
    </contour>
  </outline>
</glyph>
<glyph name="B" format="1">
  <advance width="741"/>
  <unicode hex="0042"/>
  <outline>
    <contour>
      <point x="132" y="673" type="curve"/>
      <point x="222" y="673"/>
      <point x="312" y="673"/>
      <point x="403" y="673" type="curve"/>
      <point x="494" y="673"/>
      <point x="563" y="635"/>
      <point x="563" y="548" type="curve"/>
      <point x="563" y="456"/>
      <point x="462" y="433"/>
      <point x="361" y="433" type="curve"/>
      <point x="284" y="433"/>
      <point x="208" y="433"/>
      <point x="132" y="433" type="curve"/>
      <point x="132" y="387"/>
      <point x="132" y="430"/>
      <point x="132" y="384" type="curve"/>
      <point x="198" y="384"/>
      <point x="264" y="384"/>
      <point x="331" y="384" type="curve"/>
      <point x="466" y="384"/>
      <point x="625" y="415"/>
      <point x="625" y="547" type="curve"/>
      <point x="625" y="667"/>
      <point x="532" y="722"/>
      <point x="403" y="722" type="curve"/>
      <point x="312" y="722"/>
      <point x="223" y="722"/>
      <point x="132" y="722" type="curve"/>
      <point x="132" y="676"/>
      <point x="132" y="719"/>
    </contour>
    <contour>
      <point x="175" y="0" type="curve"/>
      <point x="175" y="241"/>
      <point x="175" y="481"/>
      <point x="175" y="722" type="curve"/>
      <point x="110" y="722"/>
      <point x="175" y="722"/>
      <point x="110" y="722" type="curve"/>
      <point x="110" y="481"/>
      <point x="110" y="241"/>
      <point x="110" y="0" type="curve"/>
      <point x="175" y="0"/>
      <point x="110" y="0"/>
    </contour>
    <contour>
      <point x="132" y="384" type="curve"/>
      <point x="208" y="384"/>
      <point x="284" y="384"/>
      <point x="361" y="384" type="curve"/>
      <point x="503" y="384"/>
      <point x="622" y="342"/>
      <point x="622" y="210" type="curve"/>
      <point x="622" y="94"/>
      <point x="530" y="49"/>
      <point x="401" y="49" type="curve"/>
      <point x="310" y="49"/>
      <point x="222" y="49"/>
      <point x="132" y="49" type="curve"/>
      <point x="132" y="3"/>
      <point x="132" y="46"/>
      <point x="132" y="0" type="curve"/>
      <point x="222" y="0"/>
      <point x="310" y="0"/>
      <point x="402" y="0" type="curve"/>
      <point x="567" y="0"/>
      <point x="685" y="61"/>
      <point x="685" y="210" type="curve"/>
      <point x="685" y="384"/>
      <point x="507" y="433"/>
      <point x="331" y="433" type="curve"/>
      <point x="264" y="433"/>
      <point x="198" y="433"/>
      <point x="132" y="433" type="curve"/>
      <point x="132" y="387"/>
      <point x="132" y="430"/>
    </contour>
  </outline>
</glyph>
<glyph name="C" format="1">
  <advance width="829"/>
  <unicode hex="0043"/>
  <outline>
    <contour>
      <point x="784" y="655" type="curve"/>
      <point x="693" y="697"/>
      <point x="597" y="727"/>
      <point x="489" y="727" type="curve"/>
      <point x="231" y="727"/>
      <point x="62" y="594"/>
      <point x="62" y="344" type="curve"/>
      <point x="62" y="113"/>
      <point x="220" y="-5"/>
      <point x="461" y="-5" type="curve"/>
      <point x="601" y="-5"/>
      <point x="691" y="25"/>
      <point x="801" y="94" type="curve"/>
      <point x="773" y="135"/>
      <point x="801" y="94"/>
      <point x="773" y="135" type="curve"/>
      <point x="669" y="70"/>
      <point x="585" y="47"/>
      <point x="463" y="47" type="curve"/>
      <point x="259" y="47"/>
      <point x="124" y="150"/>
      <point x="124" y="346" type="curve"/>
      <point x="124" y="559"/>
      <point x="267" y="676"/>
      <point x="486" y="676" type="curve"/>
      <point x="582" y="676"/>
      <point x="670" y="655"/>
      <point x="757" y="614" type="curve"/>
      <point x="784" y="655"/>
      <point x="757" y="614"/>
    </contour>
    <contour>
      <point x="481" y="812" type="move" name="top"/>
    </contour>
    <contour>
      <point x="467" y="8" type="move" name="bottom"/>
    </contour>
  </outline>
</glyph>
<glyph name="D" format="1">
  <advance width="879"/>
  <unicode hex="0044"/>
  <outline>
    <contour>
      <point x="110" y="722" type="curve"/>
      <point x="110" y="481"/>
      <point x="110" y="241"/>
      <point x="110" y="0" type="curve"/>
      <point x="173" y="0"/>
      <point x="110" y="0"/>
      <point x="173" y="0" type="curve"/>
      <point x="173" y="241"/>
      <point x="173" y="481"/>
      <point x="173" y="722" type="curve"/>
      <point x="110" y="722"/>
      <point x="173" y="722"/>
    </contour>
    <contour>
      <point x="144" y="0" type="curve"/>
      <point x="228" y="0"/>
      <point x="311" y="0"/>
      <point x="395" y="0" type="curve"/>
      <point x="655" y="0"/>
      <point x="815" y="107"/>
      <point x="815" y="352" type="curve"/>
      <point x="815" y="608"/>
      <point x="651" y="722"/>
      <point x="381" y="722" type="curve"/>
      <point x="301" y="722"/>
      <point x="223" y="722"/>
      <point x="144" y="722" type="curve"/>
      <point x="144" y="674"/>
      <point x="144" y="721"/>
      <point x="144" y="673" type="curve"/>
      <point x="222" y="673"/>
      <point x="300" y="673"/>
      <point x="378" y="673" type="curve"/>
      <point x="612" y="673"/>
      <point x="754" y="573"/>
      <point x="754" y="350" type="curve"/>
      <point x="754" y="142"/>
      <point x="621" y="49"/>
      <point x="401" y="49" type="curve"/>
      <point x="315" y="49"/>
      <point x="230" y="49"/>
      <point x="144" y="49" type="curve"/>
      <point x="144" y="1"/>
      <point x="144" y="48"/>
    </contour>
    <contour>
      <point x="364" y="812" type="move" name="top"/>
    </contour>
  </outline>
</glyph>
<glyph name="E" format="1">
  <advance width="714"/>
  <unicode hex="0045"/>
  <outline>
    <contour>
      <point x="149" y="349" type="curve"/>
      <point x="288" y="349"/>
      <point x="427" y="349"/>
      <point x="567" y="349" type="curve"/>
      <point x="567" y="398"/>
      <point x="567" y="349"/>
      <point x="567" y="398" type="curve"/>
      <point x="427" y="398"/>
      <point x="288" y="398"/>
      <point x="149" y="398" type="curve"/>
      <point x="149" y="349"/>
      <point x="149" y="398"/>
    </contour>
    <contour>
      <point x="129" y="673" type="curve"/>
      <point x="302" y="673"/>
      <point x="475" y="673"/>
      <point x="647" y="673" type="curve"/>
      <point x="647" y="722"/>
      <point x="647" y="673"/>
      <point x="647" y="722" type="curve"/>
      <point x="475" y="722"/>
      <point x="302" y="722"/>
      <point x="129" y="722" type="curve"/>
      <point x="129" y="673"/>
      <point x="129" y="722"/>
    </contour>
    <contour>
      <point x="172" y="0" type="curve"/>
      <point x="172" y="722" type="line"/>
      <point x="110" y="722"/>
      <point x="172" y="722"/>
      <point x="110" y="722" type="curve"/>
      <point x="110" y="481"/>
      <point x="110" y="241"/>
      <point x="110" y="0" type="curve"/>
      <point x="172" y="0"/>
      <point x="110" y="0"/>
    </contour>
    <contour>
      <point x="129" y="0" type="curve"/>
      <point x="316" y="0"/>
      <point x="503" y="0"/>
      <point x="690" y="0" type="curve"/>
      <point x="690" y="49"/>
      <point x="690" y="0"/>
      <point x="690" y="49" type="curve"/>
      <point x="503" y="49"/>
      <point x="316" y="49"/>
      <point x="129" y="49" type="curve"/>
      <point x="129" y="0"/>
      <point x="129" y="49"/>
    </contour>
    <contour>
      <point x="350" y="812" type="move" name="top"/>
    </contour>
    <contour>
      <point x="660" y="8" type="move" name="bottom"/>
    </contour>
  </outline>
</glyph>
<glyph name="F" format="1">
  <advance width="673"/>
  <unicode hex="0046"/>
  <outline>
    <contour>
      <point x="148" y="349" type="curve"/>
      <point x="285" y="349"/>
      <point x="421" y="349"/>
      <point x="558" y="349" type="curve"/>
      <point x="558" y="398"/>
      <point x="558" y="349"/>
      <point x="558" y="398" type="curve"/>
      <point x="421" y="398"/>
      <point x="285" y="398"/>
      <point x="148" y="398" type="curve"/>
      <point x="148" y="349"/>
      <point x="148" y="398"/>
    </contour>
    <contour>
      <point x="174" y="0" type="curve"/>
      <point x="174" y="722" type="line"/>
      <point x="112" y="722"/>
      <point x="174" y="722"/>
      <point x="112" y="722" type="curve"/>
      <point x="112" y="481"/>
      <point x="112" y="241"/>
      <point x="112" y="0" type="curve"/>
      <point x="174" y="0"/>
      <point x="112" y="0"/>
    </contour>
    <contour>
      <point x="129" y="673" type="curve"/>
      <point x="303" y="673"/>
      <point x="477" y="673"/>
      <point x="651" y="673" type="curve"/>
      <point x="651" y="722"/>
      <point x="651" y="673"/>
      <point x="651" y="722" type="curve"/>
      <point x="477" y="722"/>
      <point x="303" y="722"/>
      <point x="129" y="722" type="curve"/>
      <point x="129" y="673"/>
      <point x="129" y="722"/>
    </contour>
  </outline>
</glyph>
<glyph name="G" format="1">
  <advance width="944"/>
  <unicode hex="0047"/>
  <outline>
    <contour>
      <point x="860" y="334" type="curve"/>
      <point x="766" y="334"/>
      <point x="673" y="334"/>
      <point x="579" y="334" type="curve"/>
      <point x="579" y="286"/>
      <point x="579" y="334"/>
      <point x="579" y="286" type="curve"/>
      <point x="673" y="286"/>
      <point x="766" y="286"/>
      <point x="860" y="286" type="curve"/>
      <point x="860" y="334"/>
      <point x="860" y="286"/>
    </contour>
    <contour>
      <point x="878" y="78" type="curve"/>
      <point x="878" y="163"/>
      <point x="878" y="248"/>
      <point x="878" y="334" type="curve"/>
      <point x="822" y="334"/>
      <point x="878" y="334"/>
      <point x="822" y="334" type="curve"/>
      <point x="822" y="248"/>
      <point x="822" y="163"/>
      <point x="822" y="78" type="curve"/>
      <point x="878" y="78"/>
      <point x="822" y="78"/>
    </contour>
    <contour>
      <point x="856" y="643" type="curve"/>
      <point x="736" y="703"/>
      <point x="631" y="727"/>
      <point x="496" y="727" type="curve"/>
      <point x="237" y="727"/>
      <point x="61" y="610"/>
      <point x="61" y="363" type="curve"/>
      <point x="61" y="111"/>
      <point x="244" y="-5"/>
      <point x="511" y="-5" type="curve"/>
      <point x="654" y="-5"/>
      <point x="747" y="21"/>
      <point x="878" y="78" type="curve"/>
      <point x="847" y="114"/>
      <point x="878" y="78"/>
      <point x="847" y="114" type="curve"/>
      <point x="730" y="63"/>
      <point x="640" y="47"/>
      <point x="511" y="47" type="curve"/>
      <point x="280" y="47"/>
      <point x="124" y="150"/>
      <point x="124" y="368" type="curve"/>
      <point x="124" y="576"/>
      <point x="276" y="676"/>
      <point x="497" y="676" type="curve"/>
      <point x="619" y="676"/>
      <point x="715" y="655"/>
      <point x="830" y="601" type="curve"/>
      <point x="856" y="643"/>
      <point x="830" y="601"/>
    </contour>
    <contour>
      <point x="498" y="812" type="move" name="top"/>
    </contour>
    <contour>
      <point x="532" y="2" type="move" name="bottom"/>
    </contour>
  </outline>
</glyph>
<glyph name="H" format="1">
  <advance width="925"/>
  <unicode hex="0048"/>
  <outline>
    <contour>
      <point x="172" y="0" type="curve"/>
      <point x="172" y="722" type="line"/>
      <point x="110" y="722"/>
      <point x="172" y="722"/>
      <point x="110" y="722" type="curve"/>
      <point x="110" y="481"/>
      <point x="110" y="241"/>
      <point x="110" y="0" type="curve"/>
      <point x="172" y="0"/>
      <point x="110" y="0"/>
    </contour>
    <contour>
      <point x="781" y="387" type="curve"/>
      <point x="568" y="387"/>
      <point x="354" y="387"/>
      <point x="141" y="387" type="curve"/>
      <point x="141" y="339"/>
      <point x="141" y="387"/>
      <point x="141" y="339" type="curve"/>
      <point x="354" y="339"/>
      <point x="568" y="339"/>
      <point x="781" y="339" type="curve"/>
      <point x="781" y="387"/>
      <point x="781" y="339"/>
    </contour>
    <contour>
      <point x="815" y="1" type="curve"/>
      <point x="815" y="231"/>
      <point x="815" y="491"/>
      <point x="815" y="721" type="curve"/>
      <point x="753" y="721"/>
      <point x="815" y="721"/>
      <point x="753" y="721" type="curve"/>
      <point x="753" y="1" type="line"/>
      <point x="815" y="1"/>
      <point x="753" y="1"/>
    </contour>
  </outline>
</glyph>
<glyph name="I" format="1">
  <advance width="282"/>
  <unicode hex="0049"/>
  <outline>
    <contour>
      <point x="172" y="0" type="curve"/>
      <point x="172" y="241"/>
      <point x="172" y="481"/>
      <point x="172" y="722" type="curve"/>
      <point x="110" y="722"/>
      <point x="172" y="722"/>
      <point x="110" y="722" type="curve"/>
      <point x="110" y="481"/>
      <point x="110" y="241"/>
      <point x="110" y="0" type="curve"/>
      <point x="172" y="0"/>
      <point x="110" y="0"/>
    </contour>
    <contour>
      <point x="142" y="812" type="move" name="top"/>
    </contour>
    <contour>
      <point x="172" y="0" type="move" name="bottom"/>
    </contour>
  </outline>
</glyph>
<glyph name="J" format="1">
  <advance width="522"/>
  <unicode hex="004A"/>
  <outline>
    <contour>
      <point x="11" y="43" type="curve"/>
      <point x="49" y="22"/>
      <point x="103" y="-2"/>
      <point x="168" y="-2" type="curve"/>
      <point x="323" y="-2"/>
      <point x="420" y="75"/>
      <point x="420" y="227" type="curve"/>
      <point x="420" y="392"/>
      <point x="420" y="555"/>
      <point x="420" y="722" type="curve"/>
      <point x="358" y="722"/>
      <point x="419" y="722"/>
      <point x="357" y="722" type="curve"/>
      <point x="357" y="555"/>
      <point x="357" y="392"/>
      <point x="357" y="227" type="curve"/>
      <point x="357" y="111"/>
      <point x="286" y="47"/>
      <point x="168" y="47" type="curve"/>
      <point x="117" y="47"/>
      <point x="82" y="62"/>
      <point x="39" y="82" type="curve"/>
      <point x="11" y="44"/>
      <point x="39" y="81"/>
    </contour>
  </outline>
</glyph>
<glyph name="K" format="1">
  <advance width="684"/>
  <unicode hex="004B"/>
  <outline>
    <contour>
      <point x="558" y="722" type="curve"/>
      <point x="148" y="380" type="line"/>
      <point x="232" y="380"/>
      <point x="149" y="380"/>
      <point x="233" y="380" type="curve"/>
      <point x="646" y="722" type="line"/>
      <point x="555" y="722"/>
      <point x="649" y="722"/>
    </contour>
    <contour>
      <point x="173" y="0" type="curve"/>
      <point x="173" y="722" type="line"/>
      <point x="110" y="722"/>
      <point x="173" y="722"/>
      <point x="110" y="722" type="curve"/>
      <point x="110" y="481"/>
      <point x="110" y="241"/>
      <point x="110" y="0" type="curve"/>
      <point x="173" y="0"/>
      <point x="110" y="0"/>
    </contour>
    <contour>
      <point x="679" y="0" type="curve"/>
      <point x="233" y="380" type="line"/>
      <point x="149" y="380"/>
      <point x="232" y="380"/>
      <point x="148" y="380" type="curve"/>
      <point x="587" y="0" type="line"/>
      <point x="682" y="0"/>
      <point x="583" y="0"/>
    </contour>
    <contour>
      <point x="434" y="-3" type="move" name="bottom"/>
    </contour>
  </outline>
</glyph>
<glyph name="L" format="1">
  <advance width="688"/>
  <unicode hex="004C"/>
  <outline>
    <contour>
      <point x="173" y="0" type="curve"/>
      <point x="173" y="241"/>
      <point x="173" y="481"/>
      <point x="173" y="722" type="curve"/>
      <point x="110" y="722"/>
      <point x="173" y="722"/>
      <point x="110" y="722" type="curve"/>
      <point x="110" y="481"/>
      <point x="110" y="241"/>
      <point x="110" y="0" type="curve"/>
      <point x="173" y="0"/>
      <point x="110" y="0"/>
    </contour>
    <contour>
      <point x="140" y="0" type="curve"/>
      <point x="319" y="0"/>
      <point x="498" y="0"/>
      <point x="677" y="0" type="curve"/>
      <point x="677" y="49"/>
      <point x="677" y="0"/>
      <point x="677" y="49" type="curve"/>
      <point x="498" y="49"/>
      <point x="319" y="49"/>
      <point x="140" y="49" type="curve"/>
      <point x="140" y="0"/>
      <point x="140" y="49"/>
    </contour>
    <contour>
      <point x="142" y="812" type="move" name="top"/>
    </contour>
    <contour>
      <point x="370" y="0" type="move" name="bottom"/>
    </contour>
  </outline>
</glyph>
<glyph name="M" format="1">
  <advance width="1093"/>
  <unicode hex="004D"/>
  <outline>
    <contour>
      <point x="1018" y="0" type="curve"/>
      <point x="991" y="241"/>
      <point x="963" y="481"/>
      <point x="937" y="722" type="curve"/>
      <point x="881" y="722"/>
      <point x="937" y="722"/>
      <point x="881" y="722" type="curve"/>
      <point x="906" y="481"/>
      <point x="930" y="241"/>
      <point x="955" y="0" type="curve"/>
      <point x="1018" y="0"/>
      <point x="955" y="0"/>
    </contour>
    <contour>
      <point x="139" y="0" type="curve"/>
      <point x="164" y="241"/>
      <point x="187" y="481"/>
      <point x="212" y="722" type="curve"/>
      <point x="153" y="722"/>
      <point x="212" y="722"/>
      <point x="153" y="722" type="curve"/>
      <point x="128" y="481"/>
      <point x="103" y="241"/>
      <point x="78" y="0" type="curve"/>
      <point x="139" y="0"/>
      <point x="78" y="0"/>
    </contour>
    <contour>
      <point x="575" y="0" type="curve"/>
      <point x="456" y="241"/>
      <point x="337" y="481"/>
      <point x="216" y="722" type="curve"/>
      <point x="156" y="722"/>
      <point x="215" y="722"/>
      <point x="155" y="722" type="curve"/>
      <point x="274" y="481"/>
      <point x="393" y="241"/>
      <point x="512" y="0" type="curve"/>
      <point x="573" y="0"/>
      <point x="513" y="0"/>
    </contour>
    <contour>
      <point x="585" y="0" type="curve"/>
      <point x="702" y="241"/>
      <point x="819" y="481"/>
      <point x="936" y="722" type="curve"/>
      <point x="876" y="722"/>
      <point x="934" y="722"/>
      <point x="875" y="722" type="curve"/>
      <point x="756" y="481"/>
      <point x="639" y="241"/>
      <point x="521" y="0" type="curve"/>
      <point x="584" y="0"/>
      <point x="522" y="0"/>
    </contour>
  </outline>
</glyph>
<glyph name="P" format="1">
  <advance width="683"/>
  <unicode hex="0050"/>
  <outline>
    <contour>
      <point x="135" y="315" type="curve"/>
      <point x="203" y="289"/>
      <point x="273" y="270"/>
      <point x="347" y="270" type="curve"/>
      <point x="512" y="272"/>
      <point x="635" y="338"/>
      <point x="635" y="490" type="curve"/>
      <point x="635" y="652"/>
      <point x="491" y="722"/>
      <point x="312" y="722" type="curve"/>
      <point x="257" y="722"/>
      <point x="201" y="722"/>
      <point x="146" y="722" type="curve"/>
      <point x="146" y="673"/>
      <point x="146" y="722"/>
      <point x="146" y="673" type="curve"/>
      <point x="198" y="673"/>
      <point x="251" y="673"/>
      <point x="303" y="673" type="curve"/>
      <point x="452" y="673"/>
      <point x="572" y="622"/>
      <point x="572" y="491" type="curve"/>
      <point x="572" y="371"/>
      <point x="471" y="318"/>
      <point x="344" y="318" type="curve"/>
      <point x="272" y="318"/>
      <point x="221" y="333"/>
      <point x="155" y="359" type="curve"/>
      <point x="135" y="315"/>
      <point x="155" y="359"/>
    </contour>
    <contour>
      <point x="173" y="0" type="curve"/>
      <point x="173" y="241"/>
      <point x="173" y="481"/>
      <point x="173" y="722" type="curve"/>
      <point x="110" y="722"/>
      <point x="173" y="722"/>
      <point x="110" y="722" type="curve"/>
      <point x="110" y="481"/>
      <point x="110" y="241"/>
      <point x="110" y="0" type="curve"/>
      <point x="173" y="0"/>
      <point x="110" y="0"/>
    </contour>
  </outline>
</glyph>
<glyph name="Q" format="1">
  <advance width="1030"/>
  <unicode hex="0051"/>
  <outline>
    <contour>
      <point x="444" y="11" type="curve"/>
      <point x="587" y="-185"/>
      <point x="742" y="-231"/>
      <point x="973" y="-231" type="curve"/>
      <point x="973" y="-180"/>
      <point x="973" y="-231"/>
      <point x="973" y="-180" type="curve"/>
      <point x="767" y="-180"/>
      <point x="628" y="-141"/>
      <point x="498" y="35" type="curve"/>
      <point x="444" y="11"/>
      <point x="498" y="35"/>
    </contour>
    <contour>
      <point x="124" y="360" type="curve"/>
      <point x="124" y="557"/>
      <point x="259" y="674"/>
      <point x="460" y="674" type="curve"/>
      <point x="661" y="674"/>
      <point x="795" y="559"/>
      <point x="795" y="362" type="curve"/>
      <point x="795" y="165"/>
      <point x="663" y="47"/>
      <point x="464" y="47" type="curve"/>
      <point x="260" y="47"/>
      <point x="124" y="162"/>
      <point x="124" y="360" type="curve"/>
      <point x="62" y="360"/>
      <point x="124" y="360"/>
      <point x="62" y="360" type="curve"/>
      <point x="62" y="129"/>
      <point x="224" y="-5"/>
      <point x="461" y="-5" type="curve"/>
      <point x="698" y="-5"/>
      <point x="858" y="132"/>
      <point x="858" y="365" type="curve"/>
      <point x="858" y="595"/>
      <point x="699" y="728"/>
      <point x="463" y="728" type="curve"/>
      <point x="224" y="728"/>
      <point x="62" y="592"/>
      <point x="62" y="360" type="curve"/>
      <point x="124" y="360"/>
      <point x="62" y="360"/>
    </contour>
  </outline>
</glyph>
<glyph name="S" format="1">
  <advance width="668"/>
  <unicode hex="0053"/>
  <outline>
    <contour>
      <point x="44" y="56" type="curve"/>
      <point x="129" y="16"/>
      <point x="220" y="-5"/>
      <point x="319" y="-5" type="curve"/>
      <point x="485" y="-5"/>
      <point x="617" y="33"/>
      <point x="617" y="176" type="curve"/>
      <point x="617" y="311"/>
      <point x="492" y="345"/>
      <point x="360" y="393" type="curve"/>
      <point x="248" y="434"/>
      <point x="130" y="460"/>
      <point x="130" y="557" type="curve"/>
      <point x="130" y="646"/>
      <point x="220" y="680"/>
      <point x="326" y="680" type="curve"/>
      <point x="411" y="680"/>
      <point x="481" y="656"/>
      <point x="553" y="624" type="curve"/>
      <point x="579" y="662"/>
      <point x="554" y="625"/>
      <point x="580" y="662" type="curve"/>
      <point x="498" y="700"/>
      <point x="424" y="727"/>
      <point x="329" y="727" type="curve"/>
      <point x="186" y="727"/>
      <point x="68" y="677"/>
      <point x="68" y="554" type="curve"/>
      <point x="68" y="425"/>
      <point x="191" y="395"/>
      <point x="318" y="349" type="curve"/>
      <point x="435" y="307"/>
      <point x="554" y="277"/>
      <point x="554" y="175" type="curve"/>
      <point x="554" y="73"/>
      <point x="451" y="46"/>
      <point x="322" y="46" type="curve"/>
      <point x="234" y="46"/>
      <point x="149" y="68"/>
      <point x="73" y="102" type="curve"/>
      <point x="44" y="57"/>
      <point x="72" y="101"/>
    </contour>
    <contour>
      <point x="329" y="812" type="move" name="top"/>
    </contour>
    <contour>
      <point x="342" y="-2" type="move" name="bottom"/>
    </contour>
  </outline>
</glyph>
<glyph name="W" format="1">
  <advance width="1087"/>
  <unicode hex="0057"/>
  <outline>
    <contour>
      <point x="325" y="0" type="curve"/>
      <point x="409" y="241"/>
      <point x="494" y="481"/>
      <point x="579" y="722" type="curve"/>
      <point x="517" y="722"/>
      <point x="580" y="722"/>
      <point x="519" y="722" type="curve"/>
      <point x="436" y="481"/>
      <point x="352" y="241"/>
      <point x="269" y="0" type="curve"/>
      <point x="325" y="0"/>
      <point x="269" y="0"/>
    </contour>
    <contour>
      <point x="529" y="722" type="curve"/>
      <point x="606" y="481"/>
      <point x="681" y="241"/>
      <point x="757" y="0" type="curve"/>
      <point x="813" y="0"/>
      <point x="756" y="0"/>
      <point x="813" y="0" type="curve"/>
      <point x="739" y="241"/>
      <point x="664" y="481"/>
      <point x="588" y="722" type="curve"/>
      <point x="527" y="722"/>
      <point x="590" y="722"/>
    </contour>
    <contour>
      <point x="30" y="722" type="curve"/>
      <point x="106" y="481"/>
      <point x="184" y="241"/>
      <point x="261" y="0" type="curve"/>
      <point x="316" y="0"/>
      <point x="262" y="0"/>
      <point x="318" y="0" type="curve"/>
      <point x="243" y="240"/>
      <point x="168" y="482"/>
      <point x="93" y="722" type="curve"/>
      <point x="30" y="722"/>
      <point x="93" y="722"/>
    </contour>
    <contour>
      <point x="999" y="722" type="curve"/>
      <point x="920" y="481"/>
      <point x="843" y="241"/>
      <point x="766" y="0" type="curve"/>
      <point x="822" y="0"/>
      <point x="765" y="0"/>
      <point x="822" y="0" type="curve"/>
      <point x="902" y="241"/>
      <point x="982" y="481"/>
      <point x="1062" y="722" type="curve"/>
      <point x="999" y="722"/>
      <point x="1062" y="722"/>
    </contour>
  </outline>
</glyph>
<glyph name="X" format="1">
  <advance width="755"/>
  <unicode hex="0058"/>
  <outline>
    <contour>
      <point x="644" y="722" type="curve"/>
      <point x="436" y="485"/>
      <point x="213" y="237"/>
      <point x="5" y="0" type="curve"/>
      <point x="74" y="0"/>
      <point x="18" y="0"/>
      <point x="86" y="0" type="curve"/>
      <point x="294" y="237"/>
      <point x="511" y="485"/>
      <point x="719" y="722" type="curve"/>
      <point x="656" y="722"/>
      <point x="707" y="722"/>
    </contour>
    <contour>
      <point x="45" y="722" type="curve"/>
      <point x="251" y="485"/>
      <point x="465" y="237"/>
      <point x="671" y="0" type="curve"/>
      <point x="739" y="0"/>
      <point x="679" y="0"/>
      <point x="747" y="0" type="curve"/>
      <point x="540" y="238"/>
      <point x="325" y="484"/>
      <point x="118" y="722" type="curve"/>
      <point x="55" y="722"/>
      <point x="108" y="722"/>
    </contour>
  </outline>
</glyph>
<glyph name="backslash" format="1">
  <advance width="622"/>
  <unicode hex="005C"/>
  <outline>
    <contour>
      <point x="593" y="-68" type="curve"/>
      <point x="427" y="236"/>
      <point x="261" y="540"/>
      <point x="94" y="844" type="curve"/>
      <point x="29" y="844"/>
      <point x="94" y="844"/>
      <point x="29" y="844" type="curve"/>
      <point x="195" y="540"/>
      <point x="362" y="236"/>
      <point x="528" y="-68" type="curve"/>
      <point x="593" y="-68"/>
      <point x="528" y="-68"/>
    </contour>
  </outline>
</glyph>
<glyph name="bracketright" format="1">
  <advance width="332"/>
  <unicode hex="005D"/>
  <outline>
    <contour>
      <point x="31" y="717" type="curve"/>
      <point x="96" y="717"/>
      <point x="160" y="717"/>
      <point x="225" y="717" type="curve"/>
      <point x="218" y="722"/>
      <point x="210" y="726"/>
      <point x="204" y="731" type="curve"/>
      <point x="197" y="737"/>
      <point x="192" y="744"/>
      <point x="185" y="750" type="curve"/>
      <point x="185" y="466"/>
      <point x="185" y="182"/>
      <point x="185" y="-102" type="curve"/>
      <point x="193" y="-96"/>
      <point x="199" y="-88"/>
      <point x="206" y="-82" type="curve"/>
      <point x="213" y="-78"/>
      <point x="220" y="-73"/>
      <point x="227" y="-67" type="curve"/>
      <point x="161" y="-67"/>
      <point x="96" y="-67"/>
      <point x="31" y="-67" type="curve"/>
      <point x="31" y="-121"/>
      <point x="31" y="-67"/>
      <point x="31" y="-121" type="curve"/>
      <point x="96" y="-121"/>
      <point x="161" y="-121"/>
      <point x="227" y="-121" type="curve"/>
      <point x="248" y="-121"/>
      <point x="227" y="-121"/>
      <point x="248" y="-121" type="curve"/>
      <point x="248" y="-102"/>
      <point x="248" y="-121"/>
      <point x="248" y="-102" type="curve"/>
      <point x="248" y="182"/>
      <point x="248" y="466"/>
      <point x="248" y="750" type="curve"/>
      <point x="248" y="770"/>
      <point x="248" y="750"/>
      <point x="248" y="770" type="curve"/>
      <point x="225" y="770"/>
      <point x="248" y="770"/>
      <point x="225" y="770" type="curve"/>
      <point x="160" y="770"/>
      <point x="96" y="770"/>
      <point x="31" y="770" type="curve"/>
      <point x="31" y="717"/>
      <point x="31" y="770"/>
    </contour>
  </outline>
</glyph>
<glyph name="asciicircum" format="1">
  <advance width="614"/>
  <unicode hex="005E"/>
  <outline>
    <contour>
      <point x="115" y="462" type="curve"/>
      <point x="189" y="573"/>
      <point x="263" y="682"/>
      <point x="337" y="793" type="curve"/>
      <point x="275" y="793"/>
      <point x="335" y="793"/>
      <point x="274" y="793" type="curve"/>
      <point x="200" y="682"/>
      <point x="126" y="573"/>
      <point x="52" y="462" type="curve"/>
      <point x="114" y="462"/>
      <point x="54" y="462"/>
    </contour>
    <contour>
      <point x="562" y="462" type="curve"/>
      <point x="489" y="570"/>
      <point x="411" y="685"/>
      <point x="338" y="793" type="curve"/>
      <point x="277" y="793"/>
      <point x="337" y="793"/>
      <point x="275" y="793" type="curve"/>
      <point x="348" y="685"/>
      <point x="426" y="570"/>
      <point x="499" y="462" type="curve"/>
      <point x="561" y="462"/>
      <point x="500" y="462"/>
    </contour>
  </outline>
</glyph>
<glyph name="underscore" format="1">
  <advance width="868"/>
  <unicode hex="005F"/>
  <outline>
    <contour>
      <point x="0" y="-202" type="curve"/>
      <point x="289" y="-202"/>
      <point x="579" y="-202"/>
      <point x="868" y="-202" type="curve"/>
      <point x="868" y="-154"/>
      <point x="868" y="-202"/>
      <point x="868" y="-154" type="curve"/>
      <point x="579" y="-154"/>
      <point x="289" y="-154"/>
      <point x="0" y="-154" type="curve"/>
      <point x="0" y="-202"/>
      <point x="0" y="-154"/>
    </contour>
  </outline>
</glyph>
<glyph name="b" format="1">
  <advance width="745"/>
  <unicode hex="0062"/>
  <outline>
    <contour>
      <point x="138" y="380" type="curve"/>
      <point x="194" y="437"/>
      <point x="283" y="488"/>
      <point x="393" y="488" type="curve"/>
      <point x="531" y="488"/>
      <point x="626" y="403"/>
      <point x="626" y="263" type="curve"/>
      <point x="627" y="129"/>
      <point x="530" y="44"/>
      <point x="392" y="45" type="curve"/>
      <point x="292" y="45"/>
      <point x="215" y="76"/>
      <point x="144" y="139" type="curve"/>
      <point x="121" y="122"/>
      <point x="129" y="129"/>
      <point x="106" y="111" type="curve"/>
      <point x="193" y="33"/>
      <point x="279" y="-5"/>
      <point x="401" y="-5" type="curve"/>
      <point x="572" y="-5"/>
      <point x="689" y="95"/>
      <point x="689" y="265" type="curve"/>
      <point x="689" y="435"/>
      <point x="572" y="538"/>
      <point x="402" y="538" type="curve"/>
      <point x="277" y="538"/>
      <point x="178" y="484"/>
      <point x="109" y="415" type="curve"/>
      <point x="127" y="394"/>
      <point x="120" y="400"/>
    </contour>
    <contour>
      <point x="155" y="0" type="curve"/>
      <point x="155" y="278"/>
      <point x="155" y="522"/>
      <point x="155" y="800" type="curve"/>
      <point x="118" y="800"/>
      <point x="130" y="800"/>
      <point x="93" y="800" type="curve"/>
      <point x="93" y="522"/>
      <point x="93" y="278"/>
      <point x="93" y="0" type="curve"/>
      <point x="130" y="0"/>
      <point x="118" y="0"/>
    </contour>
  </outline>
</glyph>
<glyph name="d" format="1">
  <advance width="748"/>
  <unicode hex="0064"/>
  <outline>
    <contour>
      <point x="635" y="434" type="curve"/>
      <point x="561" y="503"/>
      <point x="470" y="538"/>
      <point x="365" y="538" type="curve"/>
      <point x="186" y="538"/>
      <point x="56" y="441"/>
      <point x="56" y="263" type="curve"/>
      <point x="56" y="86"/>
      <point x="188" y="-5"/>
      <point x="368" y="-5" type="curve"/>
      <point x="484" y="-5"/>
      <point x="566" y="41"/>
      <point x="636" y="130" type="curve"/>
      <point x="605" y="159"/>
      <point x="633" y="130"/>
      <point x="603" y="159" type="curve"/>
      <point x="538" y="80"/>
      <point x="469" y="44"/>
      <point x="373" y="44" type="curve"/>
      <point x="227" y="44"/>
      <point x="119" y="121"/>
      <point x="119" y="266" type="curve"/>
      <point x="119" y="412"/>
      <point x="227" y="489"/>
      <point x="373" y="489" type="curve"/>
      <point x="463" y="489"/>
      <point x="546" y="458"/>
      <point x="606" y="399" type="curve"/>
      <point x="637" y="431"/>
      <point x="604" y="402"/>
    </contour>
    <contour>
      <point x="655" y="0" type="curve"/>
      <point x="655" y="267"/>
      <point x="655" y="533"/>
      <point x="655" y="800" type="curve"/>
      <point x="589" y="800"/>
      <point x="655" y="800"/>
      <point x="589" y="800" type="curve"/>
      <point x="589" y="533"/>
      <point x="589" y="267"/>
      <point x="589" y="0" type="curve"/>
      <point x="655" y="0"/>
      <point x="589" y="0"/>
    </contour>
  </outline>
</glyph>
<glyph name="f" format="1">
  <advance width="570"/>
  <unicode hex="0066"/>
  <outline>
    <contour>
      <point x="22" y="484" type="curve"/>
      <point x="543" y="484" type="line"/>
      <point x="543" y="533"/>
      <point x="543" y="484"/>
      <point x="543" y="533" type="curve"/>
      <point x="22" y="533" type="line"/>
      <point x="22" y="484"/>
      <point x="22" y="533"/>
    </contour>
    <contour>
      <point x="284" y="0" type="curve"/>
      <point x="284" y="629" type="line"/>
      <point x="284" y="712"/>
      <point x="342" y="756"/>
      <point x="428" y="756" type="curve"/>
      <point x="468" y="756"/>
      <point x="508" y="746"/>
      <point x="545" y="732" type="curve"/>
      <point x="571" y="770"/>
      <point x="545" y="732"/>
      <point x="571" y="770" type="curve"/>
      <point x="525" y="788"/>
      <point x="476" y="804"/>
      <point x="428" y="804" type="curve"/>
      <point x="307" y="804"/>
      <point x="221" y="744"/>
      <point x="222" y="629" type="curve"/>
      <point x="222" y="0" type="line"/>
      <point x="284" y="0"/>
      <point x="222" y="0"/>
    </contour>
  </outline>
</glyph>
<glyph name="g" format="1">
  <advance width="644"/>
  <unicode hex="0067"/>
  <outline>
    <contour>
      <point x="436" y="482" type="curve"/>
      <point x="632" y="558" type="line"/>
      <point x="631" y="559"/>
      <point x="607" y="605"/>
      <point x="606" y="606" type="curve"/>
      <point x="405" y="517" type="line"/>
      <point x="436" y="482"/>
      <point x="405" y="517"/>
    </contour>
    <contour>
      <point x="126" y="352" type="curve"/>
      <point x="126" y="446"/>
      <point x="213" y="490"/>
      <point x="319" y="490" type="curve"/>
      <point x="423" y="490"/>
      <point x="505" y="447"/>
      <point x="505" y="353" type="curve"/>
      <point x="505" y="263"/>
      <point x="421" y="223"/>
      <point x="317" y="223" type="curve"/>
      <point x="214" y="223"/>
      <point x="126" y="259"/>
      <point x="126" y="352" type="curve"/>
      <point x="63" y="349"/>
      <point x="126" y="352"/>
      <point x="63" y="349" type="curve"/>
      <point x="63" y="227"/>
      <point x="176" y="175"/>
      <point x="312" y="175" type="curve"/>
      <point x="453" y="175"/>
      <point x="568" y="229"/>
      <point x="568" y="355" type="curve"/>
      <point x="568" y="481"/>
      <point x="456" y="538"/>
      <point x="319" y="538" type="curve"/>
      <point x="177" y="538"/>
      <point x="63" y="478"/>
      <point x="63" y="349" type="curve"/>
      <point x="126" y="352"/>
      <point x="63" y="349"/>
    </contour>
    <contour>
      <point x="175" y="233" type="curve"/>
      <point x="115" y="209"/>
      <point x="68" y="174"/>
      <point x="68" y="110" type="curve"/>
      <point x="68" y="3"/>
      <point x="184" y="-11"/>
      <point x="306" y="-19" type="curve"/>
      <point x="440" y="-28"/>
      <point x="576" y="-24"/>
      <point x="576" y="-136" type="curve"/>
      <point x="576" y="-240"/>
      <point x="449" y="-256"/>
      <point x="316" y="-256" type="curve"/>
      <point x="190" y="-256"/>
      <point x="74" y="-228"/>
      <point x="74" y="-124" type="curve"/>
      <point x="74" y="-51"/>
      <point x="131" y="-15"/>
      <point x="199" y="8" type="curve"/>
      <point x="168" y="37"/>
      <point x="199" y="8"/>
      <point x="168" y="37" type="curve"/>
      <point x="82" y="10"/>
      <point x="12" y="-34"/>
      <point x="12" y="-127" type="curve"/>
      <point x="12" y="-267"/>
      <point x="153" y="-304"/>
      <point x="313" y="-304" type="curve"/>
      <point x="481" y="-304"/>
      <point x="636" y="-280"/>
      <point x="633" y="-131" type="curve"/>
      <point x="633" y="14"/>
      <point x="477" y="17"/>
      <point x="317" y="27" type="curve"/>
      <point x="223" y="32"/>
      <point x="131" y="37"/>
      <point x="131" y="116" type="curve"/>
      <point x="131" y="160"/>
      <point x="162" y="185"/>
      <point x="204" y="204" type="curve"/>
      <point x="175" y="233"/>
      <point x="204" y="204"/>
    </contour>
    <contour>
      <point x="316" y="654" type="move" name="top"/>
    </contour>
  </outline>
</glyph>
<glyph name="h" format="1">
  <advance width="716"/>
  <unicode hex="0068"/>
  <outline>
    <contour>
      <point x="142" y="330" type="curve"/>
      <point x="186" y="430"/>
      <point x="284" y="489"/>
      <point x="389" y="489" type="curve"/>
      <point x="499" y="489"/>
      <point x="567" y="434"/>
      <point x="567" y="327" type="curve"/>
      <point x="567" y="218"/>
      <point x="567" y="111"/>
      <point x="567" y="0" type="curve"/>
      <point x="629" y="0"/>
      <point x="567" y="0"/>
      <point x="629" y="0" type="curve"/>
      <point x="629" y="112"/>
      <point x="629" y="224"/>
      <point x="629" y="336" type="curve"/>
      <point x="629" y="474"/>
      <point x="541" y="538"/>
      <point x="399" y="538" type="curve"/>
      <point x="274" y="538"/>
      <point x="159" y="473"/>
      <point x="111" y="354" type="curve"/>
      <point x="143" y="329"/>
      <point x="110" y="355"/>
    </contour>
    <contour>
      <point x="155" y="0" type="curve"/>
      <point x="155" y="267"/>
      <point x="155" y="533"/>
      <point x="155" y="800" type="curve"/>
      <point x="93" y="800"/>
      <point x="155" y="800"/>
      <point x="93" y="800" type="curve"/>
      <point x="93" y="533"/>
      <point x="93" y="267"/>
      <point x="93" y="0" type="curve"/>
      <point x="155" y="0"/>
      <point x="93" y="0"/>
    </contour>
  </outline>
</glyph>
<glyph name="i" format="1">
  <advance width="261"/>
  <unicode hex="0069"/>
  <outline>
    <contour>
      <point x="162" y="0" type="curve"/>
      <point x="162" y="178"/>
      <point x="162" y="355"/>
      <point x="162" y="533" type="curve"/>
      <point x="96" y="533"/>
      <point x="162" y="533"/>
      <point x="96" y="533" type="curve"/>
      <point x="96" y="355"/>
      <point x="96" y="178"/>
      <point x="96" y="0" type="curve"/>
      <point x="162" y="0"/>
      <point x="96" y="0"/>
    </contour>
    <contour>
      <point x="170" y="686" type="curve"/>
      <point x="170" y="709"/>
      <point x="153" y="722"/>
      <point x="128" y="722" type="curve"/>
      <point x="104" y="722"/>
      <point x="88" y="708"/>
      <point x="88" y="686" type="curve"/>
      <point x="153" y="686"/>
      <point x="105" y="686"/>
      <point x="170" y="686" type="curve"/>
      <point x="170" y="662"/>
      <point x="153" y="651"/>
      <point x="128" y="651" type="curve"/>
      <point x="104" y="651"/>
      <point x="88" y="663"/>
      <point x="88" y="686" type="curve"/>
      <point x="153" y="686"/>
      <point x="105" y="686"/>
    </contour>
    <contour>
      <point x="128" y="652" type="move" name="top"/>
    </contour>
    <contour>
      <point x="158" y="4" type="move" name="bottom"/>
    </contour>
  </outline>
</glyph>
<glyph name="j" format="1">
  <advance width="274"/>
  <unicode hex="006A"/>
  <outline>
    <contour>
      <point x="-81" y="-301" type="curve"/>
      <point x="-71" y="-302"/>
      <point x="-57" y="-304"/>
      <point x="-42" y="-304" type="curve"/>
      <point x="79" y="-304"/>
      <point x="177" y="-250"/>
      <point x="177" y="-135" type="curve"/>
      <point x="177" y="87"/>
      <point x="177" y="310"/>
      <point x="177" y="533" type="curve"/>
      <point x="115" y="533"/>
      <point x="177" y="533"/>
      <point x="115" y="533" type="curve"/>
      <point x="115" y="310"/>
      <point x="115" y="87"/>
      <point x="115" y="-135" type="curve"/>
      <point x="115" y="-217"/>
      <point x="46" y="-257"/>
      <point x="-40" y="-257" type="curve"/>
      <point x="-51" y="-257"/>
      <point x="-65" y="-255"/>
      <point x="-72" y="-254" type="curve"/>
      <point x="-81" y="-301"/>
      <point x="-72" y="-254"/>
    </contour>
    <contour>
      <point x="190" y="685" type="curve"/>
      <point x="190" y="708"/>
      <point x="172" y="721"/>
      <point x="147" y="721" type="curve"/>
      <point x="124" y="721"/>
      <point x="107" y="707"/>
      <point x="107" y="685" type="curve"/>
      <point x="172" y="685"/>
      <point x="124" y="685"/>
      <point x="190" y="685" type="curve"/>
      <point x="190" y="662"/>
      <point x="172" y="650"/>
      <point x="147" y="650" type="curve"/>
      <point x="123" y="650"/>
      <point x="107" y="662"/>
      <point x="107" y="685" type="curve"/>
      <point x="172" y="685"/>
      <point x="124" y="685"/>
    </contour>
  </outline>
</glyph>
<glyph name="k" format="1">
  <advance width="605"/>
  <unicode hex="006B"/>
  <outline>
    <contour>
      <point x="155" y="0" type="curve"/>
      <point x="155" y="800" type="line"/>
      <point x="93" y="800"/>
      <point x="155" y="800"/>
      <point x="93" y="800" type="curve"/>
      <point x="93" y="533"/>
      <point x="93" y="267"/>
      <point x="93" y="0" type="curve"/>
      <point x="155" y="0"/>
      <point x="93" y="0"/>
    </contour>
    <contour>
      <point x="476" y="533" type="curve"/>
      <point x="135" y="275" type="line"/>
      <point x="220" y="275"/>
      <point x="135" y="275"/>
      <point x="220" y="275" type="curve"/>
      <point x="563" y="533" type="line"/>
      <point x="472" y="533"/>
      <point x="567" y="533"/>
    </contour>
    <contour>
      <point x="596" y="0" type="curve"/>
      <point x="220" y="275" type="line"/>
      <point x="135" y="275"/>
      <point x="219" y="275"/>
      <point x="135" y="275" type="curve"/>
      <point x="506" y="0" type="line"/>
      <point x="600" y="0"/>
      <point x="502" y="0"/>
    </contour>
    <contour>
      <point x="381" y="-5" type="move" name="bottom"/>
    </contour>
  </outline>
</glyph>
<glyph name="m" format="1">
  <advance width="1089"/>
  <unicode hex="006D"/>
  <outline>
    <contour>
      <point x="564" y="327" type="curve"/>
      <point x="611" y="426"/>
      <point x="684" y="488"/>
      <point x="784" y="488" type="curve"/>
      <point x="891" y="488"/>
      <point x="939" y="439"/>
      <point x="939" y="331" type="curve"/>
      <point x="939" y="221"/>
      <point x="939" y="111"/>
      <point x="939" y="0" type="curve"/>
      <point x="1001" y="0"/>
      <point x="939" y="0"/>
      <point x="1001" y="0" type="curve"/>
      <point x="1001" y="112"/>
      <point x="1001" y="224"/>
      <point x="1001" y="336" type="curve"/>
      <point x="1001" y="475"/>
      <point x="937" y="538"/>
      <point x="797" y="538" type="curve"/>
      <point x="675" y="538"/>
      <point x="585" y="471"/>
      <point x="534" y="351" type="curve"/>
      <point x="564" y="327"/>
      <point x="533" y="351"/>
    </contour>
    <contour>
      <point x="142" y="328" type="curve"/>
      <point x="189" y="428"/>
      <point x="260" y="488"/>
      <point x="361" y="488" type="curve"/>
      <point x="467" y="488"/>
      <point x="516" y="439"/>
      <point x="516" y="331" type="curve"/>
      <point x="516" y="221"/>
      <point x="516" y="111"/>
      <point x="516" y="0" type="curve"/>
      <point x="578" y="0"/>
      <point x="516" y="0"/>
      <point x="578" y="0" type="curve"/>
      <point x="578" y="112"/>
      <point x="578" y="224"/>
      <point x="578" y="336" type="curve"/>
      <point x="578" y="475"/>
      <point x="514" y="538"/>
      <point x="375" y="538" type="curve"/>
      <point x="251" y="538"/>
      <point x="168" y="474"/>
      <point x="111" y="353" type="curve"/>
      <point x="142" y="328"/>
      <point x="111" y="353"/>
    </contour>
    <contour>
      <point x="155" y="0" type="curve"/>
      <point x="155" y="178"/>
      <point x="155" y="355"/>
      <point x="155" y="533" type="curve"/>
      <point x="93" y="533"/>
      <point x="155" y="533"/>
      <point x="93" y="533" type="curve"/>
      <point x="93" y="355"/>
      <point x="93" y="178"/>
      <point x="93" y="0" type="curve"/>
      <point x="155" y="0"/>
      <point x="93" y="0"/>
    </contour>
  </outline>
</glyph>
<glyph name="p" format="1">
  <advance width="743"/>
  <unicode hex="0070"/>
  <outline>
    <contour>
      <point x="135" y="382" type="curve"/>
      <point x="192" y="446"/>
      <point x="285" y="491"/>
      <point x="395" y="491" type="curve"/>
      <point x="532" y="491"/>
      <point x="626" y="407"/>
      <point x="626" y="272" type="curve"/>
      <point x="629" y="132"/>
      <point x="535" y="42"/>
      <point x="394" y="44" type="curve"/>
      <point x="292" y="44"/>
      <point x="216" y="79"/>
      <point x="137" y="142" type="curve"/>
      <point x="116" y="127"/>
      <point x="127" y="127"/>
      <point x="106" y="112" type="curve"/>
      <point x="191" y="36"/>
      <point x="280" y="-5"/>
      <point x="399" y="-5" type="curve"/>
      <point x="573" y="-5"/>
      <point x="688" y="103"/>
      <point x="687" y="275" type="curve"/>
      <point x="687" y="439"/>
      <point x="571" y="539"/>
      <point x="403" y="539" type="curve"/>
      <point x="278" y="539"/>
      <point x="175" y="490"/>
      <point x="109" y="416" type="curve"/>
      <point x="127" y="395"/>
      <point x="118" y="403"/>
    </contour>
    <contour>
      <point x="155" y="-300" type="curve"/>
      <point x="155" y="-22"/>
      <point x="155" y="255"/>
      <point x="155" y="533" type="curve"/>
      <point x="93" y="533"/>
      <point x="155" y="533"/>
      <point x="93" y="533" type="curve"/>
      <point x="93" y="255"/>
      <point x="93" y="-22"/>
      <point x="93" y="-300" type="curve"/>
      <point x="155" y="-300"/>
      <point x="93" y="-300"/>
    </contour>
  </outline>
</glyph>
<glyph name="q" format="1">
  <advance width="752"/>
  <unicode hex="0071"/>
  <outline>
    <contour>
      <point x="642" y="424" type="curve"/>
      <point x="560" y="496"/>
      <point x="459" y="538"/>
      <point x="347" y="538" type="curve"/>
      <point x="173" y="538"/>
      <point x="57" y="435"/>
      <point x="57" y="264" type="curve"/>
      <point x="57" y="92"/>
      <point x="177" y="-5"/>
      <point x="352" y="-5" type="curve"/>
      <point x="469" y="-5"/>
      <point x="569" y="47"/>
      <point x="648" y="131" type="curve"/>
      <point x="627" y="150"/>
      <point x="636" y="146"/>
      <point x="615" y="164" type="curve"/>
      <point x="548" y="85"/>
      <point x="459" y="44"/>
      <point x="358" y="44" type="curve"/>
      <point x="217" y="44"/>
      <point x="120" y="126"/>
      <point x="120" y="266" type="curve"/>
      <point x="120" y="406"/>
      <point x="214" y="489"/>
      <point x="355" y="489" type="curve"/>
      <point x="453" y="489"/>
      <point x="546" y="449"/>
      <point x="618" y="389" type="curve"/>
      <point x="636" y="409"/>
      <point x="624" y="404"/>
    </contour>
    <contour>
      <point x="659" y="-300" type="curve"/>
      <point x="659" y="-14"/>
      <point x="659" y="247"/>
      <point x="659" y="533" type="curve"/>
      <point x="620" y="533"/>
      <point x="632" y="533"/>
      <point x="593" y="533" type="curve"/>
      <point x="593" y="247"/>
      <point x="593" y="-14"/>
      <point x="593" y="-300" type="curve"/>
      <point x="632" y="-300"/>
      <point x="620" y="-300"/>
    </contour>
  </outline>
</glyph>
<glyph name="r" format="1">
  <advance width="456"/>
  <unicode hex="0072"/>
  <outline>
    <contour>
      <point x="155" y="0" type="curve"/>
      <point x="155" y="185"/>
      <point x="155" y="348"/>
      <point x="155" y="533" type="curve"/>
      <point x="118" y="533"/>
      <point x="130" y="533"/>
      <point x="93" y="533" type="curve"/>
      <point x="93" y="348"/>
      <point x="93" y="185"/>
      <point x="93" y="0" type="curve"/>
      <point x="130" y="0"/>
      <point x="118" y="0"/>
    </contour>
    <contour>
      <point x="139" y="324" type="curve"/>
      <point x="206" y="447"/>
      <point x="315" y="483"/>
      <point x="444" y="483" type="curve"/>
      <point x="444" y="516"/>
      <point x="444" y="505"/>
      <point x="444" y="538" type="curve"/>
      <point x="304" y="538"/>
      <point x="181" y="484"/>
      <point x="120" y="364" type="curve"/>
      <point x="136" y="341"/>
      <point x="124" y="348"/>
    </contour>
    <contour>
      <point x="149" y="654" type="move" name="top"/>
    </contour>
    <contour>
      <point x="152" y="5" type="move" name="bottom"/>
    </contour>
  </outline>
</glyph>
<glyph name="t" format="1">
  <advance width="516"/>
  <unicode hex="0074"/>
  <outline>
    <contour>
      <point x="17" y="485" type="curve"/>
      <point x="502" y="485" type="line"/>
      <point x="502" y="533"/>
      <point x="502" y="485"/>
      <point x="502" y="533" type="curve"/>
      <point x="17" y="533" type="line"/>
      <point x="17" y="485"/>
      <point x="17" y="533"/>
    </contour>
    <contour>
      <point x="478" y="71" type="curve"/>
      <point x="437" y="54"/>
      <point x="406" y="45"/>
      <point x="362" y="45" type="curve"/>
      <point x="287" y="45"/>
      <point x="244" y="78"/>
      <point x="244" y="154" type="curve"/>
      <point x="244" y="678" type="line"/>
      <point x="225" y="667"/>
      <point x="202" y="655"/>
      <point x="182" y="644" type="curve"/>
      <point x="182" y="151" type="line"/>
      <point x="182" y="44"/>
      <point x="248" y="-5"/>
      <point x="356" y="-5" type="curve"/>
      <point x="412" y="-5"/>
      <point x="450" y="9"/>
      <point x="496" y="28" type="curve"/>
      <point x="478" y="71"/>
      <point x="496" y="28"/>
    </contour>
    <contour>
      <point x="370" y="-3" type="move" name="bottom"/>
    </contour>
  </outline>
</glyph>
<glyph name="v" format="1">
  <advance width="660"/>
  <unicode hex="0076"/>
  <outline>
    <contour>
      <point x="27" y="533" type="curve"/>
      <point x="115" y="355"/>
      <point x="204" y="178"/>
      <point x="292" y="0" type="curve"/>
      <point x="354" y="0"/>
      <point x="292" y="0"/>
      <point x="354" y="0" type="curve"/>
      <point x="267" y="178"/>
      <point x="180" y="355"/>
      <point x="92" y="533" type="curve"/>
      <point x="27" y="533"/>
      <point x="92" y="533"/>
    </contour>
    <contour>
      <point x="575" y="533" type="curve"/>
      <point x="298" y="0" type="line"/>
      <point x="361" y="0"/>
      <point x="298" y="0"/>
      <point x="361" y="0" type="curve"/>
      <point x="454" y="178"/>
      <point x="546" y="355"/>
      <point x="639" y="533" type="curve"/>
      <point x="575" y="533"/>
      <point x="639" y="533"/>
    </contour>
  </outline>
</glyph>
<glyph name="w" format="1">
  <advance width="1088"/>
  <unicode hex="0077"/>
  <outline>
    <contour>
      <point x="324" y="0" type="curve"/>
      <point x="411" y="178"/>
      <point x="497" y="355"/>
      <point x="583" y="533" type="curve"/>
      <point x="518" y="533"/>
      <point x="583" y="533"/>
      <point x="518" y="533" type="curve"/>
      <point x="433" y="355"/>
      <point x="347" y="178"/>
      <point x="262" y="0" type="curve"/>
      <point x="324" y="0"/>
      <point x="262" y="0"/>
    </contour>
    <contour>
      <point x="998" y="533" type="curve"/>
      <point x="918" y="355"/>
      <point x="839" y="178"/>
      <point x="759" y="0" type="curve"/>
      <point x="821" y="0"/>
      <point x="759" y="0"/>
      <point x="821" y="0" type="curve"/>
      <point x="902" y="178"/>
      <point x="982" y="355"/>
      <point x="1063" y="533" type="curve"/>
      <point x="998" y="533"/>
      <point x="1063" y="533"/>
    </contour>
    <contour>
      <point x="525" y="533" type="curve"/>
      <point x="603" y="355"/>
      <point x="680" y="178"/>
      <point x="758" y="0" type="curve"/>
      <point x="819" y="0"/>
      <point x="758" y="0"/>
      <point x="819" y="0" type="curve"/>
      <point x="743" y="178"/>
      <point x="666" y="355"/>
      <point x="589" y="533" type="curve"/>
      <point x="525" y="533"/>
      <point x="589" y="533"/>
    </contour>
    <contour>
      <point x="29" y="533" type="curve"/>
      <point x="107" y="355"/>
      <point x="184" y="178"/>
      <point x="261" y="0" type="curve"/>
      <point x="323" y="0"/>
      <point x="261" y="0"/>
      <point x="323" y="0" type="curve"/>
      <point x="247" y="178"/>
      <point x="170" y="355"/>
      <point x="94" y="533" type="curve"/>
      <point x="29" y="533"/>
      <point x="94" y="533"/>
    </contour>
  </outline>
</glyph>
<glyph name="x" format="1">
  <advance width="668"/>
  <unicode hex="0078"/>
  <outline>
    <contour>
      <point x="651" y="0" type="curve"/>
      <point x="523" y="128"/>
      <point x="233" y="405"/>
      <point x="104" y="533" type="curve"/>
      <point x="10" y="533"/>
      <point x="128" y="533"/>
      <point x="34" y="533" type="curve"/>
      <point x="162" y="405"/>
      <point x="447" y="128"/>
      <point x="574" y="0" type="curve"/>
      <point x="651" y="0"/>
      <point x="574" y="0"/>
    </contour>
    <contour>
      <point x="567" y="533" type="curve"/>
      <point x="438" y="405"/>
      <point x="143" y="128"/>
      <point x="14" y="0" type="curve"/>
      <point x="93" y="0"/>
      <point x="14" y="0"/>
      <point x="93" y="0" type="curve"/>
      <point x="221" y="128"/>
      <point x="511" y="405"/>
      <point x="640" y="533" type="curve"/>
      <point x="534" y="533"/>
      <point x="673" y="533"/>
    </contour>
  </outline>
</glyph>
<glyph name="braceleft" format="1">
  <advance width="343"/>
  <unicode hex="007B"/>
  <outline>
    <contour>
      <point x="313" y="-71" type="curve"/>
      <point x="240" y="-71"/>
      <point x="193" y="-32"/>
      <point x="193" y="38" type="curve"/>
      <point x="193" y="95"/>
      <point x="193" y="151"/>
      <point x="193" y="208" type="curve"/>
      <point x="193" y="308"/>
      <point x="122" y="365"/>
      <point x="18" y="365" type="curve"/>
      <point x="18" y="314"/>
      <point x="18" y="365"/>
      <point x="18" y="314" type="curve"/>
      <point x="88" y="314"/>
      <point x="137" y="280"/>
      <point x="137" y="212" type="curve"/>
      <point x="137" y="155"/>
      <point x="137" y="98"/>
      <point x="137" y="40" type="curve"/>
      <point x="137" y="-61"/>
      <point x="207" y="-119"/>
      <point x="313" y="-119" type="curve"/>
      <point x="313" y="-71"/>
      <point x="313" y="-119"/>
    </contour>
    <contour>
      <point x="313" y="797" type="curve"/>
      <point x="206" y="797"/>
      <point x="136" y="741"/>
      <point x="136" y="639" type="curve"/>
      <point x="136" y="581"/>
      <point x="136" y="522"/>
      <point x="136" y="464" type="curve"/>
      <point x="136" y="397"/>
      <point x="88" y="365"/>
      <point x="18" y="365" type="curve"/>
      <point x="18" y="314"/>
      <point x="18" y="365"/>
      <point x="18" y="314" type="curve"/>
      <point x="122" y="314"/>
      <point x="192" y="370"/>
      <point x="192" y="471" type="curve"/>
      <point x="192" y="527"/>
      <point x="192" y="583"/>
      <point x="192" y="639" type="curve"/>
      <point x="192" y="709"/>
      <point x="239" y="749"/>
      <point x="313" y="749" type="curve"/>
      <point x="313" y="797"/>
      <point x="313" y="749"/>
    </contour>
  </outline>
</glyph>
<glyph name="braceright" format="1">
  <advance width="344"/>
  <unicode hex="007D"/>
  <outline>
    <contour>
      <point x="30" y="-119" type="curve"/>
      <point x="136" y="-119"/>
      <point x="206" y="-62"/>
      <point x="206" y="40" type="curve"/>
      <point x="206" y="98"/>
      <point x="206" y="155"/>
      <point x="206" y="212" type="curve"/>
      <point x="206" y="279"/>
      <point x="255" y="314"/>
      <point x="324" y="314" type="curve"/>
      <point x="324" y="364"/>
      <point x="324" y="314"/>
      <point x="324" y="364" type="curve"/>
      <point x="221" y="364"/>
      <point x="150" y="307"/>
      <point x="150" y="208" type="curve"/>
      <point x="150" y="151"/>
      <point x="150" y="95"/>
      <point x="150" y="38" type="curve"/>
      <point x="150" y="-32"/>
      <point x="103" y="-71"/>
      <point x="30" y="-71" type="curve"/>
      <point x="30" y="-119"/>
      <point x="30" y="-71"/>
    </contour>
    <contour>
      <point x="30" y="748" type="curve"/>
      <point x="103" y="748"/>
      <point x="149" y="709"/>
      <point x="149" y="639" type="curve"/>
      <point x="149" y="583"/>
      <point x="149" y="527"/>
      <point x="149" y="471" type="curve"/>
      <point x="149" y="369"/>
      <point x="220" y="314"/>
      <point x="324" y="314" type="curve"/>
      <point x="324" y="364"/>
      <point x="324" y="314"/>
      <point x="324" y="364" type="curve"/>
      <point x="254" y="364"/>
      <point x="205" y="397"/>
      <point x="205" y="464" type="curve"/>
      <point x="205" y="522"/>
      <point x="205" y="581"/>
      <point x="205" y="639" type="curve"/>
      <point x="205" y="741"/>
      <point x="135" y="796"/>
      <point x="30" y="796" type="curve"/>
      <point x="30" y="748"/>
      <point x="30" y="796"/>
    </contour>
  </outline>
</glyph>
<glyph name="asciitilde" format="1">
  <advance width="814"/>
  <unicode hex="007E"/>
  <outline>
    <contour>
      <point x="686" y="354" type="curve"/>
      <point x="663" y="303"/>
      <point x="630" y="260"/>
      <point x="566" y="260" type="curve"/>
      <point x="509" y="260"/>
      <point x="471" y="272"/>
      <point x="422" y="304" type="curve"/>
      <point x="367" y="340"/>
      <point x="325" y="359"/>
      <point x="259" y="359" type="curve"/>
      <point x="163" y="359"/>
      <point x="110" y="318"/>
      <point x="80" y="233" type="curve"/>
      <point x="105" y="222"/>
      <point x="99" y="224"/>
      <point x="125" y="213" type="curve"/>
      <point x="146" y="273"/>
      <point x="185" y="311"/>
      <point x="256" y="311" type="curve"/>
      <point x="306" y="311"/>
      <point x="339" y="299"/>
      <point x="381" y="271" type="curve"/>
      <point x="443" y="233"/>
      <point x="488" y="212"/>
      <point x="561" y="212" type="curve"/>
      <point x="653" y="212"/>
      <point x="700" y="258"/>
      <point x="735" y="335" type="curve"/>
      <point x="707" y="345"/>
      <point x="714" y="344"/>
    </contour>
  </outline>
</glyph>
<glyph name="exclamdown" format="1">
  <advance width="250"/>
  <unicode hex="00A1"/>
  <outline>
    <contour>
      <point x="101" y="312" type="line"/>
      <point x="92" y="-181" type="line"/>
      <point x="161" y="-181" type="line"/>
      <point x="153" y="312" type="line"/>
    </contour>
    <contour>
      <point x="85" y="514" type="curve"/>
      <point x="85" y="492"/>
      <point x="102" y="480"/>
      <point x="126" y="480" type="curve"/>
      <point x="149" y="480"/>
      <point x="165" y="493"/>
      <point x="165" y="514" type="curve"/>
      <point x="101" y="514"/>
      <point x="149" y="514"/>
      <point x="85" y="514" type="curve"/>
      <point x="85" y="537"/>
      <point x="102" y="548"/>
      <point x="126" y="548" type="curve"/>
      <point x="150" y="548"/>
      <point x="165" y="536"/>
      <point x="165" y="514" type="curve"/>
      <point x="101" y="514"/>
      <point x="149" y="514"/>
    </contour>
  </outline>
</glyph>
<glyph name="cent" format="1">
  <advance width="770"/>
  <unicode hex="00A2"/>
  <outline>
    <contour>
      <point x="434" y="-53" type="curve"/>
      <point x="434" y="-13"/>
      <point x="434" y="27"/>
      <point x="434" y="67" type="curve"/>
      <point x="373" y="67"/>
      <point x="434" y="67"/>
      <point x="373" y="67" type="curve"/>
      <point x="373" y="27"/>
      <point x="373" y="-13"/>
      <point x="373" y="-53" type="curve"/>
      <point x="434" y="-53"/>
      <point x="373" y="-53"/>
    </contour>
    <contour>
      <point x="399" y="778" type="curve"/>
      <point x="399" y="742"/>
      <point x="399" y="706"/>
      <point x="399" y="670" type="curve"/>
      <point x="460" y="670"/>
      <point x="399" y="670"/>
      <point x="460" y="670" type="curve"/>
      <point x="460" y="706"/>
      <point x="460" y="742"/>
      <point x="460" y="778" type="curve"/>
      <point x="399" y="778"/>
      <point x="460" y="778"/>
    </contour>
    <contour>
      <point x="716" y="611" type="curve"/>
      <point x="621" y="662"/>
      <point x="545" y="681"/>
      <point x="436" y="681" type="curve"/>
      <point x="213" y="681"/>
      <point x="52" y="575"/>
      <point x="52" y="365" type="curve"/>
      <point x="52" y="166"/>
      <point x="192" y="51"/>
      <point x="399" y="51" type="curve"/>
      <point x="523" y="51"/>
      <point x="609" y="79"/>
      <point x="715" y="143" type="curve"/>
      <point x="680" y="184"/>
      <point x="715" y="143"/>
      <point x="680" y="184" type="curve"/>
      <point x="586" y="125"/>
      <point x="511" y="102"/>
      <point x="404" y="102" type="curve"/>
      <point x="230" y="102"/>
      <point x="114" y="199"/>
      <point x="114" y="368" type="curve"/>
      <point x="114" y="542"/>
      <point x="246" y="631"/>
      <point x="431" y="631" type="curve"/>
      <point x="528" y="631"/>
      <point x="597" y="615"/>
      <point x="687" y="568" type="curve"/>
      <point x="716" y="611"/>
      <point x="687" y="568"/>
    </contour>
  </outline>
</glyph>
<glyph name="sterling" format="1">
  <advance width="626"/>
  <unicode hex="00A3"/>
  <outline>
    <contour>
      <point x="555" y="49" type="curve"/>
      <point x="383" y="49"/>
      <point x="212" y="49"/>
      <point x="41" y="49" type="curve"/>
      <point x="41" y="1"/>
      <point x="41" y="49"/>
      <point x="41" y="1" type="curve"/>
      <point x="212" y="1"/>
      <point x="383" y="1"/>
      <point x="555" y="1" type="curve"/>
      <point x="555" y="49"/>
      <point x="555" y="1"/>
    </contour>
    <contour>
      <point x="494" y="401" type="curve"/>
      <point x="358" y="401"/>
      <point x="221" y="401"/>
      <point x="85" y="401" type="curve"/>
      <point x="85" y="353"/>
      <point x="85" y="401"/>
      <point x="85" y="353" type="curve"/>
      <point x="221" y="353"/>
      <point x="358" y="353"/>
      <point x="494" y="353" type="curve"/>
      <point x="494" y="401"/>
      <point x="494" y="353"/>
    </contour>
    <contour>
      <point x="574" y="671" type="curve"/>
      <point x="514" y="707"/>
      <point x="467" y="722"/>
      <point x="397" y="722" type="curve"/>
      <point x="224" y="722"/>
      <point x="138" y="564"/>
      <point x="190" y="372" type="curve"/>
      <point x="236" y="198"/>
      <point x="183" y="49"/>
      <point x="41" y="49" type="curve"/>
      <point x="41" y="1"/>
      <point x="41" y="49"/>
      <point x="41" y="1" type="curve"/>
      <point x="229" y="1"/>
      <point x="306" y="175"/>
      <point x="251" y="381" type="curve"/>
      <point x="209" y="540"/>
      <point x="269" y="676"/>
      <point x="394" y="676" type="curve"/>
      <point x="453" y="676"/>
      <point x="493" y="664"/>
      <point x="545" y="633" type="curve"/>
      <point x="574" y="671"/>
      <point x="545" y="633"/>
    </contour>
  </outline>
</glyph>
<glyph name="currency" format="1">
  <advance width="730"/>
  <unicode hex="00A4"/>
  <outline>
    <contour>
      <point x="209" y="312" type="curve"/>
      <point x="209" y="397"/>
      <point x="276" y="441"/>
      <point x="366" y="441" type="curve"/>
      <point x="458" y="441"/>
      <point x="522" y="396"/>
      <point x="522" y="311" type="curve"/>
      <point x="522" y="226"/>
      <point x="460" y="178"/>
      <point x="372" y="178" type="curve"/>
      <point x="276" y="178"/>
      <point x="209" y="223"/>
      <point x="209" y="312" type="curve"/>
      <point x="147" y="312"/>
      <point x="209" y="312"/>
      <point x="148" y="312" type="curve"/>
      <point x="148" y="191"/>
      <point x="241" y="130"/>
      <point x="370" y="130" type="curve"/>
      <point x="495" y="130"/>
      <point x="583" y="195"/>
      <point x="583" y="314" type="curve"/>
      <point x="583" y="429"/>
      <point x="494" y="489"/>
      <point x="372" y="489" type="curve"/>
      <point x="242" y="489"/>
      <point x="148" y="432"/>
      <point x="148" y="312" type="curve"/>
      <point x="209" y="312"/>
      <point x="147" y="312"/>
    </contour>
    <contour>
      <point x="522" y="376" type="line"/>
      <point x="667" y="514" type="line"/>
      <point x="617" y="565" type="line"/>
      <point x="478" y="419" type="line"/>
    </contour>
    <contour>
      <point x="478" y="204" type="line"/>
      <point x="616" y="58" type="line"/>
      <point x="667" y="109" type="line"/>
      <point x="521" y="247" type="line"/>
    </contour>
    <contour>
      <point x="207" y="248" type="line"/>
      <point x="62" y="110" type="line"/>
      <point x="112" y="59" type="line"/>
      <point x="251" y="204" type="line"/>
    </contour>
    <contour>
      <point x="251" y="420" type="line"/>
      <point x="113" y="565" type="line"/>
      <point x="62" y="515" type="line"/>
      <point x="208" y="376" type="line"/>
    </contour>
  </outline>
</glyph>
<glyph name="yen" format="1">
  <advance width="767"/>
  <unicode hex="00A5"/>
  <outline>
    <contour>
      <point x="669" y="394" type="curve"/>
      <point x="580" y="394"/>
      <point x="490" y="394"/>
      <point x="400" y="394" type="curve"/>
      <point x="400" y="341"/>
      <point x="400" y="394"/>
      <point x="400" y="341" type="curve"/>
      <point x="490" y="341"/>
      <point x="580" y="341"/>
      <point x="669" y="341" type="curve"/>
      <point x="669" y="394"/>
      <point x="669" y="341"/>
    </contour>
    <contour>
      <point x="364" y="394" type="curve"/>
      <point x="276" y="394"/>
      <point x="187" y="394"/>
      <point x="100" y="394" type="curve"/>
      <point x="100" y="341"/>
      <point x="100" y="394"/>
      <point x="100" y="341" type="curve"/>
      <point x="187" y="341"/>
      <point x="276" y="341"/>
      <point x="364" y="341" type="curve"/>
      <point x="364" y="394"/>
      <point x="364" y="341"/>
    </contour>
    <contour>
      <point x="669" y="261" type="curve"/>
      <point x="480" y="261"/>
      <point x="289" y="261"/>
      <point x="100" y="261" type="curve"/>
      <point x="100" y="208"/>
      <point x="100" y="261"/>
      <point x="100" y="208" type="curve"/>
      <point x="289" y="208"/>
      <point x="480" y="208"/>
      <point x="669" y="208" type="curve"/>
      <point x="669" y="261"/>
      <point x="669" y="208"/>
    </contour>
    <contour>
      <point x="44" y="722" type="curve"/>
      <point x="141" y="598"/>
      <point x="251" y="462"/>
      <point x="348" y="337" type="curve"/>
      <point x="413" y="337"/>
      <point x="347" y="340"/>
      <point x="412" y="340" type="curve"/>
      <point x="313" y="467"/>
      <point x="215" y="595"/>
      <point x="116" y="722" type="curve"/>
      <point x="57" y="722"/>
      <point x="102" y="722"/>
    </contour>
    <contour>
      <point x="661" y="722" type="curve"/>
      <point x="557" y="595"/>
      <point x="453" y="467"/>
      <point x="349" y="340" type="curve"/>
      <point x="413" y="340"/>
      <point x="348" y="337"/>
      <point x="412" y="337" type="curve"/>
      <point x="515" y="462"/>
      <point x="626" y="597"/>
      <point x="729" y="722" type="curve"/>
      <point x="671" y="722"/>
      <point x="720" y="722"/>
    </contour>
    <contour>
      <point x="414" y="0" type="curve"/>
      <point x="414" y="115"/>
      <point x="414" y="231"/>
      <point x="414" y="346" type="curve"/>
      <point x="346" y="346"/>
      <point x="414" y="346"/>
      <point x="346" y="346" type="curve"/>
      <point x="346" y="231"/>
      <point x="346" y="115"/>
      <point x="346" y="0" type="curve"/>
      <point x="414" y="0"/>
      <point x="346" y="0"/>
    </contour>
  </outline>
</glyph>
<glyph name="section" format="1">
  <advance width="589"/>
  <unicode hex="00A7"/>
  <outline>
    <contour>
      <point x="489" y="707" type="curve"/>
      <point x="421" y="736"/>
      <point x="371" y="751"/>
      <point x="297" y="751" type="curve"/>
      <point x="185" y="751"/>
      <point x="101" y="712"/>
      <point x="101" y="617" type="curve"/>
      <point x="101" y="527"/>
      <point x="174" y="492"/>
      <point x="266" y="467" type="curve"/>
      <point x="365" y="441"/>
      <point x="474" y="444"/>
      <point x="474" y="359" type="curve"/>
      <point x="474" y="286"/>
      <point x="408" y="256"/>
      <point x="323" y="244" type="curve"/>
      <point x="360" y="206"/>
      <point x="323" y="244"/>
      <point x="360" y="206" type="curve"/>
      <point x="460" y="225"/>
      <point x="536" y="266"/>
      <point x="536" y="361" type="curve"/>
      <point x="535" y="477"/>
      <point x="418" y="484"/>
      <point x="297" y="513" type="curve"/>
      <point x="226" y="531"/>
      <point x="162" y="551"/>
      <point x="162" y="617" type="curve"/>
      <point x="162" y="680"/>
      <point x="218" y="703"/>
      <point x="292" y="703" type="curve"/>
      <point x="357" y="703"/>
      <point x="401" y="692"/>
      <point x="464" y="666" type="curve"/>
      <point x="489" y="707"/>
      <point x="464" y="666"/>
    </contour>
    <contour>
      <point x="226" y="517" type="curve"/>
      <point x="131" y="496"/>
      <point x="58" y="458"/>
      <point x="58" y="367" type="curve"/>
      <point x="58" y="258"/>
      <point x="161" y="240"/>
      <point x="276" y="212" type="curve"/>
      <point x="356" y="190"/>
      <point x="438" y="178"/>
      <point x="438" y="108" type="curve"/>
      <point x="438" y="46"/>
      <point x="375" y="20"/>
      <point x="298" y="20" type="curve"/>
      <point x="225" y="20"/>
      <point x="176" y="34"/>
      <point x="107" y="68" type="curve"/>
      <point x="77" y="30"/>
      <point x="107" y="68"/>
      <point x="77" y="30" type="curve"/>
      <point x="151" y="-12"/>
      <point x="211" y="-28"/>
      <point x="296" y="-28" type="curve"/>
      <point x="409" y="-28"/>
      <point x="499" y="8"/>
      <point x="499" y="110" type="curve"/>
      <point x="497" y="204"/>
      <point x="414" y="234"/>
      <point x="315" y="257" type="curve"/>
      <point x="219" y="282"/>
      <point x="120" y="288"/>
      <point x="120" y="370" type="curve"/>
      <point x="120" y="440"/>
      <point x="180" y="463"/>
      <point x="256" y="482" type="curve"/>
      <point x="226" y="517"/>
      <point x="256" y="482"/>
    </contour>
  </outline>
</glyph>
<glyph name="dieresis" format="1">
  <advance width="452"/>
  <unicode hex="00A8"/>
  <outline>
    <contour>
      <point x="163" y="643" type="curve"/>
      <point x="163" y="666"/>
      <point x="146" y="678"/>
      <point x="122" y="678" type="curve"/>
      <point x="99" y="678"/>
      <point x="84" y="665"/>
      <point x="84" y="643" type="curve"/>
      <point x="148" y="643"/>
      <point x="99" y="643"/>
      <point x="163" y="643" type="curve"/>
      <point x="163" y="621"/>
      <point x="146" y="609"/>
      <point x="122" y="609" type="curve"/>
      <point x="99" y="609"/>
      <point x="84" y="621"/>
      <point x="84" y="643" type="curve"/>
      <point x="148" y="643"/>
      <point x="99" y="643"/>
    </contour>
    <contour>
      <point x="341" y="643" type="curve"/>
      <point x="341" y="666"/>
      <point x="324" y="678"/>
      <point x="300" y="678" type="curve"/>
      <point x="277" y="678"/>
      <point x="261" y="665"/>
      <point x="261" y="643" type="curve"/>
      <point x="325" y="643"/>
      <point x="277" y="643"/>
      <point x="341" y="643" type="curve"/>
      <point x="341" y="621"/>
      <point x="324" y="609"/>
      <point x="300" y="609" type="curve"/>
      <point x="277" y="609"/>
      <point x="261" y="621"/>
      <point x="261" y="643" type="curve"/>
      <point x="325" y="643"/>
      <point x="277" y="643"/>
    </contour>
    <contour>
      <point x="212" y="611" type="move" name="_top"/>
    </contour>
  </outline>
</glyph>
<glyph name="copyright" format="1">
  <advance width="948"/>
  <unicode hex="00A9"/>
  <outline>
    <contour>
      <point x="115" y="321" type="curve"/>
      <point x="115" y="508"/>
      <point x="276" y="604"/>
      <point x="478" y="604" type="curve"/>
      <point x="675" y="604"/>
      <point x="832" y="505"/>
      <point x="832" y="319" type="curve"/>
      <point x="832" y="139"/>
      <point x="679" y="40"/>
      <point x="486" y="40" type="curve"/>
      <point x="283" y="40"/>
      <point x="115" y="132"/>
      <point x="115" y="321" type="curve"/>
      <point x="62" y="321"/>
      <point x="115" y="321"/>
      <point x="62" y="321" type="curve"/>
      <point x="62" y="107"/>
      <point x="251" y="-1"/>
      <point x="484" y="-1" type="curve"/>
      <point x="708" y="-1"/>
      <point x="884" y="112"/>
      <point x="884" y="321" type="curve"/>
      <point x="884" y="532"/>
      <point x="704" y="645"/>
      <point x="478" y="645" type="curve"/>
      <point x="248" y="645"/>
      <point x="62" y="535"/>
      <point x="62" y="321" type="curve"/>
      <point x="115" y="321"/>
      <point x="62" y="321"/>
    </contour>
    <contour>
      <point x="638" y="463" type="curve"/>
      <point x="590" y="489"/>
      <point x="544" y="501"/>
      <point x="485" y="501" type="curve"/>
      <point x="357" y="501"/>
      <point x="265" y="440"/>
      <point x="265" y="320" type="curve"/>
      <point x="265" y="205"/>
      <point x="348" y="144"/>
      <point x="469" y="144" type="curve"/>
      <point x="540" y="144"/>
      <point x="591" y="154"/>
      <point x="650" y="190" type="curve"/>
      <point x="624" y="223"/>
      <point x="650" y="190"/>
      <point x="624" y="223" type="curve"/>
      <point x="571" y="193"/>
      <point x="528" y="184"/>
      <point x="471" y="184" type="curve"/>
      <point x="379" y="184"/>
      <point x="317" y="234"/>
      <point x="317" y="322" type="curve"/>
      <point x="317" y="413"/>
      <point x="385" y="460"/>
      <point x="483" y="460" type="curve"/>
      <point x="528" y="460"/>
      <point x="564" y="453"/>
      <point x="616" y="431" type="curve"/>
      <point x="638" y="464"/>
      <point x="616" y="431"/>
    </contour>
  </outline>
</glyph>
<glyph name="ordfeminine" format="1">
  <advance width="475"/>
  <unicode hex="00AA"/>
  <outline>
    <contour>
      <point x="394" y="426" type="curve"/>
      <point x="394" y="517"/>
      <point x="394" y="586"/>
      <point x="394" y="677" type="curve"/>
      <point x="394" y="754"/>
      <point x="322" y="771"/>
      <point x="236" y="771" type="curve"/>
      <point x="171" y="771"/>
      <point x="115" y="750"/>
      <point x="76" y="720" type="curve"/>
      <point x="90" y="696"/>
      <point x="82" y="711"/>
      <point x="96" y="687" type="curve"/>
      <point x="126" y="711"/>
      <point x="174" y="733"/>
      <point x="230" y="733" type="curve"/>
      <point x="292" y="733"/>
      <point x="346" y="722"/>
      <point x="346" y="667" type="curve"/>
      <point x="346" y="580"/>
      <point x="346" y="513"/>
      <point x="346" y="426" type="curve"/>
      <point x="383" y="426"/>
      <point x="358" y="426"/>
    </contour>
    <contour>
      <point x="369" y="639" type="curve"/>
      <point x="305" y="632"/>
      <point x="262" y="631"/>
      <point x="198" y="625" type="curve"/>
      <point x="120" y="617"/>
      <point x="60" y="592"/>
      <point x="60" y="520" type="curve"/>
      <point x="60" y="449"/>
      <point x="119" y="420"/>
      <point x="199" y="420" type="curve"/>
      <point x="280" y="420"/>
      <point x="333" y="462"/>
      <point x="381" y="522" type="curve"/>
      <point x="364" y="536"/>
      <point x="375" y="528"/>
      <point x="358" y="542" type="curve"/>
      <point x="320" y="495"/>
      <point x="273" y="457"/>
      <point x="207" y="457" type="curve"/>
      <point x="151" y="457"/>
      <point x="107" y="473"/>
      <point x="107" y="522" type="curve"/>
      <point x="107" y="568"/>
      <point x="146" y="585"/>
      <point x="196" y="590" type="curve"/>
      <point x="261" y="597"/>
      <point x="305" y="599"/>
      <point x="371" y="606" type="curve"/>
      <point x="369" y="630"/>
      <point x="370" y="615"/>
    </contour>
  </outline>
</glyph>
<glyph name="guillemotleft" format="1">
  <advance width="694"/>
  <unicode hex="00AB"/>
  <outline>
    <contour>
      <point x="327" y="421" type="curve"/>
      <point x="307" y="412"/>
      <point x="67" y="316"/>
      <point x="47" y="306" type="curve"/>
      <point x="47" y="253"/>
      <point x="47" y="306"/>
      <point x="47" y="253" type="curve"/>
      <point x="67" y="263"/>
      <point x="307" y="359"/>
      <point x="327" y="369" type="curve"/>
      <point x="327" y="421"/>
      <point x="327" y="369"/>
    </contour>
    <contour>
      <point x="327" y="191" type="curve"/>
      <point x="307" y="201"/>
      <point x="67" y="296"/>
      <point x="47" y="306" type="curve"/>
      <point x="47" y="253"/>
      <point x="47" y="306"/>
      <point x="47" y="253" type="curve"/>
      <point x="67" y="243"/>
      <point x="307" y="148"/>
      <point x="327" y="138" type="curve"/>
      <point x="327" y="191"/>
      <point x="327" y="139"/>
    </contour>
    <contour>
      <point x="619" y="421" type="curve"/>
      <point x="599" y="412"/>
      <point x="359" y="316"/>
      <point x="339" y="306" type="curve"/>
      <point x="339" y="253"/>
      <point x="339" y="306"/>
      <point x="339" y="253" type="curve"/>
      <point x="359" y="263"/>
      <point x="599" y="359"/>
      <point x="619" y="369" type="curve"/>
      <point x="619" y="421"/>
      <point x="619" y="369"/>
    </contour>
    <contour>
      <point x="619" y="191" type="curve"/>
      <point x="599" y="201"/>
      <point x="359" y="296"/>
      <point x="339" y="306" type="curve"/>
      <point x="339" y="253"/>
      <point x="339" y="306"/>
      <point x="339" y="253" type="curve"/>
      <point x="359" y="243"/>
      <point x="599" y="148"/>
      <point x="619" y="138" type="curve"/>
      <point x="619" y="191"/>
      <point x="619" y="139"/>
    </contour>
  </outline>
</glyph>
<glyph name="logicalnot" format="1">
  <advance width="778"/>
  <unicode hex="00AC"/>
  <outline>
    <contour>
      <point x="83" y="284" type="curve"/>
      <point x="692" y="284" type="line"/>
      <point x="692" y="337"/>
      <point x="692" y="284"/>
      <point x="692" y="337" type="curve"/>
      <point x="83" y="337" type="line"/>
      <point x="83" y="284"/>
      <point x="83" y="337"/>
    </contour>
    <contour>
      <point x="692" y="149" type="curve"/>
      <point x="692" y="337" type="line"/>
      <point x="630" y="337"/>
      <point x="695" y="337"/>
      <point x="633" y="337" type="curve"/>
      <point x="633" y="149" type="line"/>
      <point x="695" y="149"/>
      <point x="630" y="149"/>
    </contour>
  </outline>
</glyph>
<glyph name="registered" format="1">
  <advance width="945"/>
  <unicode hex="00AE"/>
  <outline>
    <contour>
      <point x="113" y="321" type="curve"/>
      <point x="113" y="511"/>
      <point x="273" y="607"/>
      <point x="477" y="607" type="curve"/>
      <point x="677" y="607"/>
      <point x="832" y="508"/>
      <point x="832" y="319" type="curve"/>
      <point x="832" y="135"/>
      <point x="681" y="37"/>
      <point x="485" y="37" type="curve"/>
      <point x="279" y="37"/>
      <point x="113" y="129"/>
      <point x="113" y="321" type="curve"/>
      <point x="85" y="321"/>
      <point x="93" y="321"/>
      <point x="64" y="321" type="curve"/>
      <point x="64" y="104"/>
      <point x="248" y="-1"/>
      <point x="483" y="-1" type="curve"/>
      <point x="709" y="-1"/>
      <point x="881" y="109"/>
      <point x="881" y="321" type="curve"/>
      <point x="881" y="535"/>
      <point x="705" y="645"/>
      <point x="477" y="645" type="curve"/>
      <point x="246" y="645"/>
      <point x="64" y="537"/>
      <point x="64" y="321" type="curve"/>
      <point x="93" y="321"/>
      <point x="85" y="321"/>
    </contour>
    <contour>
      <point x="468" y="311" type="curve"/>
      <point x="482" y="293"/>
      <point x="572" y="165"/>
      <point x="586" y="146" type="curve"/>
      <point x="616" y="146"/>
      <point x="605" y="146"/>
      <point x="641" y="146" type="curve"/>
      <point x="628" y="166"/>
      <point x="539" y="291"/>
      <point x="526" y="310" type="curve"/>
      <point x="466" y="310"/>
      <point x="528" y="311"/>
    </contour>
    <contour>
      <point x="404" y="146" type="curve"/>
      <point x="404" y="258"/>
      <point x="404" y="385"/>
      <point x="404" y="496" type="curve"/>
      <point x="374" y="496"/>
      <point x="383" y="496"/>
      <point x="352" y="496" type="curve"/>
      <point x="352" y="385"/>
      <point x="352" y="258"/>
      <point x="352" y="146" type="curve"/>
      <point x="385" y="146"/>
      <point x="374" y="146"/>
    </contour>
    <contour>
      <point x="380" y="287" type="curve"/>
      <point x="406" y="287"/>
      <point x="433" y="287"/>
      <point x="459" y="287" type="curve"/>
      <point x="549" y="287"/>
      <point x="618" y="308"/>
      <point x="618" y="392" type="curve"/>
      <point x="618" y="466"/>
      <point x="555" y="496"/>
      <point x="473" y="496" type="curve"/>
      <point x="450" y="496"/>
      <point x="424" y="496"/>
      <point x="401" y="496" type="curve"/>
      <point x="352" y="456"/>
      <point x="404" y="496"/>
      <point x="352" y="455" type="curve"/>
      <point x="389" y="455"/>
      <point x="426" y="455"/>
      <point x="463" y="455" type="curve"/>
      <point x="520" y="455"/>
      <point x="566" y="440"/>
      <point x="566" y="389" type="curve"/>
      <point x="566" y="338"/>
      <point x="522" y="328"/>
      <point x="466" y="328" type="curve"/>
      <point x="438" y="328"/>
      <point x="409" y="328"/>
      <point x="380" y="328" type="curve"/>
      <point x="380" y="287"/>
      <point x="380" y="328"/>
    </contour>
  </outline>
</glyph>
<glyph name="macron" format="1">
  <advance width="393"/>
  <unicode hex="00AF"/>
  <outline>
    <contour>
      <point x="323" y="674" type="curve"/>
      <point x="227" y="674"/>
      <point x="132" y="674"/>
      <point x="37" y="674" type="curve"/>
      <point x="37" y="626"/>
      <point x="37" y="674"/>
      <point x="37" y="626" type="curve"/>
      <point x="132" y="626"/>
      <point x="227" y="626"/>
      <point x="323" y="626" type="curve"/>
      <point x="323" y="674"/>
      <point x="323" y="626"/>
    </contour>
    <contour>
      <point x="184" y="626" type="move" name="_top"/>
    </contour>
  </outline>
</glyph>
<glyph name="degree" format="1">
  <advance width="562"/>
  <unicode hex="00B0"/>
  <outline>
    <contour>
      <point x="501" y="450" type="curve"/>
      <point x="501" y="580"/>
      <point x="414" y="658"/>
      <point x="281" y="658" type="curve"/>
      <point x="149" y="658"/>
      <point x="63" y="581"/>
      <point x="63" y="452" type="curve"/>
      <point x="116" y="452"/>
      <point x="65" y="452"/>
      <point x="118" y="452" type="curve"/>
      <point x="118" y="550"/>
      <point x="179" y="611"/>
      <point x="279" y="611" type="curve"/>
      <point x="379" y="611"/>
      <point x="445" y="550"/>
      <point x="445" y="450" type="curve"/>
      <point x="445" y="347"/>
      <point x="383" y="282"/>
      <point x="282" y="282" type="curve"/>
      <point x="180" y="282"/>
      <point x="118" y="349"/>
      <point x="118" y="452" type="curve"/>
      <point x="65" y="452"/>
      <point x="116" y="452"/>
      <point x="63" y="452" type="curve"/>
      <point x="63" y="319"/>
      <point x="146" y="235"/>
      <point x="280" y="235" type="curve"/>
      <point x="415" y="235"/>
      <point x="501" y="317"/>
    </contour>
  </outline>
</glyph>
<glyph name="plusminus" format="1">
  <advance width="735"/>
  <unicode hex="00B1"/>
  <outline>
    <contour>
      <point x="64" y="19" type="line"/>
      <point x="671" y="19" type="line"/>
      <point x="671" y="72" type="line"/>
      <point x="64" y="72" type="line"/>
    </contour>
    <contour>
      <point x="64" y="284" type="curve"/>
      <point x="671" y="284" type="line"/>
      <point x="671" y="337"/>
      <point x="671" y="284"/>
      <point x="671" y="337" type="curve"/>
      <point x="64" y="337" type="line"/>
      <point x="64" y="284"/>
      <point x="64" y="337"/>
    </contour>
    <contour>
      <point x="395" y="19" type="curve"/>
      <point x="395" y="588" type="line"/>
      <point x="333" y="588"/>
      <point x="398" y="588"/>
      <point x="336" y="588" type="curve"/>
      <point x="336" y="19" type="line"/>
      <point x="398" y="19"/>
      <point x="333" y="19"/>
    </contour>
  </outline>
</glyph>
<glyph name="twosuperior" format="1">
  <advance width="549"/>
  <unicode hex="00B2"/>
  <outline>
    <contour>
      <point x="58" y="286" type="curve"/>
      <point x="217" y="286"/>
      <point x="349" y="286"/>
      <point x="482" y="286" type="curve"/>
      <point x="482" y="313"/>
      <point x="482" y="311"/>
      <point x="482" y="334" type="curve"/>
      <point x="346" y="334"/>
      <point x="195" y="334"/>
      <point x="58" y="334" type="curve"/>
      <point x="58" y="287"/>
      <point x="58" y="334"/>
    </contour>
    <contour>
      <point x="129" y="597" type="curve"/>
      <point x="167" y="643"/>
      <point x="210" y="664"/>
      <point x="272" y="664" type="curve"/>
      <point x="340" y="664"/>
      <point x="394" y="641"/>
      <point x="394" y="583" type="curve"/>
      <point x="394" y="529"/>
      <point x="350" y="509"/>
      <point x="305" y="479" type="curve"/>
      <point x="222" y="430"/>
      <point x="140" y="382"/>
      <point x="58" y="334" type="curve"/>
      <point x="66" y="288"/>
      <point x="60" y="334"/>
      <point x="67" y="288" type="curve"/>
      <point x="165" y="343"/>
      <point x="253" y="392"/>
      <point x="338" y="442" type="curve"/>
      <point x="399" y="484"/>
      <point x="454" y="513"/>
      <point x="454" y="585" type="curve"/>
      <point x="454" y="675"/>
      <point x="377" y="711"/>
      <point x="278" y="711" type="curve"/>
      <point x="194" y="711"/>
      <point x="131" y="687"/>
      <point x="86" y="624" type="curve"/>
      <point x="129" y="597"/>
      <point x="86" y="624"/>
    </contour>
    <contour>
      <point x="283" y="710" type="move" name="_top"/>
    </contour>
    <contour>
      <point x="266" y="286" type="move" name="_bottom"/>
    </contour>
  </outline>
</glyph>
<glyph name="threesuperior" format="1">
  <advance width="484"/>
  <unicode hex="00B3"/>
  <outline>
    <contour>
      <point x="96" y="622" type="curve"/>
      <point x="134" y="650"/>
      <point x="176" y="665"/>
      <point x="219" y="665" type="curve"/>
      <point x="288" y="665"/>
      <point x="344" y="652"/>
      <point x="344" y="594" type="curve"/>
      <point x="344" y="523"/>
      <point x="251" y="524"/>
      <point x="164" y="520" type="curve"/>
      <point x="164" y="480"/>
      <point x="164" y="520"/>
      <point x="164" y="480" type="curve"/>
      <point x="290" y="482"/>
      <point x="404" y="490"/>
      <point x="404" y="597" type="curve"/>
      <point x="404" y="685"/>
      <point x="325" y="710"/>
      <point x="226" y="710" type="curve"/>
      <point x="166" y="710"/>
      <point x="110" y="690"/>
      <point x="67" y="655" type="curve"/>
      <point x="96" y="622"/>
      <point x="67" y="655"/>
    </contour>
    <contour>
      <point x="60" y="316" type="curve"/>
      <point x="109" y="293"/>
      <point x="156" y="281"/>
      <point x="210" y="281" type="curve"/>
      <point x="329" y="277"/>
      <point x="427" y="300"/>
      <point x="424" y="403" type="curve"/>
      <point x="424" y="519"/>
      <point x="297" y="510"/>
      <point x="164" y="512" type="curve"/>
      <point x="164" y="477"/>
      <point x="164" y="512"/>
      <point x="164" y="477" type="curve"/>
      <point x="267" y="474"/>
      <point x="363" y="478"/>
      <point x="363" y="402" type="curve"/>
      <point x="363" y="335"/>
      <point x="297" y="323"/>
      <point x="215" y="325" type="curve"/>
      <point x="172" y="325"/>
      <point x="131" y="333"/>
      <point x="86" y="352" type="curve"/>
      <point x="60" y="316"/>
      <point x="86" y="352"/>
    </contour>
    <contour>
      <point x="237" y="710" type="move" name="_top"/>
    </contour>
    <contour>
      <point x="227" y="280" type="move" name="_bottom"/>
    </contour>
  </outline>
</glyph>
<glyph name="paragraph" format="1">
  <advance width="865"/>
  <unicode hex="00B6"/>
  <outline>
    <contour>
      <point x="534" y="673" type="curve"/>
      <point x="725" y="673"/>
      <point x="534" y="673"/>
      <point x="725" y="673" type="curve"/>
      <point x="725" y="722"/>
      <point x="725" y="673"/>
      <point x="725" y="722" type="curve"/>
      <point x="661" y="722"/>
      <point x="597" y="722"/>
      <point x="534" y="722" type="curve"/>
      <point x="534" y="673"/>
      <point x="534" y="722"/>
    </contour>
    <contour>
      <point x="522" y="359" type="curve"/>
      <point x="456" y="333"/>
      <point x="404" y="318"/>
      <point x="332" y="318" type="curve"/>
      <point x="205" y="318"/>
      <point x="104" y="370"/>
      <point x="104" y="487" type="curve"/>
      <point x="104" y="621"/>
      <point x="224" y="673"/>
      <point x="373" y="673" type="curve"/>
      <point x="425" y="673"/>
      <point x="478" y="673"/>
      <point x="530" y="673" type="curve"/>
      <point x="530" y="722"/>
      <point x="530" y="673"/>
      <point x="530" y="722" type="curve"/>
      <point x="475" y="722"/>
      <point x="420" y="722"/>
      <point x="365" y="722" type="curve"/>
      <point x="185" y="722"/>
      <point x="41" y="652"/>
      <point x="41" y="490" type="curve"/>
      <point x="41" y="338"/>
      <point x="172" y="272"/>
      <point x="338" y="270" type="curve"/>
      <point x="412" y="270"/>
      <point x="474" y="289"/>
      <point x="542" y="315" type="curve"/>
      <point x="522" y="359"/>
      <point x="542" y="315"/>
    </contour>
    <contour>
      <point x="566" y="0" type="curve"/>
      <point x="566" y="241"/>
      <point x="566" y="481"/>
      <point x="566" y="722" type="curve"/>
      <point x="504" y="722"/>
      <point x="566" y="722"/>
      <point x="504" y="722" type="curve"/>
      <point x="504" y="481"/>
      <point x="504" y="241"/>
      <point x="504" y="0" type="curve"/>
      <point x="566" y="0"/>
      <point x="504" y="0"/>
    </contour>
    <contour>
      <point x="776" y="0" type="curve"/>
      <point x="776" y="241"/>
      <point x="776" y="481"/>
      <point x="776" y="722" type="curve"/>
      <point x="713" y="722"/>
      <point x="776" y="722"/>
      <point x="713" y="722" type="curve"/>
      <point x="713" y="481"/>
      <point x="713" y="241"/>
      <point x="713" y="0" type="curve"/>
      <point x="776" y="0"/>
      <point x="713" y="0"/>
    </contour>
  </outline>
</glyph>
<glyph name="periodcentered" format="1">
  <advance width="223"/>
  <unicode hex="00B7"/>
  <outline>
    <contour>
      <point x="151" y="440" type="curve"/>
      <point x="151" y="462"/>
      <point x="134" y="474"/>
      <point x="110" y="474" type="curve"/>
      <point x="87" y="474"/>
      <point x="72" y="462"/>
      <point x="72" y="440" type="curve"/>
      <point x="136" y="440"/>
      <point x="87" y="440"/>
      <point x="151" y="440" type="curve"/>
      <point x="151" y="417"/>
      <point x="134" y="406"/>
      <point x="110" y="406" type="curve"/>
      <point x="87" y="406"/>
      <point x="72" y="418"/>
      <point x="72" y="440" type="curve"/>
      <point x="136" y="440"/>
      <point x="87" y="440"/>
    </contour>
  </outline>
</glyph>
<glyph name="cedilla" format="1">
  <advance width="358"/>
  <unicode hex="00B8"/>
  <outline>
    <contour>
      <point x="190" y="63" type="curve"/>
      <point x="171" y="38"/>
      <point x="135" y="-10"/>
      <point x="117" y="-36" type="curve"/>
      <point x="159" y="-74"/>
      <point x="117" y="-36"/>
      <point x="159" y="-74" type="curve"/>
      <point x="179" y="-47"/>
      <point x="217" y="3"/>
      <point x="237" y="31" type="curve"/>
      <point x="190" y="63"/>
      <point x="237" y="31"/>
    </contour>
    <contour>
      <point x="159" y="-75" type="curve"/>
      <point x="175" y="-66"/>
      <point x="188" y="-64"/>
      <point x="207" y="-64" type="curve"/>
      <point x="239" y="-64"/>
      <point x="262" y="-78"/>
      <point x="262" y="-108" type="curve"/>
      <point x="262" y="-142"/>
      <point x="230" y="-152"/>
      <point x="191" y="-152" type="curve"/>
      <point x="159" y="-152"/>
      <point x="134" y="-148"/>
      <point x="102" y="-133" type="curve"/>
      <point x="83" y="-170"/>
      <point x="102" y="-133"/>
      <point x="83" y="-170" type="curve"/>
      <point x="119" y="-186"/>
      <point x="148" y="-193"/>
      <point x="188" y="-193" type="curve"/>
      <point x="262" y="-193"/>
      <point x="319" y="-172"/>
      <point x="319" y="-106" type="curve"/>
      <point x="319" y="-47"/>
      <point x="273" y="-17"/>
      <point x="211" y="-17" type="curve"/>
      <point x="175" y="-17"/>
      <point x="151" y="-24"/>
      <point x="118" y="-36" type="curve"/>
      <point x="159" y="-75"/>
      <point x="118" y="-36"/>
    </contour>
    <contour>
      <point x="228" y="31" type="move" name="_bottom"/>
    </contour>
  </outline>
</glyph>
<glyph name="onesuperior" format="1">
  <advance width="332"/>
  <unicode hex="00B9"/>
  <outline>
    <contour>
      <point x="53" y="559" type="line"/>
      <point x="246" y="697" type="line"/>
      <point x="186" y="704" type="line"/>
      <point x="26" y="595" type="line"/>
    </contour>
    <contour>
      <point x="246" y="286" type="curve"/>
      <point x="246" y="704" type="line"/>
      <point x="186" y="704" type="line"/>
      <point x="186" y="286" type="line"/>
      <point x="233" y="286"/>
      <point x="209" y="286"/>
    </contour>
    <contour>
      <point x="213" y="702" type="move" name="_top"/>
    </contour>
    <contour>
      <point x="216" y="287" type="move" name="_bottom"/>
    </contour>
  </outline>
</glyph>
<glyph name="ordmasculine" format="1">
  <advance width="509"/>
  <unicode hex="00BA"/>
  <outline>
    <contour>
      <point x="102" y="601" type="curve"/>
      <point x="102" y="688"/>
      <point x="162" y="737"/>
      <point x="253" y="737" type="curve"/>
      <point x="345" y="737"/>
      <point x="406" y="687"/>
      <point x="406" y="600" type="curve"/>
      <point x="406" y="510"/>
      <point x="348" y="456"/>
      <point x="259" y="456" type="curve"/>
      <point x="164" y="456"/>
      <point x="102" y="509"/>
      <point x="102" y="601" type="curve"/>
      <point x="66" y="601"/>
      <point x="90" y="601"/>
      <point x="54" y="601" type="curve"/>
      <point x="54" y="483"/>
      <point x="136" y="418"/>
      <point x="257" y="418" type="curve"/>
      <point x="375" y="418"/>
      <point x="455" y="483"/>
      <point x="455" y="600" type="curve"/>
      <point x="455" y="712"/>
      <point x="374" y="775"/>
      <point x="255" y="775" type="curve"/>
      <point x="136" y="775"/>
      <point x="54" y="713"/>
      <point x="54" y="601" type="curve"/>
      <point x="90" y="601"/>
      <point x="66" y="601"/>
    </contour>
  </outline>
</glyph>
<glyph name="guillemotright" format="1">
  <advance width="706"/>
  <unicode hex="00BB"/>
  <outline>
    <contour>
      <point x="375" y="421" type="curve"/>
      <point x="395" y="412"/>
      <point x="635" y="316"/>
      <point x="655" y="306" type="curve"/>
      <point x="655" y="253"/>
      <point x="655" y="306"/>
      <point x="655" y="253" type="curve"/>
      <point x="635" y="263"/>
      <point x="395" y="359"/>
      <point x="375" y="369" type="curve"/>
      <point x="375" y="421"/>
      <point x="375" y="369"/>
    </contour>
    <contour>
      <point x="375" y="191" type="curve"/>
      <point x="395" y="201"/>
      <point x="635" y="296"/>
      <point x="655" y="306" type="curve"/>
      <point x="655" y="253"/>
      <point x="655" y="306"/>
      <point x="655" y="253" type="curve"/>
      <point x="635" y="243"/>
      <point x="395" y="148"/>
      <point x="375" y="138" type="curve"/>
      <point x="375" y="191"/>
      <point x="375" y="139"/>
    </contour>
    <contour>
      <point x="83" y="421" type="curve"/>
      <point x="103" y="412"/>
      <point x="343" y="316"/>
      <point x="363" y="306" type="curve"/>
      <point x="363" y="253"/>
      <point x="363" y="306"/>
      <point x="363" y="253" type="curve"/>
      <point x="343" y="263"/>
      <point x="103" y="359"/>
      <point x="83" y="369" type="curve"/>
      <point x="83" y="421"/>
      <point x="83" y="369"/>
    </contour>
    <contour>
      <point x="83" y="191" type="curve"/>
      <point x="103" y="201"/>
      <point x="343" y="296"/>
      <point x="363" y="306" type="curve"/>
      <point x="363" y="253"/>
      <point x="363" y="306"/>
      <point x="363" y="253" type="curve"/>
      <point x="343" y="243"/>
      <point x="103" y="148"/>
      <point x="83" y="138" type="curve"/>
      <point x="83" y="191"/>
      <point x="83" y="139"/>
    </contour>
  </outline>
</glyph>
<glyph name="onequarter" format="1">
  <advance width="1208"/>
  <unicode hex="00BC"/>
  <outline>
    <contour>
      <point x="380" y="-76" type="line"/>
      <point x="923" y="742" type="line"/>
      <point x="862" y="742" type="line"/>
      <point x="320" y="-76" type="line"/>
    </contour>
    <contour>
      <point x="58" y="600" type="line"/>
      <point x="251" y="738" type="line"/>
      <point x="191" y="745" type="line"/>
      <point x="31" y="636" type="line"/>
    </contour>
    <contour>
      <point x="251" y="327" type="curve"/>
      <point x="251" y="745" type="line"/>
      <point x="191" y="745" type="line"/>
      <point x="191" y="327" type="line"/>
      <point x="238" y="327"/>
      <point x="214" y="327"/>
    </contour>
    <contour>
      <point x="1172" y="84" type="line"/>
      <point x="714" y="84" type="line"/>
      <point x="714" y="39" type="line"/>
      <point x="1172" y="39" type="line"/>
    </contour>
    <contour>
      <point x="734" y="44" type="line"/>
      <point x="1044" y="345" type="line"/>
      <point x="994" y="356" type="line"/>
      <point x="714" y="84" type="line"/>
    </contour>
    <contour>
      <point x="1054" y="-86" type="line"/>
      <point x="1054" y="356" type="line"/>
      <point x="994" y="356" type="line"/>
      <point x="994" y="-86" type="line"/>
    </contour>
  </outline>
</glyph>
<glyph name="onehalf" format="1">
  <advance width="1269"/>
  <unicode hex="00BD"/>
  <outline>
    <contour>
      <point x="382" y="-76" type="line"/>
      <point x="925" y="742" type="line"/>
      <point x="864" y="742" type="line"/>
      <point x="322" y="-76" type="line"/>
    </contour>
    <contour>
      <point x="58" y="600" type="line"/>
      <point x="251" y="738" type="line"/>
      <point x="191" y="745" type="line"/>
      <point x="31" y="636" type="line"/>
    </contour>
    <contour>
      <point x="251" y="327" type="curve"/>
      <point x="251" y="745" type="line"/>
      <point x="191" y="745" type="line"/>
      <point x="191" y="327" type="line"/>
      <point x="238" y="327"/>
      <point x="214" y="327"/>
    </contour>
    <contour>
      <point x="803" y="-80" type="curve"/>
      <point x="962" y="-80"/>
      <point x="1094" y="-80"/>
      <point x="1227" y="-80" type="curve"/>
      <point x="1227" y="-54"/>
      <point x="1227" y="-56"/>
      <point x="1227" y="-33" type="curve"/>
      <point x="1090" y="-33"/>
      <point x="940" y="-33"/>
      <point x="803" y="-33" type="curve"/>
      <point x="803" y="-80"/>
      <point x="803" y="-33"/>
    </contour>
    <contour>
      <point x="873" y="230" type="curve"/>
      <point x="912" y="276"/>
      <point x="955" y="297"/>
      <point x="1017" y="297" type="curve"/>
      <point x="1085" y="297"/>
      <point x="1138" y="275"/>
      <point x="1138" y="217" type="curve"/>
      <point x="1138" y="163"/>
      <point x="1095" y="143"/>
      <point x="1050" y="112" type="curve"/>
      <point x="967" y="64"/>
      <point x="885" y="15"/>
      <point x="803" y="-33" type="curve"/>
      <point x="810" y="-79"/>
      <point x="804" y="-33"/>
      <point x="812" y="-79" type="curve"/>
      <point x="910" y="-23"/>
      <point x="998" y="25"/>
      <point x="1083" y="75" type="curve"/>
      <point x="1144" y="117"/>
      <point x="1199" y="147"/>
      <point x="1199" y="218" type="curve"/>
      <point x="1199" y="308"/>
      <point x="1122" y="345"/>
      <point x="1023" y="345" type="curve"/>
      <point x="939" y="345"/>
      <point x="876" y="321"/>
      <point x="831" y="258" type="curve"/>
      <point x="873" y="230"/>
      <point x="831" y="258"/>
    </contour>
  </outline>
</glyph>
<glyph name="threequarters" format="1">
  <advance width="1209"/>
  <unicode hex="00BE"/>
  <outline>
    <contour>
      <point x="389" y="-76" type="line"/>
      <point x="931" y="742" type="line"/>
      <point x="871" y="742" type="line"/>
      <point x="328" y="-76" type="line"/>
    </contour>
    <contour>
      <point x="83" y="654" type="curve"/>
      <point x="121" y="682"/>
      <point x="164" y="697"/>
      <point x="207" y="697" type="curve"/>
      <point x="275" y="697"/>
      <point x="331" y="684"/>
      <point x="331" y="626" type="curve"/>
      <point x="331" y="555"/>
      <point x="239" y="556"/>
      <point x="152" y="552" type="curve"/>
      <point x="152" y="513"/>
      <point x="152" y="552"/>
      <point x="152" y="513" type="curve"/>
      <point x="277" y="514"/>
      <point x="392" y="522"/>
      <point x="392" y="630" type="curve"/>
      <point x="392" y="718"/>
      <point x="312" y="742"/>
      <point x="214" y="742" type="curve"/>
      <point x="153" y="742"/>
      <point x="97" y="723"/>
      <point x="54" y="687" type="curve"/>
      <point x="83" y="654"/>
      <point x="54" y="687"/>
    </contour>
    <contour>
      <point x="48" y="348" type="curve"/>
      <point x="96" y="325"/>
      <point x="144" y="313"/>
      <point x="197" y="313" type="curve"/>
      <point x="316" y="310"/>
      <point x="415" y="333"/>
      <point x="412" y="435" type="curve"/>
      <point x="412" y="552"/>
      <point x="285" y="542"/>
      <point x="152" y="544" type="curve"/>
      <point x="152" y="509"/>
      <point x="152" y="544"/>
      <point x="152" y="509" type="curve"/>
      <point x="254" y="506"/>
      <point x="351" y="510"/>
      <point x="351" y="434" type="curve"/>
      <point x="351" y="367"/>
      <point x="284" y="356"/>
      <point x="203" y="357" type="curve"/>
      <point x="159" y="357"/>
      <point x="118" y="365"/>
      <point x="73" y="384" type="curve"/>
      <point x="48" y="348"/>
      <point x="73" y="384"/>
    </contour>
    <contour>
      <point x="1175" y="84" type="line"/>
      <point x="718" y="84" type="line"/>
      <point x="718" y="39" type="line"/>
      <point x="1175" y="39" type="line"/>
    </contour>
    <contour>
      <point x="737" y="44" type="line"/>
      <point x="1048" y="345" type="line"/>
      <point x="997" y="356" type="line"/>
      <point x="718" y="84" type="line"/>
    </contour>
    <contour>
      <point x="1058" y="-86" type="line"/>
      <point x="1058" y="356" type="line"/>
      <point x="997" y="356" type="line"/>
      <point x="997" y="-86" type="line"/>
    </contour>
  </outline>
</glyph>
<glyph name="questiondown" format="1">
  <advance width="575"/>
  <unicode hex="00BF"/>
  <outline>
    <contour>
      <point x="361" y="359" type="curve"/>
      <point x="361" y="396"/>
      <point x="361" y="448"/>
      <point x="361" y="485" type="curve"/>
      <point x="299" y="485"/>
      <point x="361" y="485"/>
      <point x="299" y="485" type="curve"/>
      <point x="299" y="448"/>
      <point x="299" y="396"/>
      <point x="299" y="359" type="curve"/>
      <point x="361" y="359"/>
      <point x="299" y="359"/>
    </contour>
    <contour>
      <point x="490" y="97" type="line"/>
      <point x="449" y="62"/>
      <point x="387" y="34"/>
      <point x="316" y="34" type="curve"/>
      <point x="203" y="34"/>
      <point x="113" y="81"/>
      <point x="113" y="188" type="curve"/>
      <point x="113" y="306"/>
      <point x="219" y="359"/>
      <point x="356" y="359" type="curve"/>
      <point x="356" y="378"/>
      <point x="356" y="389"/>
      <point x="356" y="408" type="curve"/>
      <point x="185" y="408"/>
      <point x="54" y="337"/>
      <point x="54" y="188" type="curve"/>
      <point x="54" y="50"/>
      <point x="166" y="-16"/>
      <point x="313" y="-16" type="curve"/>
      <point x="398" y="-16"/>
      <point x="468" y="13"/>
      <point x="523" y="59" type="curve"/>
    </contour>
    <contour>
      <point x="292" y="692" type="curve"/>
      <point x="292" y="671"/>
      <point x="308" y="661"/>
      <point x="329" y="661" type="curve"/>
      <point x="351" y="661"/>
      <point x="365" y="673"/>
      <point x="365" y="692" type="curve"/>
      <point x="292" y="692"/>
      <point x="365" y="692"/>
      <point x="292" y="692" type="curve"/>
      <point x="292" y="714"/>
      <point x="308" y="723"/>
      <point x="330" y="723" type="curve"/>
      <point x="352" y="723"/>
      <point x="365" y="712"/>
      <point x="365" y="692" type="curve"/>
      <point x="292" y="692"/>
      <point x="365" y="692"/>
    </contour>
  </outline>
</glyph>
<glyph name="Atilde" format="1">
  <advance width="817"/>
  <unicode hex="00C3"/>
  <outline>
    <contour>
      <point x="628" y="288" type="curve"/>
      <point x="483" y="288"/>
      <point x="338" y="288"/>
      <point x="194" y="288" type="curve"/>
      <point x="168" y="237"/>
      <point x="194" y="288"/>
      <point x="168" y="237" type="curve"/>
      <point x="328" y="237"/>
      <point x="488" y="237"/>
      <point x="648" y="237" type="curve"/>
      <point x="628" y="288"/>
      <point x="648" y="237"/>
    </contour>
    <contour>
      <point x="796" y="0" type="curve"/>
      <point x="681" y="241"/>
      <point x="564" y="481"/>
      <point x="449" y="722" type="curve"/>
      <point x="392" y="722"/>
      <point x="449" y="722"/>
      <point x="392" y="722" type="curve"/>
      <point x="506" y="482"/>
      <point x="617" y="240"/>
      <point x="730" y="0" type="curve"/>
      <point x="796" y="0"/>
      <point x="730" y="0"/>
    </contour>
    <contour>
      <point x="70" y="0" type="curve"/>
      <point x="197" y="240"/>
      <point x="320" y="482"/>
      <point x="447" y="722" type="curve"/>
      <point x="390" y="722"/>
      <point x="447" y="722"/>
      <point x="390" y="722" type="curve"/>
      <point x="262" y="481"/>
      <point x="131" y="241"/>
      <point x="3" y="0" type="curve"/>
      <point x="70" y="0"/>
      <point x="3" y="0"/>
    </contour>
    <contour>
      <point x="621" y="952" type="curve"/>
      <point x="605" y="901"/>
      <point x="583" y="858"/>
      <point x="535" y="858" type="curve"/>
      <point x="491" y="858"/>
      <point x="462" y="873"/>
      <point x="428" y="902" type="curve"/>
      <point x="389" y="936"/>
      <point x="357" y="955"/>
      <point x="306" y="955" type="curve"/>
      <point x="230" y="955"/>
      <point x="187" y="907"/>
      <point x="163" y="830" type="curve"/>
      <point x="210" y="810"/>
      <point x="164" y="830"/>
      <point x="210" y="810" type="curve"/>
      <point x="228" y="867"/>
      <point x="256" y="904"/>
      <point x="308" y="904" type="curve"/>
      <point x="348" y="904"/>
      <point x="372" y="887"/>
      <point x="402" y="861" type="curve"/>
      <point x="445" y="825"/>
      <point x="480" y="808"/>
      <point x="535" y="808" type="curve"/>
      <point x="610" y="808"/>
      <point x="646" y="860"/>
      <point x="671" y="933" type="curve"/>
      <point x="622" y="951"/>
      <point x="671" y="933"/>
    </contour>
  </outline>
</glyph>
<glyph name="Adieresis" format="1">
  <advance width="817"/>
  <unicode hex="00C4"/>
  <outline>
    <contour>
      <point x="628" y="288" type="curve"/>
      <point x="483" y="288"/>
      <point x="338" y="288"/>
      <point x="194" y="288" type="curve"/>
      <point x="168" y="237"/>
      <point x="194" y="288"/>
      <point x="168" y="237" type="curve"/>
      <point x="328" y="237"/>
      <point x="488" y="237"/>
      <point x="648" y="237" type="curve"/>
      <point x="628" y="288"/>
      <point x="648" y="237"/>
    </contour>
    <contour>
      <point x="796" y="0" type="curve"/>
      <point x="681" y="241"/>
      <point x="564" y="481"/>
      <point x="449" y="722" type="curve"/>
      <point x="392" y="722"/>
      <point x="449" y="722"/>
      <point x="392" y="722" type="curve"/>
      <point x="506" y="482"/>
      <point x="617" y="240"/>
      <point x="730" y="0" type="curve"/>
      <point x="796" y="0"/>
      <point x="730" y="0"/>
    </contour>
    <contour>
      <point x="70" y="0" type="curve"/>
      <point x="197" y="240"/>
      <point x="320" y="482"/>
      <point x="447" y="722" type="curve"/>
      <point x="390" y="722"/>
      <point x="447" y="722"/>
      <point x="390" y="722" type="curve"/>
      <point x="262" y="481"/>
      <point x="131" y="241"/>
      <point x="3" y="0" type="curve"/>
      <point x="70" y="0"/>
      <point x="3" y="0"/>
    </contour>
    <contour>
      <point x="370" y="845" type="curve"/>
      <point x="370" y="868"/>
      <point x="353" y="879"/>
      <point x="329" y="879" type="curve"/>
      <point x="306" y="879"/>
      <point x="291" y="867"/>
      <point x="291" y="845" type="curve"/>
      <point x="355" y="845"/>
      <point x="306" y="845"/>
      <point x="370" y="845" type="curve"/>
      <point x="370" y="822"/>
      <point x="353" y="811"/>
      <point x="329" y="811" type="curve"/>
      <point x="306" y="811"/>
      <point x="291" y="823"/>
      <point x="291" y="845" type="curve"/>
      <point x="355" y="845"/>
      <point x="306" y="845"/>
    </contour>
    <contour>
      <point x="548" y="845" type="curve"/>
      <point x="548" y="868"/>
      <point x="531" y="879"/>
      <point x="507" y="879" type="curve"/>
      <point x="484" y="879"/>
      <point x="468" y="867"/>
      <point x="468" y="845" type="curve"/>
      <point x="532" y="845"/>
      <point x="484" y="845"/>
      <point x="548" y="845" type="curve"/>
      <point x="548" y="822"/>
      <point x="531" y="811"/>
      <point x="507" y="811" type="curve"/>
      <point x="484" y="811"/>
      <point x="468" y="823"/>
      <point x="468" y="845" type="curve"/>
      <point x="532" y="845"/>
      <point x="484" y="845"/>
    </contour>
  </outline>
</glyph>
<glyph name="Aring" format="1">
  <advance width="817"/>
  <unicode hex="00C5"/>
  <outline>
    <contour>
      <point x="628" y="288" type="curve"/>
      <point x="483" y="288"/>
      <point x="338" y="288"/>
      <point x="194" y="288" type="curve"/>
      <point x="168" y="237"/>
      <point x="194" y="288"/>
      <point x="168" y="237" type="curve"/>
      <point x="328" y="237"/>
      <point x="488" y="237"/>
      <point x="648" y="237" type="curve"/>
      <point x="628" y="288"/>
      <point x="648" y="237"/>
    </contour>
    <contour>
      <point x="796" y="0" type="curve"/>
      <point x="681" y="241"/>
      <point x="564" y="481"/>
      <point x="449" y="722" type="curve"/>
      <point x="392" y="722"/>
      <point x="449" y="722"/>
      <point x="392" y="722" type="curve"/>
      <point x="506" y="482"/>
      <point x="617" y="240"/>
      <point x="730" y="0" type="curve"/>
      <point x="796" y="0"/>
      <point x="730" y="0"/>
    </contour>
    <contour>
      <point x="70" y="0" type="curve"/>
      <point x="197" y="240"/>
      <point x="320" y="482"/>
      <point x="447" y="722" type="curve"/>
      <point x="390" y="722"/>
      <point x="447" y="722"/>
      <point x="390" y="722" type="curve"/>
      <point x="262" y="481"/>
      <point x="131" y="241"/>
      <point x="3" y="0" type="curve"/>
      <point x="70" y="0"/>
      <point x="3" y="0"/>
    </contour>
    <contour>
      <point x="260" y="936" type="curve"/>
      <point x="260" y="851"/>
      <point x="328" y="810"/>
      <point x="419" y="810" type="curve"/>
      <point x="513" y="810"/>
      <point x="582" y="850"/>
      <point x="582" y="936" type="curve"/>
      <point x="582" y="1023"/>
      <point x="512" y="1062"/>
      <point x="416" y="1062" type="curve"/>
      <point x="326" y="1062"/>
      <point x="260" y="1021"/>
      <point x="260" y="936" type="curve"/>
      <point x="313" y="936"/>
      <point x="260" y="936"/>
      <point x="313" y="936" type="curve"/>
      <point x="313" y="993"/>
      <point x="357" y="1020"/>
      <point x="416" y="1020" type="curve"/>
      <point x="481" y="1020"/>
      <point x="528" y="996"/>
      <point x="528" y="936" type="curve"/>
      <point x="528" y="878"/>
      <point x="482" y="853"/>
      <point x="419" y="853" type="curve"/>
      <point x="358" y="853"/>
      <point x="313" y="878"/>
      <point x="313" y="936" type="curve"/>
      <point x="260" y="936"/>
      <point x="313" y="936"/>
    </contour>
  </outline>
</glyph>
<glyph name="AE" format="1">
  <advance width="1102"/>
  <unicode hex="00C6"/>
  <outline>
    <contour>
      <point x="511" y="256" type="curve"/>
      <point x="366" y="256"/>
      <point x="334" y="256"/>
      <point x="190" y="256" type="curve"/>
      <point x="164" y="205"/>
      <point x="190" y="256"/>
      <point x="164" y="205" type="curve"/>
      <point x="324" y="205"/>
      <point x="371" y="205"/>
      <point x="530" y="205" type="curve"/>
      <point x="511" y="256"/>
      <point x="530" y="205"/>
    </contour>
    <contour>
      <point x="64" y="0" type="curve"/>
      <point x="559" y="722" type="line"/>
      <point x="502" y="722"/>
      <point x="555" y="722"/>
      <point x="498" y="722" type="curve"/>
      <point x="-6" y="0" type="line"/>
      <point x="62" y="0"/>
      <point x="-4" y="0"/>
    </contour>
    <contour>
      <point x="537" y="349" type="curve"/>
      <point x="676" y="349"/>
      <point x="816" y="349"/>
      <point x="955" y="349" type="curve"/>
      <point x="955" y="398"/>
      <point x="955" y="349"/>
      <point x="955" y="398" type="curve"/>
      <point x="816" y="398"/>
      <point x="676" y="398"/>
      <point x="537" y="398" type="curve"/>
      <point x="537" y="349"/>
      <point x="537" y="398"/>
    </contour>
    <contour>
      <point x="518" y="673" type="curve"/>
      <point x="690" y="673"/>
      <point x="863" y="673"/>
      <point x="1035" y="673" type="curve"/>
      <point x="1035" y="722"/>
      <point x="1035" y="673"/>
      <point x="1035" y="722" type="curve"/>
      <point x="863" y="722"/>
      <point x="690" y="722"/>
      <point x="518" y="722" type="curve"/>
      <point x="518" y="673"/>
      <point x="518" y="722"/>
    </contour>
    <contour>
      <point x="560" y="0" type="curve"/>
      <point x="560" y="722" type="line"/>
      <point x="498" y="722"/>
      <point x="560" y="722"/>
      <point x="498" y="722" type="curve"/>
      <point x="498" y="481"/>
      <point x="498" y="241"/>
      <point x="498" y="0" type="curve"/>
      <point x="560" y="0"/>
      <point x="498" y="0"/>
    </contour>
    <contour>
      <point x="518" y="0" type="curve"/>
      <point x="704" y="0"/>
      <point x="891" y="0"/>
      <point x="1078" y="0" type="curve"/>
      <point x="1078" y="49"/>
      <point x="1078" y="0"/>
      <point x="1078" y="49" type="curve"/>
      <point x="891" y="49"/>
      <point x="704" y="49"/>
      <point x="518" y="49" type="curve"/>
      <point x="518" y="0"/>
      <point x="518" y="49"/>
    </contour>
  </outline>
</glyph>
<glyph name="Ccedilla" format="1">
  <advance width="829"/>
  <unicode hex="00C7"/>
  <outline>
    <contour>
      <point x="784" y="655" type="curve"/>
      <point x="693" y="697"/>
      <point x="597" y="727"/>
      <point x="489" y="727" type="curve"/>
      <point x="231" y="727"/>
      <point x="62" y="594"/>
      <point x="62" y="344" type="curve"/>
      <point x="62" y="113"/>
      <point x="220" y="-5"/>
      <point x="461" y="-5" type="curve"/>
      <point x="601" y="-5"/>
      <point x="691" y="25"/>
      <point x="801" y="94" type="curve"/>
      <point x="773" y="135"/>
      <point x="801" y="94"/>
      <point x="773" y="135" type="curve"/>
      <point x="669" y="70"/>
      <point x="585" y="47"/>
      <point x="463" y="47" type="curve"/>
      <point x="259" y="47"/>
      <point x="124" y="150"/>
      <point x="124" y="346" type="curve"/>
      <point x="124" y="559"/>
      <point x="267" y="676"/>
      <point x="486" y="676" type="curve"/>
      <point x="582" y="676"/>
      <point x="670" y="655"/>
      <point x="757" y="614" type="curve"/>
      <point x="784" y="655"/>
      <point x="757" y="614"/>
    </contour>
    <contour>
      <point x="432" y="35" type="curve"/>
      <point x="414" y="10"/>
      <point x="377" y="-39"/>
      <point x="359" y="-64" type="curve"/>
      <point x="401" y="-103"/>
      <point x="359" y="-64"/>
      <point x="401" y="-103" type="curve"/>
      <point x="421" y="-76"/>
      <point x="459" y="-25"/>
      <point x="479" y="2" type="curve"/>
      <point x="432" y="35"/>
      <point x="479" y="2"/>
    </contour>
    <contour>
      <point x="401" y="-104" type="curve"/>
      <point x="417" y="-95"/>
      <point x="430" y="-93"/>
      <point x="449" y="-93" type="curve"/>
      <point x="481" y="-93"/>
      <point x="504" y="-106"/>
      <point x="504" y="-136" type="curve"/>
      <point x="504" y="-170"/>
      <point x="472" y="-180"/>
      <point x="433" y="-180" type="curve"/>
      <point x="401" y="-180"/>
      <point x="377" y="-176"/>
      <point x="344" y="-162" type="curve"/>
      <point x="325" y="-199"/>
      <point x="344" y="-162"/>
      <point x="325" y="-199" type="curve"/>
      <point x="361" y="-215"/>
      <point x="391" y="-222"/>
      <point x="430" y="-222" type="curve"/>
      <point x="504" y="-222"/>
      <point x="562" y="-201"/>
      <point x="562" y="-135" type="curve"/>
      <point x="562" y="-76"/>
      <point x="515" y="-46"/>
      <point x="453" y="-46" type="curve"/>
      <point x="418" y="-46"/>
      <point x="393" y="-53"/>
      <point x="360" y="-65" type="curve"/>
      <point x="401" y="-104"/>
      <point x="360" y="-65"/>
    </contour>
  </outline>
</glyph>
<glyph name="Egrave" format="1">
  <advance width="715"/>
  <unicode hex="00C8"/>
  <outline>
    <contour>
      <point x="150" y="349" type="curve"/>
      <point x="289" y="349"/>
      <point x="428" y="349"/>
      <point x="568" y="349" type="curve"/>
      <point x="568" y="398"/>
      <point x="568" y="349"/>
      <point x="568" y="398" type="curve"/>
      <point x="428" y="398"/>
      <point x="289" y="398"/>
      <point x="150" y="398" type="curve"/>
      <point x="150" y="349"/>
      <point x="150" y="398"/>
    </contour>
    <contour>
      <point x="130" y="673" type="curve"/>
      <point x="303" y="673"/>
      <point x="475" y="673"/>
      <point x="648" y="673" type="curve"/>
      <point x="648" y="722"/>
      <point x="648" y="673"/>
      <point x="648" y="722" type="curve"/>
      <point x="475" y="722"/>
      <point x="303" y="722"/>
      <point x="130" y="722" type="curve"/>
      <point x="130" y="673"/>
      <point x="130" y="722"/>
    </contour>
    <contour>
      <point x="173" y="0" type="curve"/>
      <point x="173" y="722" type="line"/>
      <point x="111" y="722"/>
      <point x="173" y="722"/>
      <point x="111" y="722" type="curve"/>
      <point x="111" y="481"/>
      <point x="111" y="241"/>
      <point x="111" y="0" type="curve"/>
      <point x="173" y="0"/>
      <point x="111" y="0"/>
    </contour>
    <contour>
      <point x="130" y="0" type="curve"/>
      <point x="317" y="0"/>
      <point x="504" y="0"/>
      <point x="691" y="0" type="curve"/>
      <point x="691" y="49"/>
      <point x="691" y="0"/>
      <point x="691" y="49" type="curve"/>
      <point x="504" y="49"/>
      <point x="317" y="49"/>
      <point x="130" y="49" type="curve"/>
      <point x="130" y="0"/>
      <point x="130" y="49"/>
    </contour>
    <contour>
      <point x="390" y="812" type="line"/>
      <point x="223" y="978" type="line"/>
      <point x="137" y="978" type="line"/>
      <point x="323" y="812" type="line"/>
    </contour>
  </outline>
</glyph>
<glyph name="Ecircumflex" format="1">
  <advance width="703"/>
  <unicode hex="00CA"/>
  <outline>
    <contour>
      <point x="142" y="349" type="curve"/>
      <point x="281" y="349"/>
      <point x="420" y="349"/>
      <point x="560" y="349" type="curve"/>
      <point x="560" y="398"/>
      <point x="560" y="349"/>
      <point x="560" y="398" type="curve"/>
      <point x="420" y="398"/>
      <point x="281" y="398"/>
      <point x="142" y="398" type="curve"/>
      <point x="142" y="349"/>
      <point x="142" y="398"/>
    </contour>
    <contour>
      <point x="122" y="673" type="curve"/>
      <point x="295" y="673"/>
      <point x="467" y="673"/>
      <point x="640" y="673" type="curve"/>
      <point x="640" y="722"/>
      <point x="640" y="673"/>
      <point x="640" y="722" type="curve"/>
      <point x="467" y="722"/>
      <point x="295" y="722"/>
      <point x="122" y="722" type="curve"/>
      <point x="122" y="673"/>
      <point x="122" y="722"/>
    </contour>
    <contour>
      <point x="165" y="0" type="curve"/>
      <point x="165" y="722" type="line"/>
      <point x="103" y="722"/>
      <point x="165" y="722"/>
      <point x="103" y="722" type="curve"/>
      <point x="103" y="481"/>
      <point x="103" y="241"/>
      <point x="103" y="0" type="curve"/>
      <point x="165" y="0"/>
      <point x="103" y="0"/>
    </contour>
    <contour>
      <point x="122" y="0" type="curve"/>
      <point x="309" y="0"/>
      <point x="496" y="0"/>
      <point x="683" y="0" type="curve"/>
      <point x="683" y="49"/>
      <point x="683" y="0"/>
      <point x="683" y="49" type="curve"/>
      <point x="496" y="49"/>
      <point x="309" y="49"/>
      <point x="122" y="49" type="curve"/>
      <point x="122" y="0"/>
      <point x="122" y="49"/>
    </contour>
    <contour>
      <point x="189" y="813" type="line"/>
      <point x="375" y="979" type="line"/>
      <point x="289" y="979" type="line"/>
      <point x="124" y="813" type="line"/>
    </contour>
    <contour>
      <point x="563" y="813" type="line"/>
      <point x="396" y="979" type="line"/>
      <point x="310" y="979" type="line"/>
      <point x="496" y="813" type="line"/>
    </contour>
  </outline>
</glyph>
<glyph name="Edieresis" format="1">
  <advance width="714"/>
  <unicode hex="00CB"/>
  <outline>
    <contour>
      <point x="149" y="349" type="curve"/>
      <point x="287" y="349"/>
      <point x="427" y="349"/>
      <point x="566" y="349" type="curve"/>
      <point x="566" y="398"/>
      <point x="566" y="349"/>
      <point x="566" y="398" type="curve"/>
      <point x="427" y="398"/>
      <point x="287" y="398"/>
      <point x="149" y="398" type="curve"/>
      <point x="149" y="349"/>
      <point x="149" y="398"/>
    </contour>
    <contour>
      <point x="129" y="673" type="curve"/>
      <point x="301" y="673"/>
      <point x="474" y="673"/>
      <point x="647" y="673" type="curve"/>
      <point x="647" y="722"/>
      <point x="647" y="673"/>
      <point x="647" y="722" type="curve"/>
      <point x="474" y="722"/>
      <point x="301" y="722"/>
      <point x="129" y="722" type="curve"/>
      <point x="129" y="673"/>
      <point x="129" y="722"/>
    </contour>
    <contour>
      <point x="171" y="0" type="curve"/>
      <point x="171" y="722" type="line"/>
      <point x="109" y="722"/>
      <point x="171" y="722"/>
      <point x="109" y="722" type="curve"/>
      <point x="109" y="481"/>
      <point x="109" y="241"/>
      <point x="109" y="0" type="curve"/>
      <point x="171" y="0"/>
      <point x="109" y="0"/>
    </contour>
    <contour>
      <point x="129" y="0" type="curve"/>
      <point x="316" y="0"/>
      <point x="502" y="0"/>
      <point x="689" y="0" type="curve"/>
      <point x="689" y="49"/>
      <point x="689" y="0"/>
      <point x="689" y="49" type="curve"/>
      <point x="502" y="49"/>
      <point x="316" y="49"/>
      <point x="129" y="49" type="curve"/>
      <point x="129" y="0"/>
      <point x="129" y="49"/>
    </contour>
    <contour>
      <point x="301" y="845" type="curve"/>
      <point x="301" y="868"/>
      <point x="284" y="879"/>
      <point x="260" y="879" type="curve"/>
      <point x="237" y="879"/>
      <point x="222" y="867"/>
      <point x="222" y="845" type="curve"/>
      <point x="286" y="845"/>
      <point x="237" y="845"/>
      <point x="301" y="845" type="curve"/>
      <point x="301" y="822"/>
      <point x="284" y="811"/>
      <point x="260" y="811" type="curve"/>
      <point x="237" y="811"/>
      <point x="222" y="823"/>
      <point x="222" y="845" type="curve"/>
      <point x="286" y="845"/>
      <point x="237" y="845"/>
    </contour>
    <contour>
      <point x="479" y="845" type="curve"/>
      <point x="479" y="868"/>
      <point x="462" y="879"/>
      <point x="438" y="879" type="curve"/>
      <point x="415" y="879"/>
      <point x="399" y="867"/>
      <point x="399" y="845" type="curve"/>
      <point x="463" y="845"/>
      <point x="415" y="845"/>
      <point x="479" y="845" type="curve"/>
      <point x="479" y="822"/>
      <point x="462" y="811"/>
      <point x="438" y="811" type="curve"/>
      <point x="415" y="811"/>
      <point x="399" y="823"/>
      <point x="399" y="845" type="curve"/>
      <point x="463" y="845"/>
      <point x="415" y="845"/>
    </contour>
  </outline>
</glyph>
<glyph name="Igrave" format="1">
  <advance width="304"/>
  <unicode hex="00CC"/>
  <outline>
    <contour>
      <point x="186" y="0" type="curve"/>
      <point x="186" y="241"/>
      <point x="186" y="481"/>
      <point x="186" y="722" type="curve"/>
      <point x="124" y="722"/>
      <point x="186" y="722"/>
      <point x="124" y="722" type="curve"/>
      <point x="124" y="481"/>
      <point x="124" y="241"/>
      <point x="124" y="0" type="curve"/>
      <point x="186" y="0"/>
      <point x="124" y="0"/>
    </contour>
    <contour>
      <point x="194" y="812" type="line"/>
      <point x="28" y="978" type="line"/>
      <point x="-58" y="978" type="line"/>
      <point x="128" y="812" type="line"/>
    </contour>
  </outline>
</glyph>
<glyph name="Iacute" format="1">
  <advance width="299"/>
  <unicode hex="00CD"/>
  <outline>
    <contour>
      <point x="178" y="0" type="curve"/>
      <point x="178" y="241"/>
      <point x="178" y="481"/>
      <point x="178" y="722" type="curve"/>
      <point x="115" y="722"/>
      <point x="178" y="722"/>
      <point x="115" y="722" type="curve"/>
      <point x="115" y="481"/>
      <point x="115" y="241"/>
      <point x="115" y="0" type="curve"/>
      <point x="178" y="0"/>
      <point x="115" y="0"/>
    </contour>
    <contour>
      <point x="176" y="812" type="line"/>
      <point x="362" y="978" type="line"/>
      <point x="276" y="978" type="line"/>
      <point x="110" y="812" type="line"/>
    </contour>
  </outline>
</glyph>
<glyph name="Icircumflex" format="1">
  <advance width="307"/>
  <unicode hex="00CE"/>
  <outline>
    <contour>
      <point x="192" y="0" type="curve"/>
      <point x="192" y="241"/>
      <point x="192" y="481"/>
      <point x="192" y="722" type="curve"/>
      <point x="129" y="722"/>
      <point x="192" y="722"/>
      <point x="129" y="722" type="curve"/>
      <point x="129" y="481"/>
      <point x="129" y="241"/>
      <point x="129" y="0" type="curve"/>
      <point x="192" y="0"/>
      <point x="129" y="0"/>
    </contour>
    <contour>
      <point x="7" y="813" type="line"/>
      <point x="193" y="979" type="line"/>
      <point x="107" y="979" type="line"/>
      <point x="-58" y="813" type="line"/>
    </contour>
    <contour>
      <point x="381" y="813" type="line"/>
      <point x="215" y="979" type="line"/>
      <point x="128" y="979" type="line"/>
      <point x="314" y="813" type="line"/>
    </contour>
  </outline>
</glyph>
<glyph name="Idieresis" format="1">
  <advance width="293"/>
  <unicode hex="00CF"/>
  <outline>
    <contour>
      <point x="179" y="0" type="curve"/>
      <point x="179" y="241"/>
      <point x="179" y="481"/>
      <point x="179" y="722" type="curve"/>
      <point x="117" y="722"/>
      <point x="179" y="722"/>
      <point x="117" y="722" type="curve"/>
      <point x="117" y="481"/>
      <point x="117" y="241"/>
      <point x="117" y="0" type="curve"/>
      <point x="179" y="0"/>
      <point x="117" y="0"/>
    </contour>
    <contour>
      <point x="100" y="845" type="curve"/>
      <point x="100" y="868"/>
      <point x="83" y="879"/>
      <point x="59" y="879" type="curve"/>
      <point x="36" y="879"/>
      <point x="21" y="867"/>
      <point x="21" y="845" type="curve"/>
      <point x="84" y="845"/>
      <point x="36" y="845"/>
      <point x="100" y="845" type="curve"/>
      <point x="100" y="822"/>
      <point x="83" y="811"/>
      <point x="59" y="811" type="curve"/>
      <point x="36" y="811"/>
      <point x="21" y="823"/>
      <point x="21" y="845" type="curve"/>
      <point x="84" y="845"/>
      <point x="36" y="845"/>
    </contour>
    <contour>
      <point x="278" y="845" type="curve"/>
      <point x="278" y="868"/>
      <point x="261" y="879"/>
      <point x="237" y="879" type="curve"/>
      <point x="214" y="879"/>
      <point x="198" y="867"/>
      <point x="198" y="845" type="curve"/>
      <point x="262" y="845"/>
      <point x="214" y="845"/>
      <point x="278" y="845" type="curve"/>
      <point x="278" y="822"/>
      <point x="261" y="811"/>
      <point x="237" y="811" type="curve"/>
      <point x="213" y="811"/>
      <point x="198" y="823"/>
      <point x="198" y="845" type="curve"/>
      <point x="262" y="845"/>
      <point x="214" y="845"/>
    </contour>
  </outline>
</glyph>
<glyph name="Eth" format="1">
  <advance width="888"/>
  <unicode hex="00D0"/>
  <outline>
    <contour>
      <point x="119" y="722" type="curve"/>
      <point x="119" y="481"/>
      <point x="119" y="241"/>
      <point x="119" y="0" type="curve"/>
      <point x="182" y="0"/>
      <point x="119" y="0"/>
      <point x="182" y="0" type="curve"/>
      <point x="182" y="241"/>
      <point x="182" y="481"/>
      <point x="182" y="722" type="curve"/>
      <point x="119" y="722"/>
      <point x="182" y="722"/>
    </contour>
    <contour>
      <point x="153" y="0" type="curve"/>
      <point x="237" y="0"/>
      <point x="320" y="0"/>
      <point x="404" y="0" type="curve"/>
      <point x="665" y="0"/>
      <point x="825" y="107"/>
      <point x="825" y="352" type="curve"/>
      <point x="825" y="608"/>
      <point x="661" y="722"/>
      <point x="391" y="722" type="curve"/>
      <point x="311" y="722"/>
      <point x="232" y="722"/>
      <point x="153" y="722" type="curve"/>
      <point x="153" y="674"/>
      <point x="153" y="721"/>
      <point x="153" y="673" type="curve"/>
      <point x="231" y="673"/>
      <point x="309" y="673"/>
      <point x="387" y="673" type="curve"/>
      <point x="622" y="673"/>
      <point x="763" y="573"/>
      <point x="763" y="350" type="curve"/>
      <point x="763" y="142"/>
      <point x="630" y="49"/>
      <point x="410" y="49" type="curve"/>
      <point x="324" y="49"/>
      <point x="239" y="49"/>
      <point x="153" y="49" type="curve"/>
      <point x="153" y="1"/>
      <point x="153" y="48"/>
    </contour>
    <contour>
      <point x="40" y="334" type="curve"/>
      <point x="171" y="334"/>
      <point x="301" y="334"/>
      <point x="432" y="334" type="curve"/>
      <point x="432" y="388"/>
      <point x="432" y="334"/>
      <point x="432" y="388" type="curve"/>
      <point x="301" y="388"/>
      <point x="171" y="388"/>
      <point x="40" y="388" type="curve"/>
      <point x="40" y="334"/>
      <point x="40" y="388"/>
    </contour>
  </outline>
</glyph>
<glyph name="Ntilde" format="1">
  <advance width="978"/>
  <unicode hex="00D1"/>
  <outline>
    <contour>
      <point x="867" y="0" type="curve"/>
      <point x="640" y="240"/>
      <point x="414" y="482"/>
      <point x="188" y="722" type="curve"/>
      <point x="112" y="722"/>
      <point x="186" y="722"/>
      <point x="110" y="722" type="curve"/>
      <point x="336" y="482"/>
      <point x="562" y="240"/>
      <point x="789" y="0" type="curve"/>
      <point x="864" y="0"/>
      <point x="792" y="0"/>
    </contour>
    <contour>
      <point x="806" y="722" type="curve"/>
      <point x="806" y="481"/>
      <point x="806" y="241"/>
      <point x="806" y="0" type="curve"/>
      <point x="869" y="0"/>
      <point x="806" y="0"/>
      <point x="869" y="0" type="curve"/>
      <point x="869" y="241"/>
      <point x="869" y="481"/>
      <point x="869" y="722" type="curve"/>
      <point x="806" y="722"/>
      <point x="869" y="722"/>
    </contour>
    <contour>
      <point x="173" y="0" type="curve"/>
      <point x="173" y="241"/>
      <point x="173" y="481"/>
      <point x="173" y="722" type="curve"/>
      <point x="110" y="722"/>
      <point x="173" y="722"/>
      <point x="110" y="722" type="curve"/>
      <point x="110" y="481"/>
      <point x="110" y="241"/>
      <point x="110" y="0" type="curve"/>
      <point x="173" y="0"/>
      <point x="110" y="0"/>
    </contour>
    <contour>
      <point x="701" y="952" type="curve"/>
      <point x="685" y="901"/>
      <point x="662" y="858"/>
      <point x="614" y="858" type="curve"/>
      <point x="570" y="858"/>
      <point x="541" y="873"/>
      <point x="508" y="902" type="curve"/>
      <point x="468" y="936"/>
      <point x="437" y="955"/>
      <point x="385" y="955" type="curve"/>
      <point x="309" y="955"/>
      <point x="266" y="907"/>
      <point x="243" y="830" type="curve"/>
      <point x="290" y="810"/>
      <point x="243" y="830"/>
      <point x="290" y="810" type="curve"/>
      <point x="307" y="867"/>
      <point x="335" y="904"/>
      <point x="387" y="904" type="curve"/>
      <point x="428" y="904"/>
      <point x="451" y="887"/>
      <point x="482" y="861" type="curve"/>
      <point x="525" y="825"/>
      <point x="560" y="808"/>
      <point x="614" y="808" type="curve"/>
      <point x="689" y="808"/>
      <point x="725" y="860"/>
      <point x="750" y="933" type="curve"/>
      <point x="701" y="951"/>
      <point x="750" y="933"/>
    </contour>
  </outline>
</glyph>
<glyph name="Oacute" format="1">
  <advance width="918"/>
  <unicode hex="00D3"/>
  <outline>
    <contour>
      <point x="124" y="360" type="curve" name="FullCurve"/>
      <point x="124" y="557"/>
      <point x="254" y="676"/>
      <point x="456" y="676" type="curve" name="FullCurve"/>
      <point x="659" y="676"/>
      <point x="793" y="560"/>
      <point x="793" y="363" type="curve" name="FullCurve"/>
      <point x="793" y="167"/>
      <point x="663" y="47"/>
      <point x="461" y="47" type="curve" name="FullCurve"/>
      <point x="257" y="47"/>
      <point x="124" y="163"/>
      <point x="124" y="360" type="curve" name="FullCurve"/>
      <point x="62" y="360"/>
      <point x="124" y="360"/>
      <point x="62" y="360" type="curve" name="FullCurve"/>
      <point x="62" y="129"/>
      <point x="221" y="-5"/>
      <point x="458" y="-5" type="curve" name="FullCurve"/>
      <point x="697" y="-5"/>
      <point x="856" y="131"/>
      <point x="856" y="363" type="curve" name="FullCurve"/>
      <point x="856" y="593"/>
      <point x="697" y="727"/>
      <point x="460" y="727" type="curve" name="FullCurve"/>
      <point x="220" y="727"/>
      <point x="62" y="592"/>
      <point x="62" y="360" type="curve" name="FullCurve"/>
      <point x="124" y="360"/>
      <point x="62" y="360"/>
    </contour>
    <contour>
      <point x="488" y="812" type="line"/>
      <point x="674" y="978" type="line"/>
      <point x="588" y="978" type="line"/>
      <point x="422" y="812" type="line"/>
    </contour>
  </outline>
</glyph>
<glyph name="Ocircumflex" format="1">
  <advance width="918"/>
  <unicode hex="00D4"/>
  <outline>
    <contour>
      <point x="124" y="360" type="curve" name="FullCurve"/>
      <point x="124" y="557"/>
      <point x="254" y="676"/>
      <point x="456" y="676" type="curve" name="FullCurve"/>
      <point x="659" y="676"/>
      <point x="793" y="560"/>
      <point x="793" y="363" type="curve" name="FullCurve"/>
      <point x="793" y="167"/>
      <point x="663" y="47"/>
      <point x="461" y="47" type="curve" name="FullCurve"/>
      <point x="257" y="47"/>
      <point x="124" y="163"/>
      <point x="124" y="360" type="curve" name="FullCurve"/>
      <point x="62" y="360"/>
      <point x="124" y="360"/>
      <point x="62" y="360" type="curve" name="FullCurve"/>
      <point x="62" y="129"/>
      <point x="221" y="-5"/>
      <point x="458" y="-5" type="curve" name="FullCurve"/>
      <point x="697" y="-5"/>
      <point x="856" y="131"/>
      <point x="856" y="363" type="curve" name="FullCurve"/>
      <point x="856" y="593"/>
      <point x="697" y="727"/>
      <point x="460" y="727" type="curve" name="FullCurve"/>
      <point x="220" y="727"/>
      <point x="62" y="592"/>
      <point x="62" y="360" type="curve" name="FullCurve"/>
      <point x="124" y="360"/>
      <point x="62" y="360"/>
    </contour>
    <contour>
      <point x="306" y="813" type="line"/>
      <point x="491" y="979" type="line"/>
      <point x="405" y="979" type="line"/>
      <point x="240" y="813" type="line"/>
    </contour>
    <contour>
      <point x="679" y="813" type="line"/>
      <point x="513" y="979" type="line"/>
      <point x="426" y="979" type="line"/>
      <point x="612" y="813" type="line"/>
    </contour>
  </outline>
</glyph>
<glyph name="Otilde" format="1">
  <advance width="918"/>
  <unicode hex="00D5"/>
  <outline>
    <contour>
      <point x="124" y="360" type="curve" name="FullCurve"/>
      <point x="124" y="557"/>
      <point x="254" y="676"/>
      <point x="456" y="676" type="curve" name="FullCurve"/>
      <point x="659" y="676"/>
      <point x="793" y="560"/>
      <point x="793" y="363" type="curve" name="FullCurve"/>
      <point x="793" y="167"/>
      <point x="663" y="47"/>
      <point x="461" y="47" type="curve" name="FullCurve"/>
      <point x="257" y="47"/>
      <point x="124" y="163"/>
      <point x="124" y="360" type="curve" name="FullCurve"/>
      <point x="62" y="360"/>
      <point x="124" y="360"/>
      <point x="62" y="360" type="curve" name="FullCurve"/>
      <point x="62" y="129"/>
      <point x="221" y="-5"/>
      <point x="458" y="-5" type="curve" name="FullCurve"/>
      <point x="697" y="-5"/>
      <point x="856" y="131"/>
      <point x="856" y="363" type="curve" name="FullCurve"/>
      <point x="856" y="593"/>
      <point x="697" y="727"/>
      <point x="460" y="727" type="curve" name="FullCurve"/>
      <point x="220" y="727"/>
      <point x="62" y="592"/>
      <point x="62" y="360" type="curve" name="FullCurve"/>
      <point x="124" y="360"/>
      <point x="62" y="360"/>
    </contour>
    <contour>
      <point x="662" y="952" type="curve"/>
      <point x="646" y="901"/>
      <point x="624" y="858"/>
      <point x="575" y="858" type="curve"/>
      <point x="531" y="858"/>
      <point x="503" y="873"/>
      <point x="469" y="902" type="curve"/>
      <point x="429" y="936"/>
      <point x="398" y="955"/>
      <point x="346" y="955" type="curve"/>
      <point x="270" y="955"/>
      <point x="227" y="907"/>
      <point x="204" y="830" type="curve"/>
      <point x="251" y="810"/>
      <point x="204" y="830"/>
      <point x="251" y="810" type="curve"/>
      <point x="268" y="867"/>
      <point x="296" y="904"/>
      <point x="348" y="904" type="curve"/>
      <point x="389" y="904"/>
      <point x="413" y="887"/>
      <point x="443" y="861" type="curve"/>
      <point x="486" y="825"/>
      <point x="521" y="808"/>
      <point x="576" y="808" type="curve"/>
      <point x="651" y="808"/>
      <point x="687" y="860"/>
      <point x="711" y="933" type="curve"/>
      <point x="662" y="951"/>
      <point x="711" y="933"/>
    </contour>
  </outline>
</glyph>
<glyph name="Odieresis" format="1">
  <advance width="918"/>
  <unicode hex="00D6"/>
  <outline>
    <contour>
      <point x="124" y="360" type="curve" name="FullCurve"/>
      <point x="124" y="557"/>
      <point x="254" y="676"/>
      <point x="456" y="676" type="curve" name="FullCurve"/>
      <point x="659" y="676"/>
      <point x="793" y="560"/>
      <point x="793" y="363" type="curve" name="FullCurve"/>
      <point x="793" y="167"/>
      <point x="663" y="47"/>
      <point x="461" y="47" type="curve" name="FullCurve"/>
      <point x="257" y="47"/>
      <point x="124" y="163"/>
      <point x="124" y="360" type="curve" name="FullCurve"/>
      <point x="62" y="360"/>
      <point x="124" y="360"/>
      <point x="62" y="360" type="curve" name="FullCurve"/>
      <point x="62" y="129"/>
      <point x="221" y="-5"/>
      <point x="458" y="-5" type="curve" name="FullCurve"/>
      <point x="697" y="-5"/>
      <point x="856" y="131"/>
      <point x="856" y="363" type="curve" name="FullCurve"/>
      <point x="856" y="593"/>
      <point x="697" y="727"/>
      <point x="460" y="727" type="curve" name="FullCurve"/>
      <point x="220" y="727"/>
      <point x="62" y="592"/>
      <point x="62" y="360" type="curve" name="FullCurve"/>
      <point x="124" y="360"/>
      <point x="62" y="360"/>
    </contour>
    <contour>
      <point x="411" y="845" type="curve"/>
      <point x="411" y="868"/>
      <point x="394" y="879"/>
      <point x="370" y="879" type="curve"/>
      <point x="347" y="879"/>
      <point x="331" y="867"/>
      <point x="331" y="845" type="curve"/>
      <point x="395" y="845"/>
      <point x="347" y="845"/>
      <point x="411" y="845" type="curve"/>
      <point x="411" y="822"/>
      <point x="394" y="811"/>
      <point x="370" y="811" type="curve"/>
      <point x="347" y="811"/>
      <point x="331" y="823"/>
      <point x="331" y="845" type="curve"/>
      <point x="395" y="845"/>
      <point x="347" y="845"/>
    </contour>
    <contour>
      <point x="588" y="845" type="curve"/>
      <point x="588" y="868"/>
      <point x="571" y="879"/>
      <point x="548" y="879" type="curve"/>
      <point x="524" y="879"/>
      <point x="509" y="867"/>
      <point x="509" y="845" type="curve"/>
      <point x="573" y="845"/>
      <point x="525" y="845"/>
      <point x="588" y="845" type="curve"/>
      <point x="588" y="822"/>
      <point x="571" y="811"/>
      <point x="547" y="811" type="curve"/>
      <point x="524" y="811"/>
      <point x="509" y="823"/>
      <point x="509" y="845" type="curve"/>
      <point x="573" y="845"/>
      <point x="525" y="845"/>
    </contour>
  </outline>
</glyph>
<glyph name="multiply" format="1">
  <advance width="566"/>
  <unicode hex="00D7"/>
  <outline>
    <contour>
      <point x="99" y="88" type="line"/>
      <point x="501" y="492" type="line"/>
      <point x="464" y="529" type="line"/>
      <point x="61" y="126" type="line"/>
    </contour>
    <contour>
      <point x="505" y="124" type="line"/>
      <point x="100" y="531" type="line"/>
      <point x="62" y="494" type="line"/>
      <point x="468" y="86" type="line"/>
    </contour>
  </outline>
</glyph>
<glyph name="Ugrave" format="1">
  <advance width="900"/>
  <unicode hex="00D9"/>
  <outline>
    <contour>
      <point x="101" y="721" type="curve"/>
      <point x="101" y="556"/>
      <point x="101" y="439"/>
      <point x="101" y="274" type="curve"/>
      <point x="101" y="71"/>
      <point x="232" y="-5"/>
      <point x="451" y="-5" type="curve"/>
      <point x="668" y="-5"/>
      <point x="799" y="71"/>
      <point x="799" y="272" type="curve"/>
      <point x="799" y="438"/>
      <point x="799" y="555"/>
      <point x="799" y="721" type="curve"/>
      <point x="750" y="721"/>
      <point x="789" y="721"/>
      <point x="741" y="721" type="curve"/>
      <point x="741" y="552"/>
      <point x="741" y="435"/>
      <point x="741" y="265" type="curve"/>
      <point x="741" y="108"/>
      <point x="632" y="49"/>
      <point x="456" y="49" type="curve"/>
      <point x="270" y="49"/>
      <point x="158" y="111"/>
      <point x="158" y="283" type="curve"/>
      <point x="158" y="445"/>
      <point x="158" y="560"/>
      <point x="158" y="721" type="curve"/>
      <point x="110" y="721"/>
      <point x="149" y="721"/>
    </contour>
    <contour>
      <point x="494" y="812" type="line"/>
      <point x="328" y="978" type="line"/>
      <point x="242" y="978" type="line"/>
      <point x="428" y="812" type="line"/>
    </contour>
  </outline>
</glyph>
<glyph name="Yacute" format="1">
  <advance width="715"/>
  <unicode hex="00DD"/>
  <outline>
    <contour>
      <point x="21" y="722" type="curve"/>
      <point x="117" y="598"/>
      <point x="228" y="462"/>
      <point x="325" y="337" type="curve"/>
      <point x="389" y="337"/>
      <point x="324" y="340"/>
      <point x="389" y="340" type="curve"/>
      <point x="290" y="467"/>
      <point x="192" y="595"/>
      <point x="92" y="722" type="curve"/>
      <point x="34" y="722"/>
      <point x="79" y="722"/>
    </contour>
    <contour>
      <point x="638" y="722" type="curve"/>
      <point x="533" y="595"/>
      <point x="429" y="467"/>
      <point x="325" y="340" type="curve"/>
      <point x="389" y="340"/>
      <point x="325" y="337"/>
      <point x="389" y="337" type="curve"/>
      <point x="492" y="462"/>
      <point x="603" y="597"/>
      <point x="706" y="722" type="curve"/>
      <point x="647" y="722"/>
      <point x="697" y="722"/>
    </contour>
    <contour>
      <point x="391" y="0" type="curve"/>
      <point x="391" y="115"/>
      <point x="391" y="231"/>
      <point x="391" y="346" type="curve"/>
      <point x="323" y="346"/>
      <point x="391" y="346"/>
      <point x="323" y="346" type="curve"/>
      <point x="323" y="231"/>
      <point x="323" y="115"/>
      <point x="323" y="0" type="curve"/>
      <point x="391" y="0"/>
      <point x="323" y="0"/>
    </contour>
    <contour>
      <point x="388" y="812" type="line"/>
      <point x="574" y="978" type="line"/>
      <point x="487" y="978" type="line"/>
      <point x="322" y="812" type="line"/>
    </contour>
  </outline>
</glyph>
<glyph name="Thorn" format="1">
  <advance width="673"/>
  <unicode hex="00DE"/>
  <outline>
    <contour>
      <point x="135" y="225" type="curve"/>
      <point x="204" y="198"/>
      <point x="268" y="180"/>
      <point x="344" y="180" type="curve"/>
      <point x="505" y="183"/>
      <point x="630" y="247"/>
      <point x="630" y="393" type="curve"/>
      <point x="630" y="549"/>
      <point x="488" y="616"/>
      <point x="312" y="616" type="curve"/>
      <point x="257" y="616"/>
      <point x="201" y="616"/>
      <point x="146" y="616" type="curve"/>
      <point x="146" y="567"/>
      <point x="146" y="616"/>
      <point x="146" y="567" type="curve"/>
      <point x="198" y="567"/>
      <point x="251" y="567"/>
      <point x="303" y="567" type="curve"/>
      <point x="449" y="567"/>
      <point x="567" y="518"/>
      <point x="567" y="391" type="curve"/>
      <point x="567" y="279"/>
      <point x="469" y="228"/>
      <point x="344" y="228" type="curve"/>
      <point x="272" y="228"/>
      <point x="221" y="243"/>
      <point x="155" y="269" type="curve"/>
      <point x="135" y="226"/>
      <point x="155" y="269"/>
    </contour>
    <contour>
      <point x="173" y="0" type="curve"/>
      <point x="173" y="241"/>
      <point x="173" y="481"/>
      <point x="173" y="722" type="curve"/>
      <point x="110" y="722"/>
      <point x="173" y="722"/>
      <point x="110" y="722" type="curve"/>
      <point x="110" y="481"/>
      <point x="110" y="241"/>
      <point x="110" y="0" type="curve"/>
      <point x="173" y="0"/>
      <point x="110" y="0"/>
    </contour>
  </outline>
</glyph>
<glyph name="germandbls" format="1">
  <advance width="686"/>
  <unicode hex="00DF"/>
  <outline>
    <contour>
      <point x="155" y="0" type="curve"/>
      <point x="155" y="204"/>
      <point x="155" y="406"/>
      <point x="155" y="609" type="curve"/>
      <point x="93" y="609"/>
      <point x="155" y="609"/>
      <point x="93" y="609" type="curve"/>
      <point x="93" y="406"/>
      <point x="93" y="204"/>
      <point x="93" y="0" type="curve"/>
      <point x="155" y="0"/>
      <point x="93" y="0"/>
    </contour>
    <contour>
      <point x="155" y="609" type="curve"/>
      <point x="155" y="706"/>
      <point x="233" y="753"/>
      <point x="338" y="753" type="curve"/>
      <point x="450" y="753"/>
      <point x="540" y="718"/>
      <point x="540" y="616" type="curve"/>
      <point x="540" y="516"/>
      <point x="442" y="479"/>
      <point x="321" y="479" type="curve"/>
      <point x="321" y="438"/>
      <point x="321" y="479"/>
      <point x="321" y="438" type="curve"/>
      <point x="474" y="438"/>
      <point x="599" y="482"/>
      <point x="599" y="619" type="curve"/>
      <point x="599" y="749"/>
      <point x="488" y="801"/>
      <point x="343" y="801" type="curve"/>
      <point x="200" y="801"/>
      <point x="93" y="740"/>
      <point x="93" y="609" type="curve"/>
      <point x="155" y="609"/>
      <point x="93" y="609"/>
    </contour>
    <contour>
      <point x="443" y="83" type="curve"/>
      <point x="557" y="103"/>
      <point x="641" y="157"/>
      <point x="641" y="277" type="curve"/>
      <point x="641" y="428"/>
      <point x="506" y="479"/>
      <point x="321" y="479" type="curve"/>
      <point x="321" y="438"/>
      <point x="321" y="479"/>
      <point x="321" y="438" type="curve"/>
      <point x="451" y="438"/>
      <point x="583" y="404"/>
      <point x="583" y="275" type="curve"/>
      <point x="583" y="185"/>
      <point x="508" y="149"/>
      <point x="429" y="132" type="curve"/>
      <point x="443" y="83"/>
      <point x="429" y="132"/>
    </contour>
  </outline>
</glyph>
<glyph name="aring" format="1">
  <advance width="639"/>
  <unicode hex="00E5"/>
  <outline>
    <contour>
      <point x="551" y="0" type="curve"/>
      <point x="551" y="128"/>
      <point x="551" y="254"/>
      <point x="551" y="382" type="curve"/>
      <point x="551" y="509"/>
      <point x="455" y="538"/>
      <point x="320" y="538" type="curve"/>
      <point x="212" y="538"/>
      <point x="132" y="507"/>
      <point x="67" y="463" type="curve"/>
      <point x="90" y="423"/>
      <point x="68" y="462"/>
      <point x="91" y="421" type="curve"/>
      <point x="149" y="457"/>
      <point x="217" y="489"/>
      <point x="312" y="489" type="curve"/>
      <point x="416" y="489"/>
      <point x="489" y="471"/>
      <point x="489" y="370" type="curve"/>
      <point x="489" y="246"/>
      <point x="489" y="123"/>
      <point x="489" y="0" type="curve"/>
      <point x="551" y="0"/>
      <point x="489" y="0"/>
    </contour>
    <contour>
      <point x="518" y="326" type="curve"/>
      <point x="419" y="316"/>
      <point x="360" y="311"/>
      <point x="262" y="301" type="curve"/>
      <point x="142" y="288"/>
      <point x="52" y="262"/>
      <point x="52" y="146" type="curve"/>
      <point x="52" y="40"/>
      <point x="131" y="-5"/>
      <point x="251" y="-5" type="curve"/>
      <point x="380" y="-5"/>
      <point x="454" y="56"/>
      <point x="534" y="150" type="curve"/>
      <point x="503" y="177"/>
      <point x="535" y="152"/>
      <point x="504" y="179" type="curve"/>
      <point x="441" y="104"/>
      <point x="369" y="43"/>
      <point x="262" y="43" type="curve"/>
      <point x="172" y="43"/>
      <point x="113" y="73"/>
      <point x="113" y="147" type="curve"/>
      <point x="113" y="229"/>
      <point x="177" y="248"/>
      <point x="260" y="257" type="curve"/>
      <point x="360" y="267"/>
      <point x="420" y="273"/>
      <point x="521" y="284" type="curve"/>
      <point x="518" y="326"/>
      <point x="521" y="284"/>
    </contour>
    <contour>
      <point x="162" y="778" type="curve"/>
      <point x="162" y="693"/>
      <point x="230" y="652"/>
      <point x="321" y="652" type="curve"/>
      <point x="415" y="652"/>
      <point x="485" y="691"/>
      <point x="485" y="778" type="curve"/>
      <point x="485" y="865"/>
      <point x="414" y="904"/>
      <point x="319" y="904" type="curve"/>
      <point x="228" y="904"/>
      <point x="162" y="863"/>
      <point x="162" y="778" type="curve"/>
      <point x="216" y="778"/>
      <point x="162" y="778"/>
      <point x="215" y="778" type="curve"/>
      <point x="215" y="834"/>
      <point x="259" y="861"/>
      <point x="319" y="861" type="curve"/>
      <point x="383" y="861"/>
      <point x="431" y="838"/>
      <point x="431" y="778" type="curve"/>
      <point x="431" y="720"/>
      <point x="384" y="695"/>
      <point x="321" y="695" type="curve"/>
      <point x="261" y="695"/>
      <point x="215" y="720"/>
      <point x="215" y="778" type="curve"/>
      <point x="162" y="778"/>
      <point x="216" y="778"/>
    </contour>
  </outline>
</glyph>
